SplineFontDB: 3.0
FontName: AcathistUnicode
FullName: Acathist Unicode
FamilyName: Acathist Unicode
Weight: Regular
Copyright: Copyright 2013-2020 Aleksandr Andreev and Nikita Simmons (<https://sci.ponomar.net/>).
Version: 1.0
ItalicAngle: 0
UnderlinePosition: -45
UnderlineWidth: 7
Ascent: 800
Descent: 200
InvalidEm: 0
LayerCount: 2
Layer: 0 0 "Back" 1
Layer: 1 0 "Fore" 0
XUID: [1021 16 -658691101 2596357]
StyleMap: 0x0000
FSType: 0
OS2Version: 2
OS2_WeightWidthSlopeOnly: 0
OS2_UseTypoMetrics: 0
CreationTime: 1220731200
ModificationTime: 1586151758
PfmFamily: 17
TTFWeight: 400
TTFWidth: 5
LineGap: 17
VLineGap: 0
Panose: 2 0 5 0 9 0 0 2 0 3
OS2TypoAscent: 844
OS2TypoAOffset: 0
OS2TypoDescent: -582
OS2TypoDOffset: 0
OS2TypoLinegap: 33
OS2WinAscent: 939
OS2WinAOffset: 0
OS2WinDescent: 582
OS2WinDOffset: 0
HheadAscent: 939
HheadAOffset: 0
HheadDescent: -582
HheadDOffset: 0
OS2SubXSize: 203
OS2SubYSize: 203
OS2SubXOff: 0
OS2SubYOff: 286
OS2SupXSize: 203
OS2SupYSize: 203
OS2SupXOff: 0
OS2SupYOff: 286
OS2StrikeYSize: 50
OS2StrikeYPos: 250
OS2CapHeight: 663
OS2XHeight: 437
OS2Vendor: '    '
OS2CodePages: 00000005.00000000
OS2UnicodeRanges: 80000203.0000004a.00000000.00000000
Lookup: 4 0 0 "'ccmp' Precomposed Glyphs" { "'ccmp' Precomposed Glyphs-1"  } ['ccmp' ('DFLT' <'dflt' > 'cyrl' <'dflt' > 'latn' <'dflt' > ) ]
Lookup: 258 8 0 "'kern' Horizontal Kerning lookup 0" { "'kern' Horizontal Kerning lookup 0 subtable" [150,15,0] } ['kern' ('DFLT' <'dflt' > 'cyrl' <'dflt' > 'latn' <'dflt' > ) ]
Lookup: 260 0 0 "'mark' Mark Positioning lookup 1" { "'mark' Mark Positioning lookup 1-1"  } ['mark' ('DFLT' <'dflt' > 'cyrl' <'dflt' > 'latn' <'dflt' > ) ]
Lookup: 262 0 0 "'mkmk' Mark to Mark Positioning" { "'mkmk' Mark to Mark Positioning-1"  } ['mkmk' ('DFLT' <'dflt' > 'cyrl' <'dflt' > 'latn' <'dflt' > ) ]
MarkAttachClasses: 1
DEI: 91125
TtTable: prep
PUSHW_1
 0
CALL
SVTCA[y-axis]
PUSHW_3
 1
 2
 2
CALL
SVTCA[x-axis]
PUSHW_3
 3
 2
 2
CALL
SVTCA[x-axis]
PUSHW_7
 3
 55
 45
 35
 25
 15
 8

StartChar: .notdef
Encoding: 1114112 -1 0
Width: 366
Flags: HW
LayerCount: 2
Fore
SplineSet
0 663 m 1
 366 663 l 1
 366 0 l 1
 0 0 l 1
 0 663 l 1
24 645 m 1
 182 344 l 1
 342 645 l 1
 24 645 l 1
189 331 m 1
 348 31 l 1
 348 632 l 1
 189 331 l 1
342 18 m 1
 182 319 l 1
 24 18 l 1
 342 18 l 1
18 632 m 1
 18 31 l 1
 176 331 l 1
 18 632 l 1
EndSplineSet
EndChar

StartChar: period
Encoding: 46 46 2
Width: 216
Flags: HW
LayerCount: 2
Fore
SplineSet
102 127 m 256
 120 127 135.333333333 120.666666667 148 108 c 128
 160.666666667 95.3333333333 167 80 167 62 c 256
 167 44 160.5 28.8333333333 147.5 16.5 c 128
 134.5 4.16666666667 119.333333333 -2 102 -2 c 256
 84.6666666667 -2 69.5 4.16666666667 56.5 16.5 c 128
 43.5 28.8333333333 37 44 37 62 c 256
 37 80 43.3333333333 95.3333333333 56 108 c 128
 68.6666666667 120.666666667 84 127 102 127 c 256
EndSplineSet
EndChar

StartChar: slash
Encoding: 47 47 3
Width: 405
Flags: HW
LayerCount: 2
Fore
SplineSet
6 -353 m 1
 -53 -353 l 1
 362 939 l 1
 421 939 l 1
 6 -353 l 1
EndSplineSet
EndChar

StartChar: uni0443
Encoding: 1091 1091 4
Width: 433
Flags: HW
AnchorPoint: "Yerok" 346 557 basechar 0
AnchorPoint: "Diacritic" 201 556 basechar 0
LayerCount: 2
Fore
SplineSet
402 443 m 0
 404.666666667 443 406 440.333333333 406 435 c 1
 396.666666667 423.666666667 389.833333333 412.5 385.5 401.5 c 128
 381.166666667 390.5 379 378.333333333 379 365 c 0
 379 357 380 348 382 338 c 0
 382 336 381.666666667 334 381 332 c 128
 380.333333333 330 379 329 377 329 c 0
 368.333333333 332.333333333 360.5 335.5 353.5 338.5 c 128
 346.5 341.5 338.333333333 343 329 343 c 0
 313 343 300.166666667 336 290.5 322 c 128
 280.833333333 308 275 293.333333333 273 278 c 0
 270.333333333 255.333333333 268 233.666666667 266 213 c 128
 264 192.333333333 262.166666667 171.5 260.5 150.5 c 128
 258.833333333 129.5 257.333333333 107.666666667 256 85 c 128
 254.666666667 62.3333333333 253.666666667 37.6666666667 253 11 c 0
 251.666666667 -13.6666666667 251 -35.8333333333 251 -55.5 c 128
 251 -85 251 -85 251 -113.5 c 128
 251 -132.5 250.833333333 -152 250.5 -172 c 128
 250.166666667 -192 249 -214 247 -238 c 0
 245 -264.666666667 242.833333333 -291.666666667 240.5 -319 c 128
 238.166666667 -346.333333333 235.333333333 -372 232 -396 c 128
 228.666666667 -420 225 -441.666666667 221 -461 c 128
 217 -480.333333333 212.666666667 -495.333333333 208 -506 c 0
 206.666666667 -509.333333333 204.333333333 -512.5 201 -515.5 c 128
 197.666666667 -518.5 191 -520.333333333 181 -521 c 1
 177.666666667 -518.333333333 176 -514.333333333 176 -509 c 1
 179.333333333 -507.666666667 182 -503.166666667 184 -495.5 c 128
 186 -487.833333333 187.333333333 -481 188 -475 c 0
 191.333333333 -433.666666667 194.166666667 -392.5 196.5 -351.5 c 128
 198.833333333 -310.5 201 -264 203 -212 c 0
 203.666666667 -190 204.166666667 -170.166666667 204.5 -152.5 c 128
 204.833333333 -134.833333333 205.166666667 -117.5 205.5 -100.5 c 128
 205.833333333 -83.5 206 -66.3333333333 206 -49 c 128
 206 -31.6666666667 206.666666667 -12.3333333333 208 9 c 1
 190.666666667 7 173.333333333 4.33333333333 156 1 c 128
 138.666666667 -2.33333333333 121.333333333 -6.33333333333 104 -11 c 0
 100.666666667 -11 99 -9 99 -5 c 0
 99 55.6666666667 95.8333333333 114 89.5 170 c 128
 83.1666666667 226 75.6666666667 279.333333333 67 330 c 0
 63.6666666667 346.666666667 60.1666666667 364.833333333 56.5 384.5 c 128
 52.8333333333 404.166666667 49.3333333333 421.333333333 46 436 c 0
 46 440.666666667 47 443 49 443 c 0
 54.3333333333 443 61.1666666667 442.833333333 69.5 442.5 c 128
 77.8333333333 442.166666667 86.6666666667 441.5 96 440.5 c 128
 105.333333333 439.5 114.833333333 438.5 124.5 437.5 c 128
 134.166666667 436.5 143 435.333333333 151 434 c 1
 155 411.333333333 159 383.5 163 350.5 c 128
 167 317.5 170.666666667 282.5 174 245.5 c 128
 177.333333333 208.5 180.166666667 170.833333333 182.5 132.5 c 128
 184.833333333 94.1666666667 186.666666667 58.6666666667 188 26 c 1
 209 27 l 1
 210.333333333 49.6666666667 211.5 70.1666666667 212.5 88.5 c 128
 213.5 106.833333333 214.666666667 124.333333333 216 141 c 128
 217.333333333 157.666666667 218.833333333 174.333333333 220.5 191 c 128
 223 216 223 216 226 246 c 256
 228 266 231 286 235 306 c 128
 239 326 244.5 344.5 251.5 361.5 c 128
 258.5 378.5 267.333333333 393.333333333 278 406 c 128
 288.666666667 418.666666667 302.333333333 427.333333333 319 432 c 0
 333.666666667 436 348 438.666666667 362 440 c 128
 376 441.333333333 389.333333333 442.333333333 402 443 c 0
EndSplineSet
EndChar

StartChar: acutecomb
Encoding: 769 769 5
Width: 1
Flags: HW
AnchorPoint: "Stacking" -189 857 basemark 0
AnchorPoint: "Stacking" -190 542 mark 0
AnchorPoint: "Diacritic" -190 542 mark 0
LayerCount: 2
Fore
SplineSet
-111 787 m 2
 -109.666666667 789 -107.5 791.166666667 -104.5 793.5 c 128
 -101.5 795.833333333 -99 797.333333333 -97 798 c 256
 -95 798.666666667 -92 799.5 -88 800.5 c 128
 -84 801.5 -79.6666666667 802.5 -75 803.5 c 128
 -68 805 -68 805 -61 806.5 c 128
 -56.3333333333 807.5 -52.6666666667 808 -50 808 c 0
 -44.6666666667 808 -42 805.333333333 -42 800 c 2
 -166 549 l 2
 -168 545.666666667 -171.333333333 544 -176 544 c 0
 -182.666666667 544.666666667 -189.166666667 545.666666667 -195.5 547 c 128
 -201.833333333 548.333333333 -205.666666667 551.333333333 -207 556 c 1
 -111 787 l 2
EndSplineSet
EndChar

StartChar: gravecomb
Encoding: 768 768 6
Width: 1
Flags: HW
AnchorPoint: "Stacking" -137 557 mark 0
AnchorPoint: "Stacking" -136 726 basemark 0
AnchorPoint: "Diacritic" -137 557 mark 0
LayerCount: 2
Fore
SplineSet
-79 563 m 256
 -79 557.666666667 -81.6666666667 555 -87 555 c 2
 -310 642 l 1
 -312 649.333333333 -313.333333333 656.833333333 -314 664.5 c 128
 -314.666666667 672.166666667 -315 679 -315 685 c 0
 -315 689.666666667 -312.666666667 692 -308 692 c 2
 -82 604 l 1
 -80.6666666667 596.666666667 -79.8333333333 589.333333333 -79.5 582 c 128
 -79.1666666667 574.666666667 -79 568.333333333 -79 563 c 256
EndSplineSet
EndChar

StartChar: uni0486
Encoding: 1158 1158 7
Width: 1
Flags: HW
AnchorPoint: "Stacking" -176 773 basemark 0
AnchorPoint: "Stacking" -177 542 mark 0
AnchorPoint: "Diacritic" -177 542 mark 0
LayerCount: 2
Fore
SplineSet
-254 595 m 0
 -254 609 -250.833333333 622.666666667 -244.5 636 c 128
 -238.166666667 649.333333333 -229.833333333 661.166666667 -219.5 671.5 c 128
 -209.166666667 681.833333333 -197.333333333 690 -184 696 c 128
 -170.666666667 702 -157 705 -143 705 c 0
 -125.666666667 705 -112.666666667 699 -104 687 c 128
 -95.3333333333 675 -91 662 -91 648 c 0
 -91 638 -93 628 -97 618 c 128
 -101 608 -106 598.666666667 -112 590 c 128
 -118 581.333333333 -124.666666667 573.333333333 -132 566 c 128
 -139.333333333 558.666666667 -146.333333333 552.333333333 -153 547 c 0
 -157 547 -160.5 548.166666667 -163.5 550.5 c 128
 -166.5 552.833333333 -168 556.666666667 -168 562 c 1
 -162.666666667 570.666666667 -157.5 578.833333333 -152.5 586.5 c 128
 -147.5 594.166666667 -145 603.666666667 -145 615 c 0
 -145 625.666666667 -147.833333333 633.166666667 -153.5 637.5 c 128
 -159.166666667 641.833333333 -166.666666667 644 -176 644 c 0
 -190.666666667 644 -202.333333333 637.666666667 -211 625 c 128
 -219.666666667 612.333333333 -225.666666667 599.666666667 -229 587 c 0
 -230.333333333 583.666666667 -231.833333333 580.833333333 -233.5 578.5 c 128
 -235.166666667 576.166666667 -237.666666667 575 -241 575 c 0
 -246.333333333 575 -249.833333333 577.333333333 -251.5 582 c 128
 -253.166666667 586.666666667 -254 591 -254 595 c 0
EndSplineSet
EndChar

StartChar: uniE001
Encoding: 57345 57345 8
Width: 1
Flags: HW
AnchorPoint: "Stacking" -206 786 basemark 0
AnchorPoint: "Stacking" -207 537 mark 0
AnchorPoint: "Diacritic" -209 535 mark 0
LayerCount: 2
Fore
SplineSet
-330 615 m 0
 -330 627 -327.833333333 639.166666667 -323.5 651.5 c 128
 -319.166666667 663.833333333 -312.833333333 675 -304.5 685 c 128
 -296.166666667 695 -286.166666667 703.166666667 -274.5 709.5 c 128
 -262.833333333 715.833333333 -250 719 -236 719 c 0
 -214.666666667 719 -198.166666667 712 -186.5 698 c 128
 -174.833333333 684 -169 667.666666667 -169 649 c 0
 -169 625.666666667 -174.666666667 604.166666667 -186 584.5 c 128
 -197.333333333 564.833333333 -209.666666667 548.666666667 -223 536 c 0
 -226.333333333 536 -229.333333333 537 -232 539 c 128
 -234.666666667 541 -236 544 -236 548 c 0
 -230 557.333333333 -225 566.5 -221 575.5 c 128
 -217 584.5 -215 594.666666667 -215 606 c 256
 -215 617.333333333 -217.833333333 626.666666667 -223.5 634 c 128
 -229.166666667 641.333333333 -236.666666667 645 -246 645 c 0
 -264.666666667 645 -278.666666667 638.5 -288 625.5 c 128
 -297.333333333 612.5 -302 597.333333333 -302 580 c 0
 -302 575.333333333 -301.5 571.333333333 -300.5 568 c 128
 -299.5 564.666666667 -298.333333333 561 -297 557 c 0
 -297 550.333333333 -300.666666667 547 -308 547 c 1
 -315.333333333 553.666666667 -320.833333333 563.166666667 -324.5 575.5 c 128
 -328.166666667 587.833333333 -330 601 -330 615 c 0
-61 770 m 1
 -55.6666666667 773.333333333 -48.3333333333 775.833333333 -39 777.5 c 128
 -29.6666666667 779.166666667 -22 780 -16 780 c 0
 -12 780 -9.16666666667 778.666666667 -7.5 776 c 128
 -5.83333333333 773.333333333 -5 770.666666667 -5 768 c 2
 -114 554 l 1
 -120.666666667 552.666666667 -127 552 -133 552 c 0
 -138.333333333 552 -143 552.666666667 -147 554 c 128
 -151 555.333333333 -153 558.666666667 -153 564 c 2
 -61 770 l 1
EndSplineSet
LCarets2: 1 0
Ligature2: "'ccmp' Precomposed Glyphs-1" uni0486 acutecomb
EndChar

StartChar: uniE003
Encoding: 57347 57347 9
Width: 1
Flags: HW
AnchorPoint: "Stacking" -186 816 basemark 0
AnchorPoint: "Stacking" -194 497 mark 0
AnchorPoint: "Diacritic" -192 495 mark 0
LayerCount: 2
Fore
SplineSet
-110 583 m 0
 -110 572.333333333 -112.166666667 562.333333333 -116.5 553 c 128
 -120.833333333 543.666666667 -126 535.333333333 -132 528 c 128
 -138 520.666666667 -144.5 514.666666667 -151.5 510 c 128
 -158.5 505.333333333 -165 502.666666667 -171 502 c 0
 -180.333333333 499.333333333 -188.666666667 499.333333333 -196 502 c 1
 -198 507.333333333 -197.666666667 512.333333333 -195 517 c 1
 -180.333333333 519 -170.333333333 524.833333333 -165 534.5 c 128
 -159.666666667 544.166666667 -157 556 -157 570 c 0
 -157 583.333333333 -161.5 593.333333333 -170.5 600 c 128
 -179.5 606.666666667 -190 610 -202 610 c 0
 -213.333333333 610 -223.333333333 605.833333333 -232 597.5 c 128
 -240.666666667 589.166666667 -245 578.333333333 -245 565 c 0
 -245 556.333333333 -243.666666667 548.666666667 -241 542 c 1
 -243 537.333333333 -247 534.333333333 -253 533 c 1
 -265 545 -271 560 -271 578 c 0
 -271 603.333333333 -262.666666667 623.833333333 -246 639.5 c 128
 -229.333333333 655.166666667 -209.333333333 663 -186 663 c 256
 -162.666666667 663 -144.166666667 655.5 -130.5 640.5 c 128
 -116.833333333 625.5 -110 606.333333333 -110 583 c 0
-41 713 m 1
 -39.6666666667 709 -38.8333333333 704 -38.5 698 c 128
 -38.1666666667 692 -38 686.333333333 -38 681 c 0
 -38 671.666666667 -41.3333333333 667 -48 667 c 2
 -291 726 l 1
 -294.333333333 732.666666667 -296 741.333333333 -296 752 c 0
 -296 756.666666667 -295.333333333 761.166666667 -294 765.5 c 128
 -292.666666667 769.833333333 -289.333333333 772 -284 772 c 2
 -41 713 l 1
EndSplineSet
LCarets2: 1 0
Ligature2: "'ccmp' Precomposed Glyphs-1" uni0486 gravecomb
EndChar

StartChar: uni0311
Encoding: 785 785 10
Width: 1
Flags: HW
AnchorPoint: "Stacking" -199 767 basemark 0
AnchorPoint: "Stacking" -200 558 mark 0
AnchorPoint: "Diacritic" -199 558 mark 0
LayerCount: 2
Fore
SplineSet
-83 557 m 1
 -129 557 l 1
 -129 583 l 2
 -129 605 -135.833333333 622.166666667 -149.5 634.5 c 128
 -163.166666667 646.833333333 -180 653 -200 653 c 256
 -220 653 -236.833333333 646.666666667 -250.5 634 c 128
 -264.166666667 621.333333333 -271 604.333333333 -271 583 c 2
 -271 557 l 1
 -317 557 l 1
 -317 583 l 2
 -317 599 -313.833333333 614 -307.5 628 c 128
 -301.166666667 642 -292.833333333 654.333333333 -282.5 665 c 128
 -272.166666667 675.666666667 -259.833333333 684 -245.5 690 c 128
 -231.166666667 696 -216 699 -200 699 c 256
 -184 699 -168.833333333 696 -154.5 690 c 128
 -140.166666667 684 -127.833333333 675.666666667 -117.5 665 c 128
 -107.166666667 654.333333333 -98.8333333333 642 -92.5 628 c 128
 -86.1666666667 614 -83 599 -83 583 c 2
 -83 557 l 1
EndSplineSet
EndChar

StartChar: uni0483
Encoding: 1155 1155 11
Width: 1
Flags: HW
AnchorPoint: "Stacking" -206 769 basemark 0
AnchorPoint: "Stacking" -207 554 mark 0
AnchorPoint: "Diacritic" -209 554 mark 0
LayerCount: 2
Fore
SplineSet
-11 602 m 2
 -9 600 -8 597.666666667 -8 595 c 0
 -8 591 -9.66666666667 587.333333333 -13 584 c 1
 -271 625 l 1
 -271 537 l 1
 -367 537 l 1
 -367 641 l 1
 -411 648 l 2
 -412.333333333 650.666666667 -413 653.333333333 -413 656 c 0
 -413 660.666666667 -411.666666667 664 -409 666 c 2
 -152 624 l 1
 -152 712 l 1
 -56 712 l 1
 -56 609 l 1
 -11 602 l 2
EndSplineSet
EndChar

StartChar: uni033E
Encoding: 830 830 12
Width: 1
Flags: HW
AnchorPoint: "Stacking" -279 855 basemark 0
AnchorPoint: "Stacking" -280 526 mark 0
AnchorPoint: "Yerok" -272 526 mark 0
LayerCount: 2
Fore
SplineSet
-152 732 m 1
 -100 646 l 2
 -97.3330078125 642 -97.6669921875 639.333007812 -101 638 c 2
 -315 525 l 2
 -319 525.666992188 -322 528 -324 532 c 128
 -326 536 -326.333007812 539.666992188 -325 543 c 2
 -205 605 l 1
 -257 692 l 2
 -259.666992188 696 -259.333007812 698.666992188 -256 700 c 2
 -42 813 l 2
 -38 812.333007812 -35 810 -33 806 c 128
 -31 802 -30.6669921875 798.333007812 -32 795 c 2
 -152 732 l 1
EndSplineSet
EndChar

StartChar: colon
Encoding: 58 58 13
Width: 202
Flags: HW
LayerCount: 2
Fore
SplineSet
102 261 m 2
 99.3333333333 258.333333333 96.6666666667 258.333333333 94 261 c 2
 33 333 l 2
 31 336.333333333 31 339 33 341 c 2
 94 413 l 2
 97.3333333333 415 100 415 102 413 c 2
 164 342 l 2
 166.666666667 339.333333333 166.666666667 336.666666667 164 334 c 2
 102 261 l 2
102 3 m 2
 99.3333333333 0.333333333333 96.6666666667 0.333333333333 94 3 c 2
 33 75 l 2
 31 78.3333333333 31 81 33 83 c 2
 94 155 l 2
 97.3333333333 157 100 157 102 155 c 2
 164 84 l 2
 166.666666667 81.3333333333 166.666666667 78.6666666667 164 76 c 2
 102 3 l 2
EndSplineSet
EndChar

StartChar: semicolon
Encoding: 59 59 14
Width: 263
Flags: HW
LayerCount: 2
Fore
SplineSet
127 337 m 256
 145 337 160.333333333 330.666666667 173 318 c 128
 185.666666667 305.333333333 192 290 192 272 c 256
 192 254 185.5 238.833333333 172.5 226.5 c 128
 159.5 214.166666667 144.333333333 208 127 208 c 256
 109.666666667 208 94.5 214.166666667 81.5 226.5 c 128
 68.5 238.833333333 62 254 62 272 c 256
 62 290 68.3333333333 305.333333333 81 318 c 128
 93.6666666667 330.666666667 109 337 127 337 c 256
36 29 m 1
 45.3333333333 40.3333333333 54.1666666667 50.3333333333 62.5 59 c 128
 70.8333333333 67.6666666667 81.6666666667 77.6666666667 95 89 c 0
 104.333333333 96.3333333333 113.833333333 102.666666667 123.5 108 c 128
 133.166666667 113.333333333 143.333333333 116 154 116 c 0
 160 114.666666667 166.333333333 111.333333333 173 106 c 128
 179.666666667 100.666666667 185.833333333 94 191.5 86 c 128
 197.166666667 78 202 69 206 59 c 128
 210 49 212 39 212 29 c 0
 212 1 206.5 -24.1666666667 195.5 -46.5 c 128
 184.5 -68.8333333333 171.333333333 -89.6666666667 156 -109 c 0
 138 -132.333333333 119 -149.666666667 99 -161 c 1
 93 -157 88.6666666667 -151.666666667 86 -145 c 1
 94.6666666667 -137.666666667 101.333333333 -131.166666667 106 -125.5 c 128
 110.666666667 -119.833333333 116 -112.333333333 122 -103 c 0
 128.666666667 -92.3333333333 133.333333333 -81 136 -69 c 128
 138.666666667 -57 140 -45 140 -33 c 0
 140 -26.3333333333 139.166666667 -18.5 137.5 -9.5 c 128
 135.833333333 -0.5 133.333333333 7.83333333333 130 15.5 c 128
 126.666666667 23.1666666667 122.5 29.6666666667 117.5 35 c 128
 112.5 40.3333333333 106.666666667 43 100 43 c 0
 96 43 91.5 42.1666666667 86.5 40.5 c 128
 81.5 38.8333333333 77.6666666667 37 75 35 c 0
 70.3333333333 31.6666666667 65.6666666667 27.8333333333 61 23.5 c 128
 56.3333333333 19.1666666667 52.3333333333 15.3333333333 49 12 c 1
 45.6666666667 13.3333333333 42.6666666667 15.3333333333 40 18 c 128
 37.3333333333 20.6666666667 36 24.3333333333 36 29 c 1
EndSplineSet
EndChar

StartChar: uni2DEF
Encoding: 11759 11759 15
Width: 1
Flags: HW
AnchorPoint: "Stacking" -216 896 basemark 0
AnchorPoint: "Stacking" -217 590 mark 0
AnchorPoint: "Diacritic" -215 590 mark 0
LayerCount: 2
Fore
SplineSet
-174 606 m 0
 -182.666666667 618.666666667 -190.833333333 630.166666667 -198.5 640.5 c 128
 -206.166666667 650.833333333 -215 661.666666667 -225 673 c 1
 -239.666666667 658.333333333 -253.666666667 643.5 -267 628.5 c 128
 -280.333333333 613.5 -291.666666667 600.666666667 -301 590 c 1
 -313.666666667 590 -323.333333333 591 -330 593 c 0
 -331.333333333 593.666666667 -332.333333333 594.666666667 -333 596 c 128
 -333.666666667 597.333333333 -334 598.666666667 -334 600 c 0
 -311 623 -311 623 -289 645 c 128
 -267 667 -267 667 -242 692 c 1
 -253.333333333 705.333333333 -266 720.166666667 -280 736.5 c 128
 -294 752.833333333 -306.666666667 765.666666667 -318 775 c 0
 -323.333333333 776.333333333 -330.666666667 777.666666667 -340 779 c 128
 -349.333333333 780.333333333 -356.333333333 781.666666667 -361 783 c 0
 -364.333333333 783 -366 781.333333333 -366 778 c 0
 -366 766 -366 766 -366 755 c 128
 -366 747.666666667 -366.333333333 739.666666667 -367 731 c 0
 -367.666666667 713.666666667 -370.666666667 699 -376 687 c 1
 -383.333333333 685.666666667 -391.333333333 684 -400 682 c 128
 -408.666666667 680 -416.333333333 679 -423 679 c 0
 -424.333333333 679 -425 679.833333333 -425 681.5 c 128
 -425 684 -425 684 -425 685 c 0
 -419.666666667 702.333333333 -414.833333333 722 -410.5 744 c 128
 -406.166666667 766 -401.333333333 786 -396 804 c 0
 -395.333333333 808 -391.666666667 810 -385 810 c 0
 -379.666666667 809.333333333 -374 809 -368 809 c 128
 -359 809 -359 809 -350 809 c 0
 -334.666666667 809 -319 809.333333333 -303 810 c 128
 -287 810.666666667 -271.333333333 811.666666667 -256 813 c 0
 -254.666666667 813 -253.333333333 812.666666667 -252 812 c 128
 -250 811 -250 811 -248 810 c 0
 -229.333333333 788.666666667 -211 766 -193 742 c 1
 -171.666666667 767.333333333 -152.666666667 788 -136 804 c 0
 -114 823.333333333 -85.6666666667 834.333333333 -51 837 c 0
 -27.6666666667 837 -11 834 -1 828 c 0
 1 824.666666667 2 821.666666667 2 819 c 0
 -3.33333333333 813 -8.66666666667 807.333333333 -14 802 c 128
 -19.3333333333 796.666666667 -23.6666666667 789.666666667 -27 781 c 0
 -30.3333333333 771.666666667 -32.8333333333 762.5 -34.5 753.5 c 128
 -36.1666666667 744.5 -37.3333333333 735.333333333 -38 726 c 0
 -38 722.666666667 -40 721 -44 721 c 1
 -51.3333333333 728.333333333 -61.1666666667 737.166666667 -73.5 747.5 c 128
 -85.8333333333 757.833333333 -96.3333333333 764.666666667 -105 768 c 0
 -110.333333333 768 -114.333333333 767 -117 765 c 0
 -124.333333333 759.666666667 -133.166666667 753.166666667 -143.5 745.5 c 128
 -153.833333333 737.833333333 -164.666666667 728.666666667 -176 718 c 1
 -160.666666667 697.333333333 -144.833333333 676.666666667 -128.5 656 c 128
 -112.166666667 635.333333333 -95.3333333333 615.333333333 -78 596 c 0
 -76.6666666667 594.666666667 -76 593.166666667 -76 591.5 c 128
 -76 589 -76 589 -76 587 c 1
 -87.3333333333 587 -99 587.333333333 -111 588 c 128
 -123 588.666666667 -135.666666667 589.666666667 -149 591 c 0
 -155 592.333333333 -159.833333333 594 -163.5 596 c 128
 -167.166666667 598 -170.666666667 601.333333333 -174 606 c 0
EndSplineSet
EndChar

StartChar: uni2DE9
Encoding: 11753 11753 16
Width: 1
Flags: HW
AnchorPoint: "Stacking" -198 772 basemark 0
AnchorPoint: "Stacking" -199 553 mark 0
AnchorPoint: "Diacritic" -198 552 mark 0
LayerCount: 2
Fore
SplineSet
-182 676 m 1
 -182 693 l 1
 -96 697 l 1
 -96 565 l 1
 -102.666666667 561 -110.666666667 558 -120 556 c 128
 -129.333333333 554 -138.333333333 553 -147 553 c 0
 -153 553 -158.5 553.333333333 -163.5 554 c 128
 -168.5 554.666666667 -172.666666667 556.666666667 -176 560 c 1
 -176 614 l 1
 -219 614 l 1
 -219 565 l 1
 -225.666666667 561 -233.666666667 558 -243 556 c 128
 -252.333333333 554 -261.333333333 553 -270 553 c 0
 -276 553 -281.5 553.333333333 -286.5 554 c 128
 -291.5 554.666666667 -295.666666667 556.666666667 -299 560 c 1
 -299 676 l 1
 -310 675 l 1
 -310 693 l 1
 -219 697 l 1
 -219 639 l 1
 -176 639 l 1
 -176 676 l 1
 -182 676 l 1
EndSplineSet
EndChar

StartChar: uni2DEC
Encoding: 11756 11756 17
Width: 1
Flags: HW
AnchorPoint: "Stacking" -284 800 basemark 0
AnchorPoint: "Stacking" -285 559 mark 0
AnchorPoint: "Diacritic" -284 559 mark 0
LayerCount: 2
Fore
SplineSet
-186 675 m 0
 -186 654.333333333 -192.666666667 640.333333333 -206 633 c 128
 -219.333333333 625.666666667 -234 622 -250 622 c 256
 -266 622 -281.333333333 623.666666667 -296 627 c 1
 -296 577 l 1
 -309.333333333 569 -325 564.333333333 -343 563 c 128
 -361 561.666666667 -377 561 -391 561 c 1
 -391.666666667 564.333333333 -392 567 -392 569 c 128
 -392 572 -392 572 -392 578 c 1
 -386.666666667 578 -381.333333333 579 -376 581 c 1
 -376 672 l 2
 -376 693.333333333 -366.833333333 709.166666667 -348.5 719.5 c 128
 -330.166666667 729.833333333 -309 735 -285 735 c 0
 -273.666666667 735 -262.166666667 734 -250.5 732 c 128
 -238.833333333 730 -228.166666667 726.833333333 -218.5 722.5 c 128
 -208.833333333 718.166666667 -201 712.166666667 -195 704.5 c 128
 -189 696.833333333 -186 687 -186 675 c 0
-286 651 m 2
 -280.666666667 651 -275.5 653.666666667 -270.5 659 c 128
 -265.5 664.333333333 -263 671.333333333 -263 680 c 0
 -263 687.333333333 -264 694.333333333 -266 701 c 128
 -268 707.666666667 -273 711 -281 711 c 0
 -288.333333333 711 -292.666666667 707.666666667 -294 701 c 128
 -295.333333333 694.333333333 -296 687.333333333 -296 680 c 2
 -296 651 l 1
 -286 651 l 2
EndSplineSet
EndChar

StartChar: uni2DF1
Encoding: 11761 11761 18
Width: 1
Flags: HW
AnchorPoint: "Stacking" -206 796 basemark 0
AnchorPoint: "Stacking" -209 548 mark 0
AnchorPoint: "Diacritic" -209 550 mark 0
LayerCount: 2
Fore
SplineSet
-121 708 m 1
 -117.666666667 706.666666667 -115.5 705.333333333 -114.5 704 c 128
 -113.5 702.666666667 -111.666666667 701 -109 699 c 1
 -115.666666667 670.333333333 -121 643.166666667 -125 617.5 c 128
 -129 591.833333333 -131.333333333 572.333333333 -132 559 c 1
 -136.666666667 554.333333333 -144.666666667 552 -156 552 c 0
 -168 552 -178.333333333 552.833333333 -187 554.5 c 128
 -195.666666667 556.166666667 -203.666666667 558.333333333 -211 561 c 1
 -210.333333333 572.333333333 -209.5 585 -208.5 599 c 128
 -207.5 613 -206.333333333 624.666666667 -205 634 c 1
 -210.333333333 632.666666667 -215.666666667 631.5 -221 630.5 c 128
 -226.333333333 629.5 -233 629 -241 629 c 0
 -247 629 -252.5 629.833333333 -257.5 631.5 c 128
 -262.5 633.166666667 -267.666666667 635 -273 637 c 0
 -279 643 -284.5 650.666666667 -289.5 660 c 128
 -294.5 669.333333333 -297 679.666666667 -297 691 c 0
 -297 698.333333333 -296 706 -294 714 c 1
 -282.666666667 717.333333333 -269.166666667 720.333333333 -253.5 723 c 128
 -237.833333333 725.666666667 -224 727 -212 727 c 0
 -210 725.666666667 -208.666666667 724.333333333 -208 723 c 0
 -208 715.666666667 -207.666666667 706.166666667 -207 694.5 c 128
 -206.333333333 682.833333333 -205 673.333333333 -203 666 c 1
 -189 666 -174.833333333 670.666666667 -160.5 680 c 128
 -146.166666667 689.333333333 -133 698.666666667 -121 708 c 1
EndSplineSet
EndChar

StartChar: uni0450
Encoding: 1104 1104 19
Width: 274
Flags: HW
AnchorPoint: "Yerok" 141 717 basechar 0
AnchorPoint: "Diacritic" 141 716 basechar 0
LayerCount: 2
Fore
SplineSet
22 615 m 1
 20 620.333333333 18.6666666667 625.166666667 18 629.5 c 128
 17.3333333333 633.833333333 17 638.333333333 17 643 c 0
 17 645.666666667 17.3333333333 649.833333333 18 655.5 c 128
 18.6666666667 661.166666667 21.6666666667 664 27 664 c 2
 219 592 l 1
 221.666666667 584 223 575.333333333 223 566 c 0
 223 563.333333333 222.666666667 558.833333333 222 552.5 c 128
 221.333333333 546.166666667 218.666666667 543 214 543 c 2
 22 615 l 1
65 92 m 0
 65 109.333333333 64.3333333333 124.166666667 63 136.5 c 128
 61.6666666667 148.833333333 60.3333333333 163.666666667 59 181 c 0
 57.6666666667 197 56.6666666667 211.166666667 56 223.5 c 128
 55.3333333333 235.833333333 55 250 55 266 c 0
 55 323.333333333 70 368 100 400 c 0
 110 410.666666667 124.666666667 420.666666667 144 430 c 128
 163.333333333 439.333333333 184 444.666666667 206 446 c 0
 210 446 214.5 445.666666667 219.5 445 c 128
 224.5 444.333333333 227.666666667 441.333333333 229 436 c 0
 229.666666667 434 230 431.666666667 230 429 c 128
 230 425 230 425 230 420 c 0
 230 413.333333333 229.833333333 406.666666667 229.5 400 c 128
 229.166666667 393.333333333 228.666666667 387.666666667 228 383 c 0
 226.666666667 374.333333333 222.666666667 369 216 367 c 0
 207.333333333 364.333333333 200.166666667 363 194.5 363 c 128
 188.833333333 363 181.666666667 361 173 357 c 0
 161.666666667 351.666666667 153.166666667 344.666666667 147.5 336 c 128
 141.833333333 327.333333333 139 318.666666667 139 310 c 2
 139 257 l 1
 145 263 153.5 269.333333333 164.5 276 c 128
 175.5 282.666666667 186.666666667 287.666666667 198 291 c 0
 201.333333333 292.333333333 204.333333333 293 207 293 c 128
 211 293 211 293 216 293 c 256
 219.333333333 293 221 291.333333333 221 288 c 0
 221 278 220.666666667 265.833333333 220 251.5 c 128
 219.333333333 237.166666667 218.666666667 225.666666667 218 217 c 0
 218 212.333333333 215.333333333 209 210 207 c 0
 188.666666667 199.666666667 172.5 188.833333333 161.5 174.5 c 128
 150.5 160.166666667 142.666666667 140.666666667 138 116 c 0
 138 108.666666667 138.166666667 101.833333333 138.5 95.5 c 128
 138.833333333 89.1666666667 139 84 139 80 c 1
 140.333333333 80.6666666667 141.666666667 81 143 81 c 0
 146.333333333 81 148.666666667 81.3333333333 150 82 c 0
 163.333333333 86 173.833333333 92 181.5 100 c 128
 189.166666667 108 196.666666667 115.333333333 204 122 c 1
 208 122 210.666666667 121 212 119 c 2
 212 104 l 2
 212 89.3333333333 211 76.6666666667 209 66 c 1
 196.333333333 47.3333333333 178.5 30.3333333333 155.5 15 c 128
 132.5 -0.333333333333 106.333333333 -8.33333333333 77 -9 c 0
 73 -9 68.8333333333 -7.5 64.5 -4.5 c 128
 60.1666666667 -1.5 58 2.33333333333 58 7 c 0
 60 21.6666666667 61.6666666667 35.5 63 48.5 c 128
 64.3333333333 61.5 65 76 65 92 c 0
EndSplineSet
Ligature2: "'ccmp' Precomposed Glyphs-1" afii10070 gravecomb
EndChar

StartChar: uni0472
Encoding: 1138 1138 20
Width: 823
Flags: HW
AnchorPoint: "Yerok" 535 716 basechar 0
AnchorPoint: "Diacritic" 415 716 basechar 0
LayerCount: 2
Fore
SplineSet
794 249 m 2
 796 249 797 247.333333333 797 244 c 0
 797 239.333333333 796 236 794 234 c 0
 784 218.666666667 775 201.333333333 767 182 c 128
 759 162.666666667 751.666666667 142.5 745 121.5 c 128
 738.333333333 100.5 733 79 729 57 c 128
 725 35 722 13.6666666667 720 -7 c 0
 720 -9 718 -10 714 -10 c 0
 709.333333333 -10 706.666666667 -9 706 -7 c 0
 700.666666667 4.33333333333 695.166666667 20.3333333333 689.5 41 c 128
 683.833333333 61.6666666667 678.5 83.5 673.5 106.5 c 128
 668.5 129.5 664 152.166666667 660 174.5 c 128
 656 196.833333333 653.333333333 215.666666667 652 231 c 1
 589 231 l 1
 583.666666667 200.333333333 573.666666667 170.666666667 559 142 c 128
 544.333333333 113.333333333 526.333333333 87.8333333333 505 65.5 c 128
 483.666666667 43.1666666667 459.166666667 25.1666666667 431.5 11.5 c 128
 403.833333333 -2.16666666667 374 -9.66666666667 342 -11 c 0
 340 -9 340 -9 337.5 -6.5 c 128
 335.833333333 -4.83333333333 334.333333333 -3 333 -1 c 0
 333 1.66666666667 332.833333333 5.33333333333 332.5 10 c 128
 332.166666667 14.6666666667 331.666666667 18.6666666667 331 22 c 0
 328.333333333 36.6666666667 325.166666667 49.3333333333 321.5 60 c 128
 317.833333333 70.6666666667 313.666666667 80.3333333333 309 89 c 128
 304.333333333 97.6666666667 299.333333333 106.166666667 294 114.5 c 128
 288.666666667 122.833333333 283 132.333333333 277 143 c 0
 261.666666667 171 248.666666667 200.333333333 238 231 c 1
 170 231 l 1
 168.666666667 215.666666667 166 196.666666667 162 174 c 128
 158 151.333333333 153.5 128.5 148.5 105.5 c 128
 143.5 82.5 138 60.8333333333 132 40.5 c 128
 126 20.1666666667 120.666666667 4.33333333333 116 -7 c 0
 114.666666667 -9 112.333333333 -10 109 -10 c 0
 105 -10 103 -9 103 -7 c 0
 101 13.6666666667 98 35 94 57 c 128
 90 79 84.6666666667 100.5 78 121.5 c 128
 71.3333333333 142.5 64 162.5 56 181.5 c 128
 48 200.5 39 217.666666667 29 233 c 0
 26.3333333333 235.666666667 25 239 25 243 c 256
 25 247 26.3333333333 249 29 249 c 2
 232 249 l 1
 221.333333333 285.666666667 216 326.333333333 216 371 c 0
 216 409.666666667 223.5 446 238.5 480 c 128
 253.5 514 272.833333333 544.166666667 296.5 570.5 c 128
 320.166666667 596.833333333 346.5 619 375.5 637 c 128
 404.5 655 432.666666667 667 460 673 c 0
 461.333333333 672.333333333 462.666666667 671 464 669 c 128
 465.333333333 667 466.333333333 665.333333333 467 664 c 0
 467 636 471.166666667 607.833333333 479.5 579.5 c 128
 487.833333333 551.166666667 504 519.333333333 528 484 c 0
 547.333333333 456 563.166666667 426 575.5 394 c 128
 587.833333333 362 594 325 594 283 c 0
 594 277 593.833333333 271.166666667 593.5 265.5 c 128
 593.166666667 259.833333333 592.666666667 254.333333333 592 249 c 1
 794 249 l 2
492 275 m 0
 492 303 487.833333333 329.333333333 479.5 354 c 128
 471.166666667 378.666666667 461.666666667 403.666666667 451 429 c 0
 445 443 440.166666667 456 436.5 468 c 128
 432.833333333 480 430 491.833333333 428 503.5 c 128
 426 515.166666667 424.666666667 527.166666667 424 539.5 c 128
 423.333333333 551.833333333 423 565.666666667 423 581 c 0
 423 593.666666667 423.666666667 604.166666667 425 612.5 c 128
 426.333333333 620.833333333 428 629.666666667 430 639 c 1
 425 638 l 1
 410.333333333 628 396.5 614.5 383.5 597.5 c 128
 370.5 580.5 359 560.833333333 349 538.5 c 128
 339 516.166666667 331.166666667 492 325.5 466 c 128
 319.833333333 440 317 413.666666667 317 387 c 0
 317 359 318.833333333 334.333333333 322.5 313 c 128
 326.166666667 291.666666667 331.666666667 270.333333333 339 249 c 1
 491 249 l 1
 491 253 491.166666667 257.166666667 491.5 261.5 c 128
 491.833333333 265.833333333 492 270.333333333 492 275 c 0
352 211 m 0
 358 194.333333333 362.5 177.333333333 365.5 160 c 128
 368.5 142.666666667 370.833333333 125.5 372.5 108.5 c 128
 374.166666667 91.5 375.166666667 75.1666666667 375.5 59.5 c 128
 375.833333333 43.8333333333 376 29.6666666667 376 17 c 1
 384 18 l 1
 397.333333333 24.6666666667 409.833333333 35.1666666667 421.5 49.5 c 128
 433.166666667 63.8333333333 443.5 80.6666666667 452.5 100 c 128
 461.5 119.333333333 469.166666667 140.333333333 475.5 163 c 128
 481.833333333 185.666666667 486.333333333 208.333333333 489 231 c 1
 345 231 l 1
 347 223.666666667 349.333333333 217 352 211 c 0
EndSplineSet
EndChar

StartChar: uni0406
Encoding: 1030 1030 21
Width: 316
Flags: HW
AnchorPoint: "Yerok" 154 716 basechar 0
AnchorPoint: "Diacritic" 154 716 basechar 0
LayerCount: 2
Fore
SplineSet
271 0 m 1
 257.666666667 0 244.333333333 0.333333333333 231 1 c 0
 219.666666667 1 207.5 1.16666666667 194.5 1.5 c 128
 181.5 1.83333333333 169.333333333 2 158 2 c 256
 146.666666667 2 134.5 1.83333333333 121.5 1.5 c 128
 108.5 1.16666666667 96.3333333333 1 85 1 c 0
 71.6666666667 0.333333333333 58.3333333333 0 45 0 c 1
 45 18 l 1
 61.6666666667 24.6666666667 75.5 36.3333333333 86.5 53 c 128
 97.5 69.6666666667 106.333333333 89.1666666667 113 111.5 c 128
 119.666666667 133.833333333 124.666666667 158 128 184 c 128
 131.333333333 210 133.666666667 236 135 262 c 1
 115 265.333333333 97.3333333333 273 82 285 c 128
 66.6666666667 297 59 313.666666667 59 335 c 256
 59 356.333333333 66.6666666667 372.666666667 82 384 c 128
 97.3333333333 395.333333333 115 402.666666667 135 406 c 1
 134.333333333 431.333333333 132.833333333 456.833333333 130.5 482.5 c 128
 128.166666667 508.166666667 124.166666667 531.833333333 118.5 553.5 c 128
 112.833333333 575.166666667 104.833333333 594.166666667 94.5 610.5 c 128
 84.1666666667 626.833333333 71 638.333333333 55 645 c 1
 55 663 l 1
 67 662.333333333 79 662 91 662 c 0
 101.666666667 661.333333333 113 661 125 661 c 128
 143 661 143 661 158 661 c 256
 173 661 173 661 190.5 661 c 128
 202.166666667 661 213.333333333 661.333333333 224 662 c 0
 236 662 248.333333333 662.333333333 261 663 c 1
 261 645 l 1
 244.333333333 638.333333333 230.833333333 626.833333333 220.5 610.5 c 128
 210.166666667 594.166666667 202.166666667 575.166666667 196.5 553.5 c 128
 190.833333333 531.833333333 186.833333333 508.166666667 184.5 482.5 c 128
 182.166666667 456.833333333 180.666666667 431.333333333 180 406 c 1
 200 402.666666667 217.833333333 395 233.5 383 c 128
 249.166666667 371 257 355 257 335 c 0
 257 313.666666667 249.333333333 297 234 285 c 128
 218.666666667 273 201 265.333333333 181 262 c 1
 182.333333333 236 184.666666667 210 188 184 c 128
 191.333333333 158 196.333333333 133.833333333 203 111.5 c 128
 209.666666667 89.1666666667 218.5 69.6666666667 229.5 53 c 128
 240.5 36.3333333333 254.333333333 24.6666666667 271 18 c 1
 271 0 l 1
EndSplineSet
EndChar

StartChar: uni047A
Encoding: 1146 1146 22
Width: 982
Flags: HW
AnchorPoint: "Yerok" 845 716 basechar 0
AnchorPoint: "Diacritic" 490 776 basechar 0
LayerCount: 2
Fore
SplineSet
927 330 m 0
 927 300.666666667 924.166666667 272.333333333 918.5 245 c 128
 912.833333333 217.666666667 904.5 192 893.5 168 c 128
 882.5 144 869.166666667 122.166666667 853.5 102.5 c 128
 837.833333333 82.8333333333 820 66.6666666667 800 54 c 0
 768 33.3333333333 733.333333333 17.1666666667 696 5.5 c 128
 658.666666667 -6.16666666667 623 -12 589 -12 c 0
 575.666666667 -12 563 -11 551 -9 c 1
 548.333333333 -23 541.333333333 -34.8333333333 530 -44.5 c 128
 518.666666667 -54.1666666667 505.666666667 -59 491 -59 c 0
 475.666666667 -59 462.5 -54.1666666667 451.5 -44.5 c 128
 440.5 -34.8333333333 433.666666667 -23 431 -9 c 1
 417.666666667 -11 405 -12 393 -12 c 0
 359 -12 323.333333333 -6.16666666667 286 5.5 c 128
 248.666666667 17.1666666667 214 33.3333333333 182 54 c 0
 162 66.6666666667 144.166666667 82.8333333333 128.5 102.5 c 128
 112.833333333 122.166666667 99.5 144 88.5 168 c 128
 77.5 192 69.1666666667 217.666666667 63.5 245 c 128
 57.8333333333 272.333333333 55 300.666666667 55 330 c 0
 55 358.666666667 57.8333333333 387 63.5 415 c 128
 69.1666666667 443 77.5 469 88.5 493 c 128
 99.5 517 112.833333333 538.833333333 128.5 558.5 c 128
 144.166666667 578.166666667 162 594.333333333 182 607 c 0
 214 627.666666667 248.666666667 643.833333333 286 655.5 c 128
 323.333333333 667.166666667 359 673 393 673 c 0
 405 673 417.666666667 672 431 670 c 1
 433.666666667 684 440.5 695.833333333 451.5 705.5 c 128
 462.5 715.166666667 475.666666667 720 491 720 c 256
 506.333333333 720 519.333333333 715.166666667 530 705.5 c 128
 540.666666667 695.833333333 547.666666667 684 551 670 c 1
 563 672 575.666666667 673 589 673 c 0
 623 673 658.666666667 667.166666667 696 655.5 c 128
 733.333333333 643.833333333 768 627.666666667 800 607 c 0
 820 594.333333333 837.833333333 578.166666667 853.5 558.5 c 128
 869.166666667 538.833333333 882.5 517 893.5 493 c 128
 904.5 469 912.833333333 443 918.5 415 c 128
 924.166666667 387 927 358.666666667 927 330 c 0
491 598 m 256
 475.666666667 598 462.333333333 603 451 613 c 128
 439.666666667 623 433 635.333333333 431 650 c 1
 426 650 426 650 421 650 c 128
 417.666666667 650 414.333333333 649.666666667 411 649 c 0
 383 644.333333333 357 636.333333333 333 625 c 128
 309 613.666666667 287.5 600.166666667 268.5 584.5 c 128
 249.5 568.833333333 233.333333333 551.666666667 220 533 c 128
 206.666666667 514.333333333 196.666666667 495.333333333 190 476 c 0
 182.666666667 455.333333333 176.5 432.333333333 171.5 407 c 128
 166.5 381.666666667 164 356.333333333 164 331 c 0
 164 305 166.5 279.333333333 171.5 254 c 128
 176.5 228.666666667 182.666666667 205.666666667 190 185 c 0
 196.666666667 165.666666667 206.666666667 146.666666667 220 128 c 128
 233.333333333 109.333333333 249.5 92.1666666667 268.5 76.5 c 128
 287.5 60.8333333333 309 47.3333333333 333 36 c 128
 357 24.6666666667 383 16.6666666667 411 12 c 0
 414.333333333 11.3333333333 417.666666667 11 421 11 c 128
 426 11 426 11 431 11 c 1
 433.666666667 25.6666666667 440.5 38 451.5 48 c 128
 462.5 58 475.666666667 63 491 63 c 256
 506.333333333 63 519.666666667 58 531 48 c 128
 542.333333333 38 549 25.6666666667 551 11 c 1
 556 11 556 11 561 11 c 128
 564.333333333 11 567.666666667 11.3333333333 571 12 c 0
 599 16.6666666667 624.833333333 24.6666666667 648.5 36 c 128
 672.166666667 47.3333333333 693.5 60.8333333333 712.5 76.5 c 128
 731.5 92.1666666667 747.833333333 109.333333333 761.5 128 c 128
 775.166666667 146.666666667 785.333333333 165.666666667 792 185 c 0
 799.333333333 205.666666667 805.5 228.666666667 810.5 254 c 128
 815.5 279.333333333 818 305 818 331 c 0
 818 356.333333333 815.5 381.666666667 810.5 407 c 128
 805.5 432.333333333 799.333333333 455.333333333 792 476 c 0
 785.333333333 495.333333333 775.166666667 514.333333333 761.5 533 c 128
 747.833333333 551.666666667 731.5 568.833333333 712.5 584.5 c 128
 693.5 600.166666667 672.166666667 613.666666667 648.5 625 c 128
 624.833333333 636.333333333 599 644.333333333 571 649 c 0
 567.666666667 649.666666667 564.333333333 650 561 650 c 128
 556 650 556 650 551 650 c 1
 549 635.333333333 542.333333333 623 531 613 c 128
 519.666666667 603 506.333333333 598 491 598 c 256
EndSplineSet
EndChar

StartChar: uni0470
Encoding: 1136 1136 23
Width: 607
Flags: HW
AnchorPoint: "Yerok" 525 756 basechar 0
AnchorPoint: "Diacritic" 86 758 basechar 0
LayerCount: 2
Fore
SplineSet
142 0 m 1
 140 28.6666666667 137 61.3333333333 133 98 c 128
 129 134.666666667 124 173.5 118 214.5 c 128
 112 255.5 105.333333333 297 98 339 c 128
 90.6666666667 381 82.6666666667 421.5 74 460.5 c 128
 65.3333333333 499.5 56 535.833333333 46 569.5 c 128
 36 603.166666667 25.6666666667 631.666666667 15 655 c 0
 15 656.333333333 15.5 657.833333333 16.5 659.5 c 128
 17.5 661.166666667 18.6666666667 662.666666667 20 664 c 0
 32.6666666667 666 49.3333333333 667 70 667 c 0
 88.6666666667 667 106 666 122 664 c 1
 129.333333333 648 136.666666667 625.833333333 144 597.5 c 128
 151.333333333 569.166666667 158.5 536.666666667 165.5 500 c 128
 172.5 463.333333333 179.166666667 424.166666667 185.5 382.5 c 128
 191.833333333 340.833333333 197.666666667 298.666666667 203 256 c 128
 208.333333333 213.333333333 213 171.5 217 130.5 c 128
 221 89.5 224.333333333 52 227 18 c 1
 276 18 l 1
 276 46 275.666666667 81.1666666667 275 123.5 c 128
 274.333333333 165.833333333 273.333333333 211.666666667 272 261 c 128
 270.666666667 310.333333333 269 361.333333333 267 414 c 128
 265 466.666666667 263 517 261 565 c 128
 259 613 256.666666667 656.666666667 254 696 c 128
 251.333333333 735.333333333 248.666666667 766.666666667 246 790 c 1
 237 789 237 789 228 788 c 128
 222 787.333333333 215.666666667 786.666666667 209 786 c 1
 207 804 l 1
 226.333333333 806 243.333333333 808.166666667 258 810.5 c 128
 272.666666667 812.833333333 289.333333333 816.666666667 308 822 c 256
 326.666666667 827.333333333 343.666666667 832.333333333 359 837 c 128
 374.333333333 841.666666667 388.666666667 847.333333333 402 854 c 1
 410 838 l 1
 403.333333333 834.666666667 396.5 831.666666667 389.5 829 c 128
 382.5 826.333333333 375.333333333 823.666666667 368 821 c 1
 366 789.666666667 364.166666667 753.5 362.5 712.5 c 128
 360.833333333 671.5 359 628 357 582 c 128
 355 536 353.166666667 488.166666667 351.5 438.5 c 128
 349.833333333 388.833333333 348.333333333 339.666666667 347 291 c 128
 345.666666667 242.333333333 344.5 194.666666667 343.5 148 c 128
 342.5 101.333333333 341.666666667 58 341 18 c 1
 399 18 l 1
 400.333333333 36.6666666667 402 60.3333333333 404 89 c 128
 406 117.666666667 408.166666667 148 410.5 180 c 128
 414 228 414 228 417.5 276 c 128
 419.833333333 308 422.333333333 336.666666667 425 362 c 0
 427.666666667 392.666666667 431.333333333 422.166666667 436 450.5 c 128
 440.666666667 478.833333333 446.666666667 505 454 529 c 128
 461.333333333 553 470.5 574.5 481.5 593.5 c 128
 492.5 612.5 505.666666667 627.666666667 521 639 c 0
 534.333333333 649 547.666666667 656.166666667 561 660.5 c 128
 574.333333333 664.833333333 588.333333333 667 603 667 c 0
 605.666666667 667 609.166666667 666.666666667 613.5 666 c 128
 617.833333333 665.333333333 621.333333333 664 624 662 c 0
 624 659.333333333 623.833333333 656.333333333 623.5 653 c 128
 623.166666667 649.666666667 622.333333333 647 621 645 c 0
 615.666666667 641.666666667 610.666666667 635.666666667 606 627 c 128
 601.333333333 618.333333333 598 610.333333333 596 603 c 0
 593.333333333 592.333333333 592 581 592 569 c 0
 592 560.333333333 593 552 595 544 c 0
 595 538 592.333333333 535 587 535 c 0
 575 541.666666667 565.333333333 546.333333333 558 549 c 128
 550.666666667 551.666666667 541.333333333 553 530 553 c 0
 514 553 499.666666667 548.333333333 487 539 c 1
 481.666666667 530.333333333 476 518.5 470 503.5 c 128
 464 488.5 459 471 455 451 c 0
 452.333333333 437.666666667 450 422.333333333 448 405 c 128
 446 387.666666667 444.333333333 372.666666667 443 360 c 0
 439.666666667 334 436.666666667 304 434 270 c 128
 431.333333333 236 429 201.833333333 427 167.5 c 128
 425 133.166666667 423 101 421 71 c 128
 419 41 417.666666667 17.3333333333 417 0 c 1
 341 0 l 1
 341 -7 l 2
 341 -21 345 -33.3333333333 353 -44 c 128
 361 -54.6666666667 371.666666667 -63.3333333333 385 -70 c 0
 389.666666667 -72.6666666667 392 -76.6666666667 392 -82 c 256
 392 -87.3333333333 389.666666667 -91 385 -93 c 0
 378.333333333 -95.6666666667 371.5 -100.666666667 364.5 -108 c 128
 357.5 -115.333333333 351 -123.166666667 345 -131.5 c 128
 339 -139.833333333 333.666666667 -148.333333333 329 -157 c 128
 324.333333333 -165.666666667 321.333333333 -172.666666667 320 -178 c 0
 318 -183.333333333 314 -186.333333333 308 -187 c 0
 302.666666667 -186.333333333 299 -183.333333333 297 -178 c 0
 295.666666667 -172.666666667 292.666666667 -165.666666667 288 -157 c 128
 283.333333333 -148.333333333 278 -139.833333333 272 -131.5 c 128
 266 -123.166666667 259.5 -115.333333333 252.5 -108 c 128
 245.5 -100.666666667 238.666666667 -95.6666666667 232 -93 c 0
 226.666666667 -91 224 -87.3333333333 224 -82 c 0
 224 -77.3333333333 226.666666667 -73.3333333333 232 -70 c 0
 245.333333333 -63.3333333333 256 -54.6666666667 264 -44 c 128
 272 -33.3333333333 276 -21 276 -7 c 2
 276 0 l 1
 142 0 l 1
EndSplineSet
EndChar

StartChar: uni047E
Encoding: 1150 1150 25
Width: 945
Flags: HW
AnchorPoint: "Yerok" 855 716 basechar 0
AnchorPoint: "Diacritic" 855 716 basechar 0
LayerCount: 2
Fore
SplineSet
890 315 m 0
 890 263.666666667 883.333333333 214.666666667 870 168 c 128
 856.666666667 121.333333333 835.666666667 83 807 53 c 0
 787.666666667 33.6666666667 765.5 18.1666666667 740.5 6.5 c 128
 715.5 -5.16666666667 685.666666667 -11 651 -11 c 0
 631 -11 611.333333333 -8.16666666667 592 -2.5 c 128
 572.666666667 3.16666666667 554.833333333 11 538.5 21 c 128
 522.166666667 31 508.166666667 43 496.5 57 c 128
 484.833333333 71 476.666666667 86.3333333333 472 103 c 1
 467.333333333 86.3333333333 459.166666667 71 447.5 57 c 128
 435.833333333 43 421.833333333 31 405.5 21 c 128
 389.166666667 11 371.5 3.16666666667 352.5 -2.5 c 128
 333.5 -8.16666666667 314 -11 294 -11 c 0
 259.333333333 -11 229.333333333 -5.16666666667 204 6.5 c 128
 178.666666667 18.1666666667 156.333333333 33.6666666667 137 53 c 0
 122.333333333 67.6666666667 109.833333333 84.8333333333 99.5 104.5 c 128
 89.1666666667 124.166666667 80.6666666667 145.333333333 74 168 c 128
 67.3333333333 190.666666667 62.5 214.5 59.5 239.5 c 128
 56.5 264.5 55 289.666666667 55 315 c 256
 55 340.333333333 55.8333333333 365.666666667 57.5 391 c 128
 59.1666666667 416.333333333 62.3333333333 440.833333333 67 464.5 c 128
 71.6666666667 488.166666667 78.5 510.333333333 87.5 531 c 128
 96.5 551.666666667 108.333333333 570 123 586 c 0
 149 614.666666667 177.666666667 636.5 209 651.5 c 128
 240.333333333 666.5 278.666666667 674 324 674 c 0
 338.666666667 674 352.666666667 671.333333333 366 666 c 128
 379.333333333 660.666666667 391.166666667 653.166666667 401.5 643.5 c 128
 411.833333333 633.833333333 420 622.5 426 609.5 c 128
 432 596.5 435 582.666666667 435 568 c 0
 435 556.666666667 432.833333333 546 428.5 536 c 128
 424.166666667 526 418.333333333 517.166666667 411 509.5 c 128
 403.666666667 501.833333333 395.333333333 495.833333333 386 491.5 c 128
 376.666666667 487.166666667 367.333333333 485 358 485 c 0
 342.666666667 485 329.333333333 490.666666667 318 502 c 128
 306.666666667 513.333333333 301 526.666666667 301 542 c 256
 301 557.333333333 306.666666667 570.666666667 318 582 c 128
 329.333333333 593.333333333 342.666666667 599 358 599 c 0
 372 599 384.333333333 594.166666667 395 584.5 c 128
 405.666666667 574.833333333 412 563.333333333 414 550 c 1
 416 554.666666667 417 560.666666667 417 568 c 0
 417 580.666666667 414.5 592.166666667 409.5 602.5 c 128
 404.5 612.833333333 397.666666667 621.833333333 389 629.5 c 128
 380.333333333 637.166666667 370.5 643.166666667 359.5 647.5 c 128
 348.5 651.833333333 337 654 325 654 c 0
 293 654 266.666666667 644.333333333 246 625 c 128
 225.333333333 605.666666667 209 580.666666667 197 550 c 128
 185 519.333333333 176.5 484.666666667 171.5 446 c 128
 166.5 407.333333333 164 368.666666667 164 330 c 0
 164 292.666666667 167.666666667 256.5 175 221.5 c 128
 182.333333333 186.5 192.666666667 155.5 206 128.5 c 128
 219.333333333 101.5 235.833333333 79.8333333333 255.5 63.5 c 128
 275.166666667 47.1666666667 297 39 321 39 c 0
 336.333333333 39 352.333333333 41.6666666667 369 47 c 128
 385.666666667 52.3333333333 400.833333333 59.5 414.5 68.5 c 128
 428.166666667 77.5 439.5 88.1666666667 448.5 100.5 c 128
 457.5 112.833333333 462 126.333333333 462 141 c 2
 462 164 l 1
 453.333333333 164 444.5 165 435.5 167 c 128
 426.5 169 418.5 171.833333333 411.5 175.5 c 128
 404.5 179.166666667 398.833333333 184 394.5 190 c 128
 390.166666667 196 388 203.333333333 388 212 c 0
 388 229.333333333 395.666666667 240.666666667 411 246 c 128
 426.333333333 251.333333333 443.333333333 254.333333333 462 255 c 1
 462 274 l 2
 462 283.333333333 459.666666667 293 455 303 c 128
 450.333333333 313 443.833333333 322.5 435.5 331.5 c 128
 427.166666667 340.5 416.833333333 348.333333333 404.5 355 c 128
 392.166666667 361.666666667 378.333333333 366.666666667 363 370 c 0
 361 370 360 372.666666667 360 378 c 0
 360 384 361.666666667 388 365 390 c 0
 379.666666667 388 396.833333333 386.166666667 416.5 384.5 c 128
 436.166666667 382.833333333 454.666666667 382 472 382 c 256
 489.333333333 382 507.833333333 382.833333333 527.5 384.5 c 128
 547.166666667 386.166666667 564.333333333 388 579 390 c 0
 582.333333333 388 584 384 584 378 c 0
 584 372.666666667 583 370 581 370 c 0
 565.666666667 366.666666667 551.833333333 361.666666667 539.5 355 c 128
 527.166666667 348.333333333 516.666666667 340.5 508 331.5 c 128
 499.333333333 322.5 492.833333333 313 488.5 303 c 128
 484.166666667 293 482 283.333333333 482 274 c 2
 482 255 l 1
 490.666666667 255 499.5 254.333333333 508.5 253 c 128
 517.5 251.666666667 525.5 249.5 532.5 246.5 c 128
 539.5 243.5 545.166666667 239.166666667 549.5 233.5 c 128
 553.833333333 227.833333333 556 220.666666667 556 212 c 256
 556 203.333333333 553.833333333 196 549.5 190 c 128
 545.166666667 184 539.5 179.166666667 532.5 175.5 c 128
 525.5 171.833333333 517.5 169 508.5 167 c 128
 499.5 165 490.666666667 164 482 164 c 1
 482 141 l 2
 482 126.333333333 486.5 112.833333333 495.5 100.5 c 128
 504.5 88.1666666667 516 77.5 530 68.5 c 128
 544 59.5 559.333333333 52.3333333333 576 47 c 128
 592.666666667 41.6666666667 608.666666667 39 624 39 c 0
 648 39 669.833333333 47.1666666667 689.5 63.5 c 128
 709.166666667 79.8333333333 725.666666667 101.5 739 128.5 c 128
 752.333333333 155.5 762.666666667 186.5 770 221.5 c 128
 777.333333333 256.5 781 292.666666667 781 330 c 0
 781 368.666666667 778.5 407.333333333 773.5 446 c 128
 768.5 484.666666667 760 519.333333333 748 550 c 128
 736 580.666666667 719.666666667 605.666666667 699 625 c 128
 678.333333333 644.333333333 652 654 620 654 c 0
 608 654 596.5 651.833333333 585.5 647.5 c 128
 574.5 643.166666667 564.666666667 637.166666667 556 629.5 c 128
 547.333333333 621.833333333 540.5 612.833333333 535.5 602.5 c 128
 530.5 592.166666667 528 580.666666667 528 568 c 0
 528 564.666666667 528.166666667 561.5 528.5 558.5 c 128
 528.833333333 555.5 529.333333333 552.333333333 530 549 c 1
 532 563 538.333333333 574.833333333 549 584.5 c 128
 559.666666667 594.166666667 572.333333333 599 587 599 c 0
 602.333333333 599 615.666666667 593.333333333 627 582 c 128
 638.333333333 570.666666667 644 557.333333333 644 542 c 256
 644 526.666666667 638.333333333 513.333333333 627 502 c 128
 615.666666667 490.666666667 602.333333333 485 587 485 c 0
 577.666666667 485 568.333333333 487.166666667 559 491.5 c 128
 549.666666667 495.833333333 541.333333333 501.833333333 534 509.5 c 128
 526.666666667 517.166666667 520.833333333 526 516.5 536 c 128
 512.166666667 546 510 556.666666667 510 568 c 0
 510 582.666666667 513 596.5 519 609.5 c 128
 525 622.5 533.166666667 633.833333333 543.5 643.5 c 128
 553.833333333 653.166666667 565.666666667 660.666666667 579 666 c 128
 592.333333333 671.333333333 606.333333333 674 621 674 c 0
 666.333333333 674 704.5 666.5 735.5 651.5 c 128
 766.5 636.5 795 614.666666667 821 586 c 0
 835.666666667 570 847.5 551.666666667 856.5 531 c 128
 865.5 510.333333333 872.5 488.166666667 877.5 464.5 c 128
 882.5 440.833333333 885.833333333 416.333333333 887.5 391 c 128
 889.166666667 365.666666667 890 340.333333333 890 315 c 0
422 724 m 1
 422 859 l 1
 303 859 l 1
 301.666666667 836.333333333 298.166666667 811.333333333 292.5 784 c 128
 286.833333333 756.666666667 280.333333333 733.666666667 273 715 c 0
 272.333333333 712.333333333 270.333333333 711 267 711 c 0
 263 711 261 712.333333333 261 715 c 0
 256.333333333 747 244.833333333 776.166666667 226.5 802.5 c 128
 208.166666667 828.833333333 181.666666667 848.333333333 147 861 c 0
 143.666666667 861.666666667 142 864.666666667 142 870 c 0
 142 874.666666667 143.666666667 877 147 877 c 2
 797 877 l 2
 800.333333333 877 802 874.333333333 802 869 c 0
 802 865 800.333333333 862.333333333 797 861 c 0
 762.333333333 848.333333333 735.833333333 828.833333333 717.5 802.5 c 128
 699.166666667 776.166666667 687.666666667 747 683 715 c 0
 682.333333333 712.333333333 680.333333333 711 677 711 c 256
 673.666666667 711 671.666666667 712.333333333 671 715 c 0
 663.666666667 733.666666667 657.166666667 756.666666667 651.5 784 c 128
 645.833333333 811.333333333 642.333333333 836.333333333 641 859 c 1
 522 859 l 1
 522 724 l 1
 422 724 l 1
EndSplineSet
EndChar

StartChar: uni0478
Encoding: 1144 1144 26
Width: 900
Flags: HW
AnchorPoint: "Yerok" 692 556 basechar 0
AnchorPoint: "Diacritic" 691 556 basechar 0
LayerCount: 2
Fore
SplineSet
299 673 m 0
 303 671.666666667 305.666666667 668.666666667 307 664 c 0
 311 633.333333333 318.333333333 603.833333333 329 575.5 c 128
 339.666666667 547.166666667 354.666666667 516 374 482 c 0
 382.666666667 467.333333333 391 452.5 399 437.5 c 128
 407 422.5 414.166666667 407 420.5 391 c 128
 426.833333333 375 432 358.166666667 436 340.5 c 128
 440 322.833333333 442 303.666666667 442 283 c 0
 442 245 434.666666667 210 420 178 c 128
 405.333333333 146 386.166666667 117.5 362.5 92.5 c 128
 338.833333333 67.5 312 46.1666666667 282 28.5 c 128
 252 10.8333333333 221.333333333 -2.33333333333 190 -11 c 1
 184.666666667 -7 181.333333333 -3.66666666667 180 -1 c 2
 180 18 l 1
 177.333333333 34.6666666667 173.333333333 50 168 64 c 128
 162.666666667 78 156.666666667 91 150 103 c 128
 143.333333333 115 136.5 126.166666667 129.5 136.5 c 128
 122.5 146.833333333 116 157 110 167 c 0
 98.6666666667 185.666666667 88.3333333333 203 79 219 c 128
 69.6666666667 235 61.6666666667 251.166666667 55 267.5 c 128
 48.3333333333 283.833333333 43.3333333333 300.833333333 40 318.5 c 128
 36.6666666667 336.166666667 35 356 35 378 c 0
 35 416.666666667 43 452.5 59 485.5 c 128
 75 518.5 95.6666666667 547.833333333 121 573.5 c 128
 146.333333333 599.166666667 174.666666667 620.666666667 206 638 c 128
 237.333333333 655.333333333 268.333333333 667 299 673 c 0
881 443 m 0
 883.666666667 443 885 440.333333333 885 435 c 1
 875.666666667 423.666666667 868.833333333 412.5 864.5 401.5 c 128
 860.166666667 390.5 858 378.333333333 858 365 c 0
 858 357 859 348 861 338 c 0
 861 336 860.666666667 334 860 332 c 128
 859.333333333 330 858 329 856 329 c 0
 847.333333333 332.333333333 839.5 335.5 832.5 338.5 c 128
 825.5 341.5 817.333333333 343 808 343 c 0
 792 343 779.166666667 336 769.5 322 c 128
 759.833333333 308 754 293.333333333 752 278 c 0
 749.333333333 255.333333333 747 233.666666667 745 213 c 128
 743 192.333333333 741.166666667 171.5 739.5 150.5 c 128
 737.833333333 129.5 736.333333333 107.666666667 735 85 c 128
 733.666666667 62.3333333333 732.666666667 37.6666666667 732 11 c 0
 730.666666667 -13.6666666667 730 -35.8333333333 730 -55.5 c 128
 730 -85 730 -85 730 -113.5 c 128
 730 -132.5 729.833333333 -152 729.5 -172 c 128
 729.166666667 -192 728 -214 726 -238 c 0
 724 -264.666666667 721.833333333 -291.666666667 719.5 -319 c 128
 717.166666667 -346.333333333 714.333333333 -372 711 -396 c 128
 707.666666667 -420 704 -441.666666667 700 -461 c 128
 696 -480.333333333 691.666666667 -495.333333333 687 -506 c 0
 685.666666667 -509.333333333 683.333333333 -512.5 680 -515.5 c 128
 676.666666667 -518.5 670 -520.333333333 660 -521 c 1
 656.666666667 -518.333333333 655 -514.333333333 655 -509 c 1
 658.333333333 -507.666666667 661 -503.166666667 663 -495.5 c 128
 665 -487.833333333 666.333333333 -481 667 -475 c 0
 670.333333333 -433.666666667 673.166666667 -392.5 675.5 -351.5 c 128
 677.833333333 -310.5 680 -264 682 -212 c 0
 682.666666667 -190 683.166666667 -170.166666667 683.5 -152.5 c 128
 683.833333333 -134.833333333 684.166666667 -117.5 684.5 -100.5 c 128
 684.833333333 -83.5 685 -66.3333333333 685 -49 c 128
 685 -31.6666666667 685.666666667 -12.3333333333 687 9 c 1
 669.666666667 7 652.333333333 4.33333333333 635 1 c 128
 617.666666667 -2.33333333333 600.333333333 -6.33333333333 583 -11 c 0
 579.666666667 -11 578 -9 578 -5 c 0
 578 55.6666666667 574.833333333 114 568.5 170 c 128
 562.166666667 226 554.666666667 279.333333333 546 330 c 0
 542.666666667 346.666666667 539.166666667 364.833333333 535.5 384.5 c 128
 531.833333333 404.166666667 528.333333333 421.333333333 525 436 c 0
 525 440.666666667 526 443 528 443 c 0
 533.333333333 443 540.166666667 442.833333333 548.5 442.5 c 128
 556.833333333 442.166666667 565.666666667 441.5 575 440.5 c 128
 584.333333333 439.5 593.833333333 438.5 603.5 437.5 c 128
 613.166666667 436.5 622 435.333333333 630 434 c 1
 634 411.333333333 638 383.5 642 350.5 c 128
 646 317.5 649.666666667 282.5 653 245.5 c 128
 656.333333333 208.5 659.166666667 170.833333333 661.5 132.5 c 128
 663.833333333 94.1666666667 665.666666667 58.6666666667 667 26 c 1
 688 27 l 1
 689.333333333 49.6666666667 690.5 70.1666666667 691.5 88.5 c 128
 692.5 106.833333333 693.666666667 124.333333333 695 141 c 128
 696.333333333 157.666666667 697.833333333 174.333333333 699.5 191 c 128
 702 216 702 216 705 246 c 256
 707 266 710 286 714 306 c 128
 718 326 723.5 344.5 730.5 361.5 c 128
 737.5 378.5 746.333333333 393.333333333 757 406 c 128
 767.666666667 418.666666667 781.333333333 427.333333333 798 432 c 0
 812.666666667 436 827 438.666666667 841 440 c 128
 855 441.333333333 868.333333333 442.333333333 881 443 c 0
245 29 m 1
 270.333333333 53 291.5 85.8333333333 308.5 127.5 c 128
 325.5 169.166666667 334 215.333333333 334 266 c 0
 334 281.333333333 332.666666667 295.666666667 330 309 c 128
 327.333333333 322.333333333 324 335.333333333 320 348 c 128
 316 360.666666667 311.5 373 306.5 385 c 128
 301.5 397 296.666666667 409.666666667 292 423 c 0
 286.666666667 437.666666667 282 451.166666667 278 463.5 c 128
 274 475.833333333 270.5 488.166666667 267.5 500.5 c 128
 264.5 512.833333333 262.333333333 525.333333333 261 538 c 128
 259.666666667 550.666666667 259 565 259 581 c 0
 259 593.666666667 259.333333333 605.166666667 260 615.5 c 128
 260.666666667 625.833333333 262 635.666666667 264 645 c 1
 259 644 l 1
 243 634.666666667 227.833333333 621.166666667 213.5 603.5 c 128
 199.166666667 585.833333333 186.666666667 565.5 176 542.5 c 128
 165.333333333 519.5 156.833333333 494.666666667 150.5 468 c 128
 144.166666667 441.333333333 141 414.666666667 141 388 c 0
 141 352 145.666666667 321 155 295 c 128
 164.333333333 269 176 241.333333333 190 212 c 0
 221.333333333 144.666666667 237.666666667 83.3333333333 239 28 c 1
 245 29 l 1
EndSplineSet
Ligature2: "'ccmp' Precomposed Glyphs-1" afii10032 uni0443
EndChar

StartChar: uni0474
Encoding: 1140 1140 27
Width: 493
Flags: HW
AnchorPoint: "Yerok" 255 716 basechar 0
AnchorPoint: "Diacritic" 255 716 basechar 0
LayerCount: 2
Fore
SplineSet
339 515 m 0
 335 503.666666667 331.666666667 491.333333333 329 478 c 128
 326.333333333 464.666666667 324 450.333333333 322 435 c 0
 318.666666667 409 315.333333333 379.166666667 312 345.5 c 128
 308.666666667 311.833333333 305.5 276.666666667 302.5 240 c 128
 299.5 203.333333333 296.833333333 166 294.5 128 c 128
 292.166666667 90 290.333333333 53.3333333333 289 18 c 1
 321 18 l 1
 321 0 l 1
 116 0 l 1
 116 18 l 1
 142 18 l 1
 141.333333333 43.3333333333 139.5 73.1666666667 136.5 107.5 c 128
 133.5 141.833333333 129.666666667 178.333333333 125 217 c 128
 120.333333333 255.666666667 115 295.333333333 109 336 c 128
 103 376.666666667 96.6666666667 416 90 454 c 128
 83.3333333333 492 76.3333333333 527.5 69 560.5 c 128
 61.6666666667 593.5 54.6666666667 621.666666667 48 645 c 1
 20 645 l 1
 20 663 l 1
 192 663 l 1
 192 645 l 1
 152 645 l 1
 158.666666667 622.333333333 165.166666667 594.5 171.5 561.5 c 128
 177.833333333 528.5 184 493 190 455 c 128
 196 417 201.666666667 377.5 207 336.5 c 128
 212.333333333 295.5 217.166666667 255.666666667 221.5 217 c 128
 225.833333333 178.333333333 229.5 141.666666667 232.5 107 c 128
 235.5 72.3333333333 237.666666667 42.6666666667 239 18 c 1
 271 18 l 1
 272.333333333 54 274.166666667 91 276.5 129 c 128
 278.833333333 167 281.5 204.5 284.5 241.5 c 128
 287.5 278.5 290.666666667 313.833333333 294 347.5 c 128
 297.333333333 381.166666667 300.666666667 411 304 437 c 0
 309.333333333 479 317.333333333 517.666666667 328 553 c 128
 338.666666667 588.333333333 357.666666667 617.666666667 385 641 c 0
 397 651 409.166666667 658.833333333 421.5 664.5 c 128
 433.833333333 670.166666667 447.666666667 673 463 673 c 0
 472.333333333 673 480.833333333 672.166666667 488.5 670.5 c 128
 496.166666667 668.833333333 502.333333333 667 507 665 c 0
 508.333333333 663.666666667 509.333333333 661.833333333 510 659.5 c 128
 510.666666667 657.166666667 511 655 511 653 c 0
 503.666666667 646.333333333 497.833333333 640.333333333 493.5 635 c 128
 489.166666667 629.666666667 484.333333333 623 479 615 c 256
 473.666666667 607 470.5 598.333333333 469.5 589 c 128
 468.5 579.666666667 468 570.666666667 468 562 c 0
 466.666666667 559.333333333 463.666666667 558 459 558 c 0
 450.333333333 563.333333333 442.5 568 435.5 572 c 128
 428.5 576 419.333333333 578 408 578 c 0
 388 578 373.333333333 571.833333333 364 559.5 c 128
 354.666666667 547.166666667 346.333333333 532.333333333 339 515 c 0
EndSplineSet
EndChar

StartChar: uni0460
Encoding: 1120 1120 28
Width: 780
Flags: HW
AnchorPoint: "Yerok" 395 716 basechar 0
AnchorPoint: "Diacritic" 395 716 basechar 0
LayerCount: 2
Fore
SplineSet
347 657 m 0
 348.333333333 661 351.666666667 663 357 663 c 0
 364.333333333 663.666666667 371.666666667 664.166666667 379 664.5 c 128
 386.333333333 664.833333333 393.666666667 665 401 665 c 0
 421 665 441 664 461 662 c 0
 463 661 463 661 466 659.5 c 128
 468 658.5 469 657 469 655 c 0
 463.666666667 642.333333333 458.5 627.166666667 453.5 609.5 c 128
 448.5 591.833333333 444 572.833333333 440 552.5 c 128
 436 532.166666667 432.833333333 510.5 430.5 487.5 c 128
 428.166666667 464.5 427 441.333333333 427 418 c 0
 427 378.666666667 430.666666667 338.166666667 438 296.5 c 128
 445.333333333 254.833333333 456.666666667 216 472 180 c 0
 482.666666667 155.333333333 495 133.333333333 509 114 c 128
 523 94.6666666667 537 77.6666666667 551 63 c 1
 593 102.333333333 617.666666667 150.333333333 625 207 c 0
 627.666666667 227 629.833333333 245.666666667 631.5 263 c 128
 633.166666667 280.333333333 634 299.666666667 634 321 c 0
 634 383.666666667 628 442.666666667 616 498 c 128
 604 553.333333333 588.333333333 601.333333333 569 642 c 0
 569 646.666666667 571 649.666666667 575 651 c 0
 581 651.666666667 588 653.166666667 596 655.5 c 128
 604 657.833333333 612.333333333 660.166666667 621 662.5 c 128
 629.666666667 664.833333333 638.166666667 667 646.5 669 c 128
 654.833333333 671 662.666666667 672.666666667 670 674 c 0
 675.333333333 674 678.666666667 673.333333333 680 672 c 0
 692.666666667 640 705 603.666666667 717 563 c 128
 729 522.333333333 735 477.333333333 735 428 c 0
 735 378 729.5 332.333333333 718.5 291 c 128
 707.5 249.666666667 694 213.333333333 678 182 c 0
 658 143.333333333 634.833333333 109.333333333 608.5 80 c 128
 582.166666667 50.6666666667 551.666666667 21.3333333333 517 -8 c 0
 514.333333333 -9.33333333333 512.333333333 -10 511 -10 c 256
 509.666666667 -10 507.666666667 -9.33333333333 505 -8 c 0
 489.666666667 4 476 16.1666666667 464 28.5 c 128
 452 40.8333333333 440.666666667 53.8333333333 430 67.5 c 128
 419.333333333 81.1666666667 409.166666667 96 399.5 112 c 128
 389.833333333 128 380 146 370 166 c 1
 356 150.666666667 342.333333333 136.333333333 329 123 c 128
 315.666666667 109.666666667 300.333333333 95.3333333333 283 80 c 0
 263 62 245.333333333 46.8333333333 230 34.5 c 128
 214.666666667 22.1666666667 196.333333333 8 175 -8 c 0
 173.666666667 -9.33333333333 172 -10 170 -10 c 0
 169.333333333 -10 167.666666667 -9.33333333333 165 -8 c 0
 127.666666667 38 98.3333333333 92.6666666667 77 156 c 128
 55.6666666667 219.333333333 45 288.666666667 45 364 c 0
 45 421.333333333 49 476 57 528 c 128
 65 580 74 622.666666667 84 656 c 0
 84.6666666667 660 87.6666666667 662.666666667 93 664 c 0
 97 664.666666667 101.833333333 665.166666667 107.5 665.5 c 128
 113.166666667 665.833333333 119 666 125 666 c 0
 138.333333333 666 151.833333333 665.333333333 165.5 664 c 128
 179.166666667 662.666666667 189.666666667 661.333333333 197 660 c 0
 199.666666667 658 201 655.333333333 201 652 c 0
 187.666666667 612 176.5 566.833333333 167.5 516.5 c 128
 158.5 466.166666667 154 412 154 354 c 0
 154 304.666666667 159.5 259.166666667 170.5 217.5 c 128
 181.5 175.833333333 197 139 217 107 c 0
 221 99.6666666667 226 93.8333333333 232 89.5 c 128
 238 85.1666666667 244.333333333 82 251 80 c 1
 254.333333333 82.6666666667 257.666666667 85.5 261 88.5 c 128
 264.333333333 91.5 267.666666667 94.6666666667 271 98 c 0
 289 114 304.666666667 128.5 318 141.5 c 128
 331.333333333 154.5 345.333333333 169.333333333 360 186 c 1
 333.333333333 250 320 322.333333333 320 403 c 0
 320 451.666666667 322.833333333 498.666666667 328.5 544 c 128
 334.166666667 589.333333333 340.333333333 627 347 657 c 0
EndSplineSet
EndChar

StartChar: uni046E
Encoding: 1134 1134 29
Width: 607
Flags: HW
AnchorPoint: "Yerok" 445 870 basechar 0
AnchorPoint: "Diacritic" 295 870 basechar 0
LayerCount: 2
Fore
SplineSet
35 439 m 1
 53 439 l 1
 53.6666666667 454.333333333 55 470 57 486 c 128
 59 502 64.3333333333 518.333333333 73 535 c 0
 80.3333333333 549.666666667 90.3333333333 564.5 103 579.5 c 128
 115.666666667 594.5 129.666666667 608.166666667 145 620.5 c 128
 160.333333333 632.833333333 176.833333333 643.166666667 194.5 651.5 c 128
 212.166666667 659.833333333 229.666666667 665 247 667 c 1
 162 788 l 1
 136 788 l 1
 136 806 l 1
 257 806 l 1
 295 730 l 2
 295.666666667 732 296.666666667 734.333333333 298 737 c 0
 300.666666667 742.333333333 305 748.833333333 311 756.5 c 128
 317 764.166666667 321 768.666666667 323 770 c 0
 336.333333333 780.666666667 352.333333333 790.166666667 371 798.5 c 128
 389.666666667 806.833333333 407.333333333 813.333333333 424 818 c 0
 426.666666667 818 429.166666667 817.833333333 431.5 817.5 c 128
 433.833333333 817.166666667 435 816.333333333 435 815 c 0
 435 801.666666667 431 788 423 774 c 0
 419 766.666666667 413.333333333 762.333333333 406 761 c 0
 394.666666667 759.666666667 383.666666667 756.666666667 373 752 c 128
 362.333333333 747.333333333 350 740.333333333 336 731 c 0
 332.666666667 726.333333333 329 720.833333333 325 714.5 c 128
 321 708.166666667 317 701.333333333 313 694 c 1
 325 670 l 1
 332.333333333 669.333333333 340 668.5 348 667.5 c 128
 360 666 360 666 376 664 c 0
 394 660.666666667 411.5 656 428.5 650 c 128
 445.5 644 461 636.166666667 475 626.5 c 128
 489 616.833333333 500.666666667 605.166666667 510 591.5 c 128
 519.333333333 577.833333333 525.666666667 562 529 544 c 0
 531 532 532 520 532 508 c 0
 532 499.333333333 531.5 490.5 530.5 481.5 c 128
 529.5 472.5 528.333333333 463.333333333 527 454 c 0
 523.666666667 436.666666667 516.333333333 422.833333333 505 412.5 c 128
 493.666666667 402.166666667 481.333333333 391.333333333 468 380 c 1
 436 368 411 355.333333333 393 342 c 1
 420.333333333 337.333333333 444.166666667 330.333333333 464.5 321 c 128
 484.833333333 311.666666667 504.666666667 298.666666667 524 282 c 0
 531.333333333 272.666666667 537.833333333 262 543.5 250 c 128
 549.166666667 238 553.666666667 224 557 208 c 0
 559.666666667 194.666666667 561 180.333333333 561 165 c 256
 561 149.666666667 558.666666667 132.666666667 554 114 c 0
 548 90.6666666667 537.166666667 71.1666666667 521.5 55.5 c 128
 505.833333333 39.8333333333 487.333333333 27.1666666667 466 17.5 c 128
 444.666666667 7.83333333333 421.5 1 396.5 -3 c 128
 371.5 -7 346.333333333 -9 321 -9 c 0
 299.666666667 -9 280.333333333 -8 263 -6 c 128
 245.666666667 -4 227.333333333 -3 208 -3 c 0
 181.333333333 -3 162.833333333 -8.33333333333 152.5 -19 c 128
 142.166666667 -29.6666666667 137 -47 137 -71 c 0
 137 -82.3333333333 139 -92.3333333333 143 -101 c 128
 147 -109.666666667 152.166666667 -116.666666667 158.5 -122 c 128
 164.833333333 -127.333333333 171.666666667 -131.333333333 179 -134 c 128
 186.333333333 -136.666666667 193.333333333 -138 200 -138 c 0
 221.333333333 -138 240.166666667 -135.5 256.5 -130.5 c 128
 272.833333333 -125.5 290.333333333 -117.333333333 309 -106 c 0
 333.666666667 -91.3333333333 357 -80 379 -72 c 128
 401 -64 427 -60 457 -60 c 0
 473.666666667 -60 489.666666667 -62 505 -66 c 128
 520.333333333 -70 534 -75.8333333333 546 -83.5 c 128
 558 -91.1666666667 567.666666667 -100.666666667 575 -112 c 128
 582.333333333 -123.333333333 586 -136.333333333 586 -151 c 0
 586 -159 584.666666667 -167 582 -175 c 1
 575.333333333 -176.333333333 567.166666667 -177.166666667 557.5 -177.5 c 128
 547.833333333 -177.833333333 537.333333333 -178 526 -178 c 0
 514 -178 502.166666667 -177.833333333 490.5 -177.5 c 128
 478.833333333 -177.166666667 469 -176.333333333 461 -175 c 1
 462.333333333 -168.333333333 463 -161 463 -153 c 0
 463 -147.666666667 461.666666667 -141.166666667 459 -133.5 c 128
 456.333333333 -125.833333333 452.833333333 -118.5 448.5 -111.5 c 128
 444.166666667 -104.5 438.833333333 -98.5 432.5 -93.5 c 128
 426.166666667 -88.5 419 -86 411 -86 c 0
 393.666666667 -86 378.333333333 -89.8333333333 365 -97.5 c 128
 351.666666667 -105.166666667 336.333333333 -113.666666667 319 -123 c 0
 303.666666667 -131.666666667 289.5 -139.333333333 276.5 -146 c 128
 263.5 -152.666666667 250.5 -158.5 237.5 -163.5 c 128
 224.5 -168.5 211 -172.333333333 197 -175 c 128
 183 -177.666666667 167.666666667 -179 151 -179 c 0
 117 -179 89.5 -169.666666667 68.5 -151 c 128
 47.5 -132.333333333 37 -106.666666667 37 -74 c 0
 37 -37.3333333333 48.6666666667 -11 72 5 c 128
 95.3333333333 21 125 29 161 29 c 0
 174.333333333 29 187.166666667 28 199.5 26 c 128
 211.833333333 24 224.166666667 21.6666666667 236.5 19 c 128
 248.833333333 16.3333333333 261.166666667 14 273.5 12 c 128
 285.833333333 10 298.666666667 9 312 9 c 0
 358 9 392.666666667 24.3333333333 416 55 c 128
 439.333333333 85.6666666667 451 126.333333333 451 177 c 0
 451 204.333333333 445.833333333 231.333333333 435.5 258 c 128
 425.166666667 284.666666667 410.666666667 304.666666667 392 318 c 1
 374.666666667 325.333333333 358 329.666666667 342 331 c 128
 326 332.333333333 308 333 288 333 c 256
 268 333 250.166666667 329.5 234.5 322.5 c 128
 218.833333333 315.5 205.5 305.833333333 194.5 293.5 c 128
 183.5 281.166666667 175.166666667 266.666666667 169.5 250 c 128
 163.833333333 233.333333333 161 215.333333333 161 196 c 0
 161 185.333333333 161.5 174.666666667 162.5 164 c 128
 163.5 153.333333333 165 144 167 136 c 1
 193 136 l 1
 193 118 l 1
 35 118 l 1
 35 136 l 1
 50 136 l 1
 48 144.666666667 47 154.666666667 47 166 c 0
 48.3333333333 216 64.3333333333 256.833333333 95 288.5 c 128
 125.666666667 320.166666667 165.666666667 339 215 345 c 0
 245.666666667 349 273.333333333 351 298 351 c 0
 316 351 334.666666667 350 354 348 c 0
 358 349.333333333 361.666666667 351.333333333 365 354 c 128
 370 358 370 358 380 366 c 0
 398.666666667 382 411.333333333 401.833333333 418 425.5 c 128
 424.666666667 449.166666667 428 473.666666667 428 499 c 0
 428 520.333333333 425.666666667 540.5 421 559.5 c 128
 416.333333333 578.5 408.833333333 595 398.5 609 c 128
 388.166666667 623 375 634.166666667 359 642.5 c 128
 343 650.833333333 323.666666667 655 301 655 c 0
 279.666666667 655 260.5 650.333333333 243.5 641 c 128
 226.5 631.666666667 212.333333333 619.666666667 201 605 c 128
 189.666666667 590.333333333 181 573.666666667 175 555 c 128
 169 536.333333333 166 518 166 500 c 0
 166 488 166.5 477.666666667 167.5 469 c 128
 168.5 460.333333333 170 450.333333333 172 439 c 1
 193 439 l 1
 193 421 l 1
 35 421 l 1
 35 439 l 1
EndSplineSet
EndChar

StartChar: uni0476
Encoding: 1142 1142 30
Width: 493
Flags: HW
AnchorPoint: "Yerok" 252 856 basechar 0
AnchorPoint: "Diacritic" 252 855 basechar 0
LayerCount: 2
Fore
SplineSet
333 796 m 2
 335 796 336.666666667 794 338 790 c 2
 358 712 l 2
 358 708 356.666666667 706 354 706 c 2
 292 706 l 2
 290 706 288.333333333 708 287 712 c 2
 267 790 l 2
 267 794 268.333333333 796 271 796 c 2
 333 796 l 2
206 796 m 2
 208 796 209.666666667 794 211 790 c 2
 231 712 l 2
 231 708 229.666666667 706 227 706 c 2
 165 706 l 2
 163 706 161.333333333 708 160 712 c 2
 140 790 l 2
 140 794 141.333333333 796 144 796 c 2
 206 796 l 2
339 515 m 0
 335 503.666666667 331.666666667 491.333333333 329 478 c 128
 326.333333333 464.666666667 324 450.333333333 322 435 c 0
 318.666666667 409 315.333333333 379.166666667 312 345.5 c 128
 308.666666667 311.833333333 305.5 276.666666667 302.5 240 c 128
 299.5 203.333333333 296.833333333 166 294.5 128 c 128
 292.166666667 90 290.333333333 53.3333333333 289 18 c 1
 321 18 l 1
 321 0 l 1
 116 0 l 1
 116 18 l 1
 142 18 l 1
 141.333333333 43.3333333333 139.5 73.1666666667 136.5 107.5 c 128
 133.5 141.833333333 129.666666667 178.333333333 125 217 c 128
 120.333333333 255.666666667 115 295.333333333 109 336 c 128
 103 376.666666667 96.6666666667 416 90 454 c 128
 83.3333333333 492 76.3333333333 527.5 69 560.5 c 128
 61.6666666667 593.5 54.6666666667 621.666666667 48 645 c 1
 20 645 l 1
 20 663 l 1
 192 663 l 1
 192 645 l 1
 152 645 l 1
 158.666666667 622.333333333 165.166666667 594.5 171.5 561.5 c 128
 177.833333333 528.5 184 493 190 455 c 128
 196 417 201.666666667 377.5 207 336.5 c 128
 212.333333333 295.5 217.166666667 255.666666667 221.5 217 c 128
 225.833333333 178.333333333 229.5 141.666666667 232.5 107 c 128
 235.5 72.3333333333 237.666666667 42.6666666667 239 18 c 1
 271 18 l 1
 272.333333333 54 274.166666667 91 276.5 129 c 128
 278.833333333 167 281.5 204.5 284.5 241.5 c 128
 287.5 278.5 290.666666667 313.833333333 294 347.5 c 128
 297.333333333 381.166666667 300.666666667 411 304 437 c 0
 309.333333333 479 317.333333333 517.666666667 328 553 c 128
 338.666666667 588.333333333 357.666666667 617.666666667 385 641 c 0
 397 651 409.166666667 658.833333333 421.5 664.5 c 128
 433.833333333 670.166666667 447.666666667 673 463 673 c 0
 472.333333333 673 480.833333333 672.166666667 488.5 670.5 c 128
 496.166666667 668.833333333 502.333333333 667 507 665 c 0
 508.333333333 663.666666667 509.333333333 661.833333333 510 659.5 c 128
 510.666666667 657.166666667 511 655 511 653 c 0
 503.666666667 646.333333333 497.833333333 640.333333333 493.5 635 c 128
 489.166666667 629.666666667 484.333333333 623 479 615 c 256
 473.666666667 607 470.5 598.333333333 469.5 589 c 128
 468.5 579.666666667 468 570.666666667 468 562 c 0
 466.666666667 559.333333333 463.666666667 558 459 558 c 0
 450.333333333 563.333333333 442.5 568 435.5 572 c 128
 428.5 576 419.333333333 578 408 578 c 0
 388 578 373.333333333 571.833333333 364 559.5 c 128
 354.666666667 547.166666667 346.333333333 532.333333333 339 515 c 0
EndSplineSet
Ligature2: "'ccmp' Precomposed Glyphs-1" uni0474 uni030F
EndChar

StartChar: uni0466
Encoding: 1126 1126 31
Width: 777
Flags: HW
AnchorPoint: "Yerok" 377 716 basechar 0
AnchorPoint: "Diacritic" 376 716 basechar 0
LayerCount: 2
Fore
SplineSet
443 645 m 1
 443 627 445.333333333 609 450 591 c 0
 455.333333333 573 462.833333333 554.5 472.5 535.5 c 128
 482.166666667 516.5 492.333333333 500.333333333 503 487 c 0
 511.666666667 476.333333333 522 463.333333333 534 448 c 128
 546 432.666666667 558.666666667 416.833333333 572 400.5 c 128
 585.333333333 384.166666667 598.333333333 367.833333333 611 351.5 c 128
 623.666666667 335.166666667 635 320.333333333 645 307 c 0
 662.333333333 283 676.5 254.5 687.5 221.5 c 128
 698.5 188.5 704 156.666666667 704 126 c 0
 704 104.666666667 703.833333333 85.1666666667 703.5 67.5 c 128
 703.166666667 49.8333333333 702.333333333 33.3333333333 701 18 c 1
 733 18 l 1
 733 0 l 1
 533 0 l 1
 533 18 l 1
 568 18 l 1
 575.333333333 32.6666666667 580.833333333 50 584.5 70 c 128
 588.166666667 90 590 112 590 136 c 0
 590 162 585.166666667 187 575.5 211 c 128
 565.833333333 235 552.333333333 259.666666667 535 285 c 0
 523.666666667 301 511.833333333 317.5 499.5 334.5 c 128
 487.166666667 351.5 474.666666667 368.666666667 462 386 c 1
 433 386 l 1
 433 18 l 1
 483 18 l 1
 483 0 l 1
 283 0 l 1
 283 18 l 1
 333 18 l 1
 333 386 l 1
 295 386 l 1
 282.333333333 363.333333333 269.833333333 342.5 257.5 323.5 c 128
 245.166666667 304.5 231.666666667 282.333333333 217 257 c 0
 201.666666667 229.666666667 190.833333333 205.166666667 184.5 183.5 c 128
 178.166666667 161.833333333 175 137.666666667 175 111 c 0
 175 94.3333333333 177.166666667 77.6666666667 181.5 61 c 128
 185.833333333 44.3333333333 191.666666667 30 199 18 c 1
 242 18 l 1
 242 0 l 1
 42 0 l 1
 42 18 l 1
 76 18 l 1
 74.6666666667 25.3333333333 73.3333333333 35.8333333333 72 49.5 c 128
 70.6666666667 63.1666666667 70 78 70 94 c 0
 70 122 74.8333333333 151.5 84.5 182.5 c 128
 94.1666666667 213.5 111.333333333 245.666666667 136 279 c 0
 148.666666667 295.666666667 163.166666667 315 179.5 337 c 128
 195.833333333 359 212 381 228 403 c 128
 244 425 259 446.166666667 273 466.5 c 128
 287 486.833333333 298 504 306 518 c 0
 315.333333333 535.333333333 322.5 550.333333333 327.5 563 c 128
 332.5 575.666666667 336 589 338 603 c 2
 338 606 l 2
 336 612 334.5 618.333333333 333.5 625 c 128
 332.5 631.666666667 331.666666667 638.333333333 331 645 c 1
 283 645 l 1
 283 663 l 1
 490 663 l 1
 490 645 l 1
 443 645 l 1
413 457 m 0
 401.666666667 473.666666667 391 490.5 381 507.5 c 128
 371 524.5 362 542 354 560 c 1
 349.333333333 533.333333333 342.666666667 506 334 478 c 128
 325.333333333 450 315.333333333 425.333333333 304 404 c 1
 450 404 l 1
 443.333333333 413.333333333 436.833333333 422.333333333 430.5 431 c 128
 424.166666667 439.666666667 418.333333333 448.333333333 413 457 c 0
EndSplineSet
EndChar

StartChar: bracketleft
Encoding: 91 91 32
Width: 311
Flags: HW
LayerCount: 2
Fore
SplineSet
311 -362 m 1
 60 -362 l 1
 60 832 l 1
 311 832 l 1
 311 814 l 1
 160 814 l 1
 160 -344 l 1
 311 -344 l 1
 311 -362 l 1
EndSplineSet
EndChar

StartChar: bracketright
Encoding: 93 93 33
Width: 311
Flags: HW
LayerCount: 2
Fore
SplineSet
251 -362 m 1
 0 -362 l 1
 0 -344 l 1
 149 -344 l 1
 149 814 l 1
 0 814 l 1
 0 832 l 1
 251 832 l 1
 251 -362 l 1
EndSplineSet
EndChar

StartChar: grave
Encoding: 96 96 34
Width: 235
Flags: HW
LayerCount: 2
Fore
SplineSet
47 567 m 0
 37.6666666667 593 33 618 33 642 c 0
 33 663.333333333 36.5 682 43.5 698 c 128
 50.5 714 60.6666666667 724.666666667 74 730 c 0
 84 734 95.1666666667 733.833333333 107.5 729.5 c 128
 119.833333333 725.166666667 132.166666667 718 144.5 708 c 128
 156.833333333 698 168.5 685.666666667 179.5 671 c 128
 190.5 656.333333333 199.666666667 641 207 625 c 0
 209 621 208.5 618.166666667 205.5 616.5 c 128
 202.5 614.833333333 199.666666667 615.666666667 197 619 c 0
 191 627 183.666666667 634 175 640 c 128
 166.333333333 646 157.666666667 650.333333333 149 653 c 128
 140.333333333 655.666666667 132 656.5 124 655.5 c 128
 116 654.5 109.666666667 651.333333333 105 646 c 0
 94.3333333333 632.666666667 89 616.666666667 89 598 c 0
 89 576.666666667 95.1666666667 554.5 107.5 531.5 c 128
 119.833333333 508.5 134.666666667 485.666666667 152 463 c 0
 156.666666667 457.666666667 157.833333333 454.333333333 155.5 453 c 128
 153.166666667 451.666666667 150.666666667 451.666666667 148 453 c 0
 130 463.666666667 111.166666667 479 91.5 499 c 128
 71.8333333333 519 57 541.666666667 47 567 c 0
EndSplineSet
EndChar

StartChar: uni2DED
Encoding: 11757 11757 35
Width: 1
Flags: HW
AnchorPoint: "Stacking" -186 766 basemark 0
AnchorPoint: "Stacking" -195 541 mark 0
AnchorPoint: "Diacritic" -194 539 mark 0
LayerCount: 2
Fore
SplineSet
-143 673 m 1
 -152.333333333 671 -159.666666667 669.5 -165 668.5 c 128
 -170.333333333 667.5 -177 664.333333333 -185 659 c 0
 -201 649 -209 636.333333333 -209 621 c 0
 -209 614.333333333 -206.166666667 608.666666667 -200.5 604 c 128
 -194.833333333 599.333333333 -188 597 -180 597 c 0
 -165.333333333 597 -153 601.333333333 -143 610 c 0
 -134.333333333 617.333333333 -128.166666667 624 -124.5 630 c 128
 -120.833333333 636 -116.666666667 642.666666667 -112 650 c 1
 -109.333333333 648.666666667 -106.5 647.166666667 -103.5 645.5 c 128
 -100.5 643.833333333 -98 641.333333333 -96 638 c 1
 -99.3333333333 624.666666667 -103.833333333 612.833333333 -109.5 602.5 c 128
 -115.166666667 592.166666667 -123 581.666666667 -133 571 c 0
 -141 562.333333333 -150.5 555.5 -161.5 550.5 c 128
 -172.5 545.5 -184.333333333 543 -197 543 c 0
 -217.666666667 543 -235.5 548.833333333 -250.5 560.5 c 128
 -265.5 572.166666667 -273 589.666666667 -273 613 c 0
 -273 623.666666667 -270.666666667 633.5 -266 642.5 c 128
 -261.333333333 651.5 -255.166666667 659.166666667 -247.5 665.5 c 128
 -239.833333333 671.833333333 -231 676.666666667 -221 680 c 128
 -211 683.333333333 -201 685 -191 685 c 256
 -181 685 -172.666666667 684.833333333 -166 684.5 c 128
 -159.333333333 684.166666667 -152 683 -144 681 c 0
 -143.333333333 679 -143 676.333333333 -143 673 c 1
EndSplineSet
EndChar

StartChar: uni2DE3
Encoding: 11747 11747 36
Width: 1
Flags: HW
AnchorPoint: "Stacking" -177 959 basemark 0
AnchorPoint: "Stacking" -178 554 mark 0
AnchorPoint: "Diacritic" -178 554 mark 0
LayerCount: 2
Fore
SplineSet
115 612 m 1
 50 528 l 1
 40 533 l 1
 50 606 l 1
 -359 606 l 1
 -349 533 l 1
 -359 528 l 1
 -424 612 l 1
 -424 624 l 1
 -255 624 l 1
 -178 765 l 2
 -179.333333333 766.333333333 -180.166666667 768 -180.5 770 c 128
 -180.833333333 772 -181.666666667 774 -183 776 c 0
 -192.333333333 798 -202.333333333 817.833333333 -213 835.5 c 128
 -223.666666667 853.166666667 -233 865 -241 871 c 1
 -253 871 l 1
 -256.333333333 865.666666667 -260 858.833333333 -264 850.5 c 128
 -268 842.166666667 -272.166666667 833.166666667 -276.5 823.5 c 128
 -280.833333333 813.833333333 -284.666666667 804.5 -288 795.5 c 128
 -291.333333333 786.5 -294 778.666666667 -296 772 c 1
 -310 773.333333333 -323.5 775.166666667 -336.5 777.5 c 128
 -349.5 779.833333333 -360.666666667 783.333333333 -370 788 c 0
 -371.333333333 789.333333333 -372 791.666666667 -372 795 c 0
 -366 810.333333333 -358.333333333 825.666666667 -349 841 c 128
 -339.666666667 856.333333333 -330.666666667 871 -322 885 c 1
 -305.333333333 887 -285.666666667 888 -263 888 c 0
 -243.666666667 888 -224.166666667 887.333333333 -204.5 886 c 128
 -184.833333333 884.666666667 -167 882.666666667 -151 880 c 1
 -143.666666667 864 -135.666666667 845.333333333 -127 824 c 128
 -118.333333333 802.666666667 -109.333333333 781.333333333 -100 760 c 0
 -87.3333333333 732 -76 706.666666667 -66 684 c 128
 -56 661.333333333 -45 641.333333333 -33 624 c 1
 115 624 l 1
 115 612 l 1
-235 624 m 1
 -129 624 l 1
 -132.333333333 639.333333333 -137.666666667 657.333333333 -145 678 c 128
 -152.333333333 698.666666667 -160.666666667 720.333333333 -170 743 c 1
 -235 624 l 1
EndSplineSet
EndChar

StartChar: uni0473
Encoding: 1139 1139 37
Width: 604
Flags: HW
AnchorPoint: "Yerok" 476 557 basechar 0
AnchorPoint: "Diacritic" 310 556 basechar 0
LayerCount: 2
Fore
SplineSet
221 18 m 1
 217 36.6666666667 215 57 215 79 c 0
 215 112.333333333 217.833333333 147.5 223.5 184.5 c 128
 229.166666667 221.5 236.333333333 256.833333333 245 290.5 c 128
 253.666666667 324.166666667 263.333333333 354.5 274 381.5 c 128
 284.666666667 408.5 295 429 305 443 c 0
 305.666666667 445 308.333333333 446 313 446 c 0
 316.333333333 446 319 445 321 443 c 0
 330.333333333 429.666666667 340 410.166666667 350 384.5 c 128
 360 358.833333333 369 329.333333333 377 296 c 128
 385 262.666666667 391.666666667 227 397 189 c 128
 402.333333333 151 405 113.666666667 405 77 c 0
 405 66.3333333333 404.333333333 56.1666666667 403 46.5 c 128
 401.666666667 36.8333333333 400 27.3333333333 398 18 c 1
 572 18 l 2
 576 18 578 15.6666666667 578 11 c 0
 578 7 576.666666667 3 574 -1 c 0
 565.333333333 -13 556.5 -26.1666666667 547.5 -40.5 c 128
 538.5 -54.8333333333 530.166666667 -69.5 522.5 -84.5 c 128
 514.833333333 -99.5 508 -114.5 502 -129.5 c 128
 496 -144.5 491.666666667 -158 489 -170 c 0
 488.333333333 -173.333333333 485.333333333 -175 480 -175 c 256
 474.666666667 -175 472 -173.333333333 472 -170 c 0
 471.333333333 -164.666666667 470.833333333 -155.5 470.5 -142.5 c 128
 470.166666667 -129.5 470 -116.666666667 470 -104 c 256
 470 -85 470 -85 470 -66.5 c 128
 470 -54.1666666667 470.333333333 -43 471 -33 c 0
 471 -21 471.333333333 -10 472 0 c 1
 394 0 l 1
 384.666666667 -34 372.666666667 -65.1666666667 358 -93.5 c 128
 343.333333333 -121.833333333 328 -147.666666667 312 -171 c 0
 310 -173.666666667 307.333333333 -175 304 -175 c 0
 299.333333333 -175 296.666666667 -173.666666667 296 -171 c 0
 284.666666667 -152.333333333 272.333333333 -127.833333333 259 -97.5 c 128
 245.666666667 -67.1666666667 234.333333333 -34.6666666667 225 0 c 1
 146 0 l 1
 146 -172 l 1
 138.666666667 -173.333333333 130.666666667 -174.166666667 122 -174.5 c 128
 113.333333333 -174.833333333 104.666666667 -175 96 -175 c 256
 87.3333333333 -175 79.3333333333 -174.833333333 72 -174.5 c 128
 64.6666666667 -174.166666667 58.6666666667 -173.333333333 54 -172 c 1
 54 0 l 1
 34 0 l 2
 30.6666666667 0 29 3 29 9 c 0
 29 11 29.3333333333 13 30 15 c 128
 30.6666666667 17 32 18 34 18 c 2
 221 18 l 1
358 76 m 256
 358 87.3333333333 356.5 99.3333333333 353.5 112 c 128
 350.5 124.666666667 346.833333333 136.5 342.5 147.5 c 128
 338.166666667 158.5 333.166666667 167.666666667 327.5 175 c 128
 321.833333333 182.333333333 316.333333333 186 311 186 c 0
 305 186 299.333333333 182.166666667 294 174.5 c 128
 288.666666667 166.833333333 283.666666667 157.5 279 146.5 c 128
 274.333333333 135.5 270.666666667 123.5 268 110.5 c 128
 265.333333333 97.5 264 86 264 76 c 0
 264 64.6666666667 264.333333333 54.1666666667 265 44.5 c 128
 265.666666667 34.8333333333 266.666666667 26 268 18 c 1
 352 18 l 1
 353.333333333 26 354.666666667 34.8333333333 356 44.5 c 128
 357.333333333 54.1666666667 358 64.6666666667 358 76 c 256
EndSplineSet
EndChar

StartChar: uni2DE2
Encoding: 11746 11746 38
Width: 1
Flags: HW
AnchorPoint: "Stacking" -224 757 basemark 0
AnchorPoint: "Stacking" -225 554 mark 0
AnchorPoint: "Diacritic" -223 554 mark 0
LayerCount: 2
Fore
SplineSet
-90 694 m 2
 -88.6666666667 694 -87.8333333333 693.166666667 -87.5 691.5 c 128
 -87.1666666667 689.833333333 -87 688.333333333 -87 687 c 0
 -94.3333333333 677.666666667 -99.3333333333 670 -102 664 c 128
 -104.666666667 658 -107.666666667 650.333333333 -111 641 c 0
 -113 635.666666667 -114.666666667 630.333333333 -116 625 c 128
 -117.333333333 619.666666667 -118.666666667 615 -120 611 c 0
 -121.333333333 611 -123.166666667 611.166666667 -125.5 611.5 c 128
 -127.833333333 611.833333333 -130 612.666666667 -132 614 c 0
 -142.666666667 621.333333333 -152 629.666666667 -160 639 c 128
 -168 648.333333333 -174.333333333 658.333333333 -179 669 c 1
 -227 669 l 1
 -227 567 l 1
 -233.666666667 563 -241.666666667 560 -251 558 c 128
 -260.333333333 556 -269.333333333 555 -278 555 c 0
 -290.666666667 555 -300.333333333 560 -307 570 c 1
 -307 669 l 1
 -350 669 l 1
 -352 671.666666667 -353 676 -353 682 c 0
 -353 686 -352 690 -350 694 c 1
 -90 694 l 2
EndSplineSet
EndChar

StartChar: uni0456
Encoding: 1110 1110 39
Width: 241
Flags: HW
AnchorPoint: "Yerok" 132 557 basechar 0
AnchorPoint: "Diacritic" 131 556 basechar 0
LayerCount: 2
Fore
SplineSet
180 0 m 1
 172.666666667 -1.33333333333 164.666666667 -2.33333333333 156 -3 c 128
 147.333333333 -3.66666666667 138.333333333 -4 129 -4 c 256
 119.666666667 -4 110.166666667 -3.66666666667 100.5 -3 c 128
 90.8333333333 -2.33333333333 81.3333333333 -1.33333333333 72 0 c 1
 70.6666666667 17.3333333333 69.6666666667 39.3333333333 69 66 c 128
 68.3333333333 92.6666666667 68 121.333333333 68 152 c 0
 68 174.666666667 68.3333333333 198.666666667 69 224 c 128
 69.6666666667 249.333333333 70.5 274.5 71.5 299.5 c 128
 72.5 324.5 73.6666666667 348.5 75 371.5 c 128
 76.3333333333 394.5 77.6666666667 415 79 433 c 1
 97 436.333333333 113.5 438.666666667 128.5 440 c 128
 143.5 441.333333333 160.666666667 442 180 442 c 1
 179.333333333 428.666666667 178.666666667 412.5 178 393.5 c 128
 177.333333333 374.5 176.666666667 354 176 332 c 128
 175.333333333 310 174.666666667 287.5 174 264.5 c 128
 173.333333333 241.5 173 219 173 197 c 0
 173 179 173.166666667 160.5 173.5 141.5 c 128
 173.833333333 122.5 174.333333333 104.333333333 175 87 c 128
 175.666666667 69.6666666667 176.333333333 53.3333333333 177 38 c 128
 177.666666667 22.6666666667 178.666666667 10 180 0 c 1
EndSplineSet
EndChar

StartChar: uni047B
Encoding: 1147 1147 40
Width: 650
Flags: HW
AnchorPoint: "Yerok" 526 557 basechar 0
AnchorPoint: "Diacritic" 321 556 basechar 0
LayerCount: 2
Fore
SplineSet
325 -52 m 0
 313 -52 302.833333333 -48 294.5 -40 c 128
 286.166666667 -32 281 -22.3333333333 279 -11 c 1
 207.666666667 -7.66666666667 151.333333333 12.5 110 49.5 c 128
 68.6666666667 86.5 48 143 48 219 c 256
 48 295 68.6666666667 351.5 110 388.5 c 128
 151.333333333 425.5 207.666666667 445.666666667 279 449 c 1
 281 460.333333333 286 470 294 478 c 128
 302 486 312.333333333 490 325 490 c 0
 337 490 347.166666667 486 355.5 478 c 128
 363.833333333 470 369 460.333333333 371 449 c 1
 443.666666667 445.666666667 500.333333333 425.666666667 541 389 c 128
 581.666666667 352.333333333 602 295.666666667 602 219 c 0
 602 141.666666667 581.666666667 84.8333333333 541 48.5 c 128
 500.333333333 12.1666666667 443.666666667 -7.66666666667 371 -11 c 1
 368.333333333 -22.3333333333 362.833333333 -32 354.5 -40 c 128
 346.166666667 -48 336.333333333 -52 325 -52 c 0
325 50 m 256
 338.333333333 50 349 45.8333333333 357 37.5 c 128
 365 29.1666666667 369.666666667 18.3333333333 371 5 c 1
 400.333333333 9 423.5 18.6666666667 440.5 34 c 128
 457.5 49.3333333333 470.333333333 67.5 479 88.5 c 128
 487.666666667 109.5 493.166666667 131.666666667 495.5 155 c 128
 497.833333333 178.333333333 499 199.666666667 499 219 c 0
 499 237.666666667 497.833333333 258.666666667 495.5 282 c 128
 493.166666667 305.333333333 487.666666667 327.5 479 348.5 c 128
 470.333333333 369.5 457.5 387.833333333 440.5 403.5 c 128
 423.5 419.166666667 400.333333333 429 371 433 c 1
 369.666666667 420.333333333 364.833333333 409.666666667 356.5 401 c 128
 348.166666667 392.333333333 337.666666667 388 325 388 c 256
 312.333333333 388 301.833333333 392.333333333 293.5 401 c 128
 285.166666667 409.666666667 280.333333333 420.333333333 279 433 c 1
 250.333333333 429 227.5 419 210.5 403 c 128
 193.5 387 180.666666667 368.5 172 347.5 c 128
 163.333333333 326.5 157.666666667 304.5 155 281.5 c 128
 152.333333333 258.5 151 237.666666667 151 219 c 0
 151 199.666666667 152.333333333 178.5 155 155.5 c 128
 157.666666667 132.5 163.333333333 110.5 172 89.5 c 128
 180.666666667 68.5 193.5 50.1666666667 210.5 34.5 c 128
 227.5 18.8333333333 250.333333333 9 279 5 c 1
 280.333333333 17.6666666667 285 28.3333333333 293 37 c 128
 301 45.6666666667 311.666666667 50 325 50 c 256
EndSplineSet
EndChar

StartChar: uni0471
Encoding: 1137 1137 41
Width: 612
Flags: HW
AnchorPoint: "Yerok" 516 557 basechar 0
AnchorPoint: "Diacritic" 101 556 basechar 0
LayerCount: 2
Fore
SplineSet
314 0 m 1
 314 -320 l 1
 322 -315.333333333 329.833333333 -310.333333333 337.5 -305 c 128
 345.166666667 -299.666666667 352 -294.666666667 358 -290 c 0
 360 -290 362.166666667 -290.333333333 364.5 -291 c 128
 366.833333333 -291.666666667 368 -293.333333333 368 -296 c 0
 366.666666667 -304.666666667 365.666666667 -311 365 -315 c 128
 364.333333333 -319 362.333333333 -323.666666667 359 -329 c 0
 347.666666667 -341.666666667 334.333333333 -351.833333333 319 -359.5 c 128
 303.666666667 -367.166666667 290.333333333 -371.666666667 279 -373 c 1
 271.666666667 -371 268 -365.666666667 268 -357 c 0
 268 -354.333333333 268.333333333 -351.833333333 269 -349.5 c 128
 269.666666667 -347.166666667 270.666666667 -344.333333333 272 -341 c 0
 273.333333333 -339.666666667 274.333333333 -339 275 -339 c 2
 270 0 l 1
 184 0 l 1
 176.666666667 36.6666666667 168.833333333 72.6666666667 160.5 108 c 128
 152.166666667 143.333333333 142.333333333 178 131 212 c 0
 115.666666667 258 99.6666666667 300.666666667 83 340 c 128
 66.3333333333 379.333333333 51.6666666667 412.666666667 39 440 c 0
 39 442 40 443.666666667 42 445 c 128
 44 446.333333333 45.6666666667 447 47 447 c 0
 64.3333333333 447 82.3333333333 445.666666667 101 443 c 128
 119.666666667 440.333333333 138 436.666666667 156 432 c 1
 165.333333333 410 175 385 185 357 c 128
 195 329 203.666666667 300 211 270 c 0
 222.333333333 227.333333333 231.666666667 183.833333333 239 139.5 c 128
 246.333333333 95.1666666667 251.666666667 54.6666666667 255 18 c 1
 257 18 l 1
 256.333333333 48.6666666667 255.833333333 85.5 255.5 128.5 c 128
 255.166666667 171.5 254.833333333 217.333333333 254.5 266 c 128
 254.166666667 314.666666667 254 364.5 254 415.5 c 128
 254 466.5 253.833333333 515 253.5 561 c 128
 253.166666667 607 252.833333333 649 252.5 687 c 128
 252.166666667 725 252 755.333333333 252 778 c 1
 247.333333333 776.666666667 243.333333333 776 240 776 c 128
 236.666666667 776 233.666666667 775.666666667 231 775 c 0
 225.666666667 776.333333333 223 779 223 783 c 256
 223 787 224.666666667 790.666666667 228 794 c 1
 238.666666667 795.333333333 251.833333333 797.333333333 267.5 800 c 128
 283.166666667 802.666666667 299.166666667 805.5 315.5 808.5 c 128
 331.833333333 811.5 347.333333333 814.666666667 362 818 c 128
 376.666666667 821.333333333 388 824 396 826 c 0
 400.666666667 825.333333333 403 822.333333333 403 817 c 0
 403 813.666666667 402 810.666666667 400 808 c 0
 396 806.666666667 390.833333333 805.166666667 384.5 803.5 c 128
 378.166666667 801.833333333 371.333333333 800.333333333 364 799 c 1
 362.666666667 769 361.333333333 733.666666667 360 693 c 128
 358.666666667 652.333333333 357.333333333 608.833333333 356 562.5 c 128
 354.666666667 516.166666667 353.333333333 468.166666667 352 418.5 c 128
 350.666666667 368.833333333 349.333333333 320.166666667 348 272.5 c 128
 346.666666667 224.833333333 345.666666667 179.166666667 345 135.5 c 128
 344.333333333 91.8333333333 344 52.6666666667 344 18 c 1
 349 18 l 1
 349.666666667 44 351.333333333 69.1666666667 354 93.5 c 128
 356.666666667 117.833333333 360.666666667 145 366 175 c 0
 373.333333333 215 383.5 253 396.5 289 c 128
 409.5 325 426.666666667 357 448 385 c 0
 463.333333333 405.666666667 481.5 421.166666667 502.5 431.5 c 128
 523.5 441.833333333 552.333333333 447.666666667 589 449 c 0
 592.333333333 449 594.5 447.666666667 595.5 445 c 128
 596.5 442.333333333 597 439.333333333 597 436 c 0
 581.666666667 422.666666667 568.833333333 407 558.5 389 c 128
 548.166666667 371 543 351.333333333 543 330 c 0
 543 324 543.166666667 318.5 543.5 313.5 c 128
 543.833333333 308.5 544.333333333 304.333333333 545 301 c 0
 545 297.666666667 543.833333333 295.5 541.5 294.5 c 128
 539.166666667 293.5 537 293 535 293 c 0
 525.666666667 300.333333333 518.333333333 306.833333333 513 312.5 c 128
 507.666666667 318.166666667 501.666666667 324.666666667 495 332 c 0
 491 336 487.333333333 338.833333333 484 340.5 c 128
 480.666666667 342.166666667 476.333333333 343 471 343 c 0
 461.666666667 343 453.333333333 339.666666667 446 333 c 128
 438.666666667 326.333333333 433 318.333333333 429 309 c 0
 419 288.333333333 410.333333333 266.833333333 403 244.5 c 128
 395.666666667 222.166666667 389.333333333 197.666666667 384 171 c 0
 378 139 373.666666667 109.5 371 82.5 c 128
 368.333333333 55.5 367 28 367 0 c 1
 314 0 l 1
EndSplineSet
EndChar

StartChar: uni047D
Encoding: 1149 1149 42
Width: 969
Flags: HW
AnchorPoint: "Yerok" 480 786 basechar 0
AnchorPoint: "Diacritic" 481 786 basechar 0
LayerCount: 2
Fore
SplineSet
48 246 m 0
 48 272.666666667 52.5 298.166666667 61.5 322.5 c 128
 70.5 346.833333333 83.3333333333 368 100 386 c 128
 116.666666667 404 136.5 418.333333333 159.5 429 c 128
 182.5 439.666666667 208 445 236 445 c 0
 246 445 255.166666667 444.333333333 263.5 443 c 128
 271.833333333 441.666666667 280 440 288 438 c 0
 318 425.333333333 346.5 410.166666667 373.5 392.5 c 128
 400.5 374.833333333 424.333333333 357.333333333 445 340 c 1
 442.333333333 319.333333333 432.666666667 302.833333333 416 290.5 c 128
 399.333333333 278.166666667 381.333333333 271.333333333 362 270 c 1
 354 274.666666667 344.333333333 282.333333333 333 293 c 128
 321.666666667 303.666666667 309.833333333 314.666666667 297.5 326 c 128
 285.166666667 337.333333333 272.666666667 348.333333333 260 359 c 128
 247.333333333 369.666666667 235 378 223 384 c 1
 201.666666667 378.666666667 182.833333333 368 166.5 352 c 128
 150.166666667 336 136.666666667 316.5 126 293.5 c 128
 115.333333333 270.5 107.333333333 245.333333333 102 218 c 128
 96.6666666667 190.666666667 94 163.333333333 94 136 c 1
 96.6666666667 116.666666667 103.166666667 99.1666666667 113.5 83.5 c 128
 123.833333333 67.8333333333 136.666666667 54.5 152 43.5 c 128
 167.333333333 32.5 184.833333333 23.8333333333 204.5 17.5 c 128
 224.166666667 11.1666666667 244.666666667 8 266 8 c 0
 294 8 320.833333333 14 346.5 26 c 128
 372.166666667 38 395.666666667 53.3333333333 417 72 c 128
 438.333333333 90.6666666667 456.833333333 110.833333333 472.5 132.5 c 128
 488.166666667 154.166666667 499.666666667 175 507 195 c 1
 513 195 l 1
 529 183 547.833333333 169.5 569.5 154.5 c 128
 591.166666667 139.5 614 125.666666667 638 113 c 128
 662 100.333333333 686.333333333 89.6666666667 711 81 c 128
 735.666666667 72.3333333333 759 68 781 68 c 0
 790.333333333 68 799 68.6666666667 807 70 c 128
 815 71.3333333333 823 74.6666666667 831 80 c 0
 845.666666667 91.3333333333 857 106.666666667 865 126 c 0
 868.333333333 138 870.5 152.666666667 871.5 170 c 128
 872.5 187.333333333 873 206 873 226 c 0
 873 246.666666667 871.333333333 266.833333333 868 286.5 c 128
 864.666666667 306.166666667 859.166666667 323.5 851.5 338.5 c 128
 843.833333333 353.5 833.666666667 365.5 821 374.5 c 128
 808.333333333 383.5 793 388 775 388 c 0
 749.666666667 388 729.333333333 383.666666667 714 375 c 128
 698.666666667 366.333333333 686.833333333 355.5 678.5 342.5 c 128
 670.166666667 329.5 664.666666667 315.333333333 662 300 c 128
 659.333333333 284.666666667 657.666666667 270 657 256 c 0
 657 254 656 252.333333333 654 251 c 128
 652 249.666666667 650.333333333 249 649 249 c 0
 627.666666667 264.333333333 606.833333333 278.166666667 586.5 290.5 c 128
 566.166666667 302.833333333 543.333333333 315 518 327 c 1
 518 330.333333333 518.666666667 333 520 335 c 0
 532.666666667 351 546.166666667 366.166666667 560.5 380.5 c 128
 574.833333333 394.833333333 590.333333333 407.333333333 607 418 c 128
 623.666666667 428.666666667 641.666666667 437.333333333 661 444 c 128
 680.333333333 450.666666667 701.333333333 454 724 454 c 0
 742.666666667 452 760.333333333 447.833333333 777 441.5 c 128
 793.666666667 435.166666667 809.333333333 427.5 824 418.5 c 128
 838.666666667 409.5 852.333333333 399.833333333 865 389.5 c 128
 877.666666667 379.166666667 889 369 899 359 c 1
 908.333333333 340.333333333 914.666666667 322.666666667 918 306 c 128
 921.333333333 289.333333333 923 269.666666667 923 247 c 0
 923 217 917.833333333 186.833333333 907.5 156.5 c 128
 897.166666667 126.166666667 883 98.6666666667 865 74 c 128
 847 49.3333333333 825.833333333 29.1666666667 801.5 13.5 c 128
 777.166666667 -2.16666666667 751.333333333 -10 724 -10 c 0
 698 -10 672.666666667 -6.5 648 0.5 c 128
 623.333333333 7.5 600.166666667 16.5 578.5 27.5 c 128
 556.833333333 38.5 537.166666667 50.5 519.5 63.5 c 128
 501.833333333 76.5 487 89 475 101 c 1
 462.333333333 88.3333333333 448.833333333 75.3333333333 434.5 62 c 128
 420.166666667 48.6666666667 404.5 36.6666666667 387.5 26 c 128
 370.5 15.3333333333 351.833333333 6.66666666667 331.5 0 c 128
 311.166666667 -6.66666666667 288.666666667 -10 264 -10 c 0
 188 -10 133 12.3333333333 99 57 c 128
 65 101.666666667 48 164.666666667 48 246 c 0
340 473 m 0
 342.666666667 489 348.5 503.833333333 357.5 517.5 c 128
 366.5 531.166666667 377.833333333 543.166666667 391.5 553.5 c 128
 405.166666667 563.833333333 420.166666667 572 436.5 578 c 128
 452.833333333 584 469.666666667 587 487 587 c 0
 499.666666667 587 511.833333333 584.833333333 523.5 580.5 c 128
 535.166666667 576.166666667 545.5 570.333333333 554.5 563 c 128
 563.5 555.666666667 570.833333333 546.666666667 576.5 536 c 128
 582.166666667 525.333333333 585 513.666666667 585 501 c 0
 585 487.666666667 582.166666667 475 576.5 463 c 128
 570.833333333 451 563 440.5 553 431.5 c 128
 543 422.5 531.5 415.166666667 518.5 409.5 c 128
 505.5 403.833333333 492 401 478 401 c 0
 466 401 454.166666667 402.833333333 442.5 406.5 c 128
 430.833333333 410.166666667 422.333333333 415.333333333 417 422 c 0
 417 424 417.166666667 425.833333333 417.5 427.5 c 128
 417.833333333 429.166666667 419.666666667 430.666666667 423 432 c 0
 435.666666667 426.666666667 450.333333333 424 467 424 c 0
 474.333333333 425.333333333 480.833333333 429.5 486.5 436.5 c 128
 492.166666667 443.5 495 452 495 462 c 0
 495 476 488 488.166666667 474 498.5 c 128
 460 508.833333333 445 514 429 514 c 0
 410.333333333 514 395 508.666666667 383 498 c 128
 371 487.333333333 362.333333333 477.333333333 357 468 c 0
 354.333333333 464 351 462 347 462 c 0
 343.666666667 462 341.666666667 463.333333333 341 466 c 128
 340.333333333 468.666666667 340 471 340 473 c 0
146 497 m 0
 144 497 142.833333333 498.166666667 142.5 500.5 c 128
 142.166666667 502.833333333 142 505 142 507 c 0
 151.333333333 530.333333333 162.666666667 552.666666667 176 574 c 128
 189.333333333 595.333333333 206.666666667 616.666666667 228 638 c 0
 231 641 231 641 233.5 643.5 c 128
 235.166666667 645.166666667 237.666666667 646.666666667 241 648 c 0
 278.333333333 662 316.5 674.333333333 355.5 685 c 128
 394.5 695.666666667 440 705.333333333 492 714 c 0
 495 714 495 714 507.5 714 c 128
 515.833333333 714 521 713.666666667 523 713 c 0
 536.333333333 710.333333333 547.666666667 707.833333333 557 705.5 c 128
 566.333333333 703.166666667 577 698.666666667 589 692 c 0
 603 684 617.666666667 675 633 665 c 128
 656 650 656 650 679 635 c 128
 694.333333333 625 709.833333333 615.5 725.5 606.5 c 128
 741.166666667 597.5 756.666666667 590.666666667 772 586 c 0
 784.666666667 582 795.833333333 579.333333333 805.5 578 c 128
 815.166666667 576.666666667 826.666666667 575.333333333 840 574 c 0
 849.333333333 573.333333333 858 572.666666667 866 572 c 128
 874 571.333333333 881.666666667 569.333333333 889 566 c 0
 892.333333333 563.333333333 894.666666667 560 896 556 c 128
 897.333333333 552 898 547.666666667 898 543 c 1
 868 535.666666667 837.833333333 531.333333333 807.5 530 c 128
 777.166666667 528.666666667 752.333333333 528 733 528 c 1
 707 540 684.5 551.833333333 665.5 563.5 c 128
 646.5 575.166666667 628.833333333 586.5 612.5 597.5 c 128
 596.166666667 608.5 580.333333333 619 565 629 c 128
 549.666666667 639 532.333333333 648.333333333 513 657 c 1
 497.666666667 660.333333333 484.666666667 663.166666667 474 665.5 c 128
 463.333333333 667.833333333 450 669 434 669 c 0
 409.333333333 669 388 665.333333333 370 658 c 128
 352 650.666666667 337.166666667 640.666666667 325.5 628 c 128
 313.833333333 615.333333333 305.166666667 600.833333333 299.5 584.5 c 128
 293.833333333 568.166666667 291 550.666666667 291 532 c 0
 291 524.666666667 291.166666667 518.333333333 291.5 513 c 128
 291.833333333 507.666666667 292.333333333 502.333333333 293 497 c 1
 281.666666667 496.333333333 268.5 495.666666667 253.5 495 c 128
 238.5 494.333333333 223.333333333 494 208 494 c 0
 195.333333333 494 183.666666667 494.333333333 173 495 c 128
 162.333333333 495.666666667 153.333333333 496.333333333 146 497 c 0
EndSplineSet
Ligature2: "'ccmp' Precomposed Glyphs-1" uniA64D uniE005
EndChar

StartChar: uni047F
Encoding: 1151 1151 43
Width: 671
Flags: HW
AnchorPoint: "Yerok" 340 846 basechar 0
AnchorPoint: "Diacritic" 341 846 basechar 0
LayerCount: 2
Fore
SplineSet
296 426 m 1
 314 427.333333333 332.833333333 429.666666667 352.5 433 c 128
 372.166666667 436.333333333 392.666666667 440.666666667 414 446 c 0
 415.333333333 446 416.5 445.333333333 417.5 444 c 128
 418.5 442.666666667 419 441.333333333 419 440 c 0
 415 428 410.5 415.833333333 405.5 403.5 c 128
 400.5 391.166666667 395.333333333 380.333333333 390 371 c 0
 386.666666667 359.666666667 384.333333333 348.333333333 383 337 c 128
 381.666666667 325.666666667 381 311.333333333 381 294 c 0
 381 270.666666667 382.833333333 247.833333333 386.5 225.5 c 128
 390.166666667 203.166666667 396 182.333333333 404 163 c 128
 412 143.666666667 422.333333333 126 435 110 c 128
 447.666666667 94 462.666666667 81 480 71 c 1
 505.333333333 88.3333333333 522.833333333 110.5 532.5 137.5 c 128
 542.166666667 164.5 547 195.666666667 547 231 c 0
 547 247 545 263 541 279 c 128
 537 295 532.166666667 310.166666667 526.5 324.5 c 128
 520.833333333 338.833333333 514.666666667 352.166666667 508 364.5 c 128
 501.333333333 376.833333333 495.333333333 387 490 395 c 0
 488 397.666666667 487 400.666666667 487 404 c 1
 505 407.333333333 523.666666667 413.5 543 422.5 c 128
 562.333333333 431.5 580.666666667 439.333333333 598 446 c 1
 613.333333333 407.333333333 621 362.666666667 621 312 c 0
 621 290 619.833333333 269.833333333 617.5 251.5 c 128
 615.166666667 233.166666667 611.333333333 215.5 606 198.5 c 128
 600.666666667 181.5 594 164.5 586 147.5 c 128
 578 130.5 568 113 556 95 c 0
 523.333333333 43.6666666667 488.333333333 9 451 -9 c 0
 449.666666667 -9.66666666667 447.333333333 -10 444 -10 c 0
 441.333333333 -10 439.666666667 -9.66666666667 439 -9 c 0
 427 -1 416.166666667 6.66666666667 406.5 14 c 128
 396.833333333 21.3333333333 387.833333333 29.5 379.5 38.5 c 128
 371.166666667 47.5 363 57.5 355 68.5 c 128
 347 79.5 338.666666667 92.6666666667 330 108 c 0
 329.333333333 108.666666667 328.833333333 109.333333333 328.5 110 c 128
 328.166666667 110.666666667 327.666666667 111.333333333 327 112 c 0
 315.666666667 101.333333333 303.833333333 90.3333333333 291.5 79 c 128
 279.166666667 67.6666666667 266.5 56.6666666667 253.5 46 c 128
 240.5 35.3333333333 227.666666667 25.3333333333 215 16 c 128
 202.333333333 6.66666666667 190.666666667 -1.33333333333 180 -8 c 0
 177.333333333 -9.33333333333 175.333333333 -10 174 -10 c 0
 172 -10 170.333333333 -9.33333333333 169 -8 c 0
 155 4 141.5 20.3333333333 128.5 41 c 128
 115.5 61.6666666667 103.833333333 85 93.5 111 c 128
 83.1666666667 137 75 164.833333333 69 194.5 c 128
 63 224.166666667 60 254.666666667 60 286 c 0
 60 314.666666667 62.8333333333 342 68.5 368 c 128
 74.1666666667 394 79.6666666667 414.666666667 85 430 c 1
 101.666666667 431.333333333 120 433.333333333 140 436 c 128
 160 438.666666667 180.666666667 442 202 446 c 0
 205.333333333 446 207 443.666666667 207 439 c 0
 203.666666667 433 199.833333333 426.5 195.5 419.5 c 128
 191.166666667 412.5 187 406.333333333 183 401 c 0
 175.666666667 384.333333333 169.666666667 365.5 165 344.5 c 128
 160.333333333 323.5 158 302.333333333 158 281 c 0
 158 258.333333333 160.5 235.166666667 165.5 211.5 c 128
 170.5 187.833333333 176.833333333 165.666666667 184.5 145 c 128
 192.166666667 124.333333333 200.666666667 106.5 210 91.5 c 128
 219.333333333 76.5 228.666666667 66.6666666667 238 62 c 1
 248.666666667 68 261.5 77.5 276.5 90.5 c 128
 291.5 103.5 305.666666667 116.333333333 319 129 c 1
 294.333333333 181 282 244.666666667 282 320 c 0
 282 341.333333333 283.5 362.333333333 286.5 383 c 128
 289.5 403.666666667 292.666666667 418 296 426 c 1
642 764 m 2
 645.333333333 764 647.166666667 762 647.5 758 c 128
 647.833333333 754 648 751.333333333 648 750 c 0
 632.666666667 743.333333333 618.833333333 734.666666667 606.5 724 c 128
 594.166666667 713.333333333 583.166666667 701.666666667 573.5 689 c 128
 563.833333333 676.333333333 555.833333333 663.333333333 549.5 650 c 128
 543.166666667 636.666666667 538 624 534 612 c 0
 533.333333333 610 532 608.666666667 530 608 c 128
 528 607.333333333 526 607 524 607 c 0
 518 607 515 608.666666667 515 612 c 2
 515 746 l 1
 390 746 l 1
 393 607 l 1
 292 607 l 1
 295 746 l 1
 168 746 l 1
 171 607 l 1
 70 607 l 1
 73 746 l 1
 42 746 l 2
 38.6666666667 746 37 749 37 755 c 0
 37 757 37.3333333333 759 38 761 c 128
 38.6666666667 763 40 764 42 764 c 2
 642 764 l 2
EndSplineSet
Ligature2: "'ccmp' Precomposed Glyphs-1" uni0461 uni2DEE
EndChar

StartChar: uni0479
Encoding: 1145 1145 44
Width: 625
Flags: HW
AnchorPoint: "Yerok" 546 557 basechar 0
AnchorPoint: "Diacritic" 415 556 basechar 0
LayerCount: 2
Fore
SplineSet
201 229 m 0
 201 201.666666667 198.333333333 175.333333333 193 150 c 128
 187.666666667 124.666666667 181.166666667 101.5 173.5 80.5 c 128
 165.833333333 59.5 157.5 41.3333333333 148.5 26 c 128
 139.5 10.6666666667 131.666666667 -1 125 -9 c 0
 123.666666667 -10.3333333333 121.666666667 -11 119 -11 c 0
 117 -11 115.333333333 -10.3333333333 114 -9 c 0
 97.3333333333 16.3333333333 83.5 47.5 72.5 84.5 c 128
 61.5 121.5 56 162 56 206 c 0
 56 254.666666667 63 298.5 77 337.5 c 128
 91 376.5 108.666666667 412 130 444 c 0
 132 446 134.333333333 447 137 447 c 0
 139 447 140.666666667 446 142 444 c 0
 146.666666667 433.333333333 152.5 420.333333333 159.5 405 c 128
 166.5 389.666666667 173 372.666666667 179 354 c 128
 185 335.333333333 190.166666667 315.333333333 194.5 294 c 128
 198.833333333 272.666666667 201 251 201 229 c 0
159 133 m 2
 161.666666667 133 163 134.666666667 163 138 c 2
 163 300 l 2
 163 303.333333333 161.666666667 305 159 305 c 2
 97 305 l 2
 94.3333333333 305 93 303.333333333 93 300 c 2
 93 138 l 2
 93 134.666666667 94.3333333333 133 97 133 c 2
 159 133 l 2
606 443 m 0
 608.666666667 443 610 440.333333333 610 435 c 1
 600.666666667 423.666666667 593.833333333 412.5 589.5 401.5 c 128
 585.166666667 390.5 583 378.333333333 583 365 c 0
 583 357 584 348 586 338 c 0
 586 336 585.666666667 334 585 332 c 128
 584.333333333 330 583 329 581 329 c 0
 572.333333333 332.333333333 564.5 335.5 557.5 338.5 c 128
 550.5 341.5 542.333333333 343 533 343 c 0
 517 343 504.166666667 336 494.5 322 c 128
 484.833333333 308 479 293.333333333 477 278 c 0
 474.333333333 255.333333333 472 233.666666667 470 213 c 128
 468 192.333333333 466.166666667 171.5 464.5 150.5 c 128
 462.833333333 129.5 461.333333333 107.666666667 460 85 c 128
 458.666666667 62.3333333333 457.666666667 37.6666666667 457 11 c 0
 455.666666667 -13.6666666667 455 -35.8333333333 455 -55.5 c 128
 455 -85 455 -85 455 -113.5 c 128
 455 -132.5 454.833333333 -152 454.5 -172 c 128
 454.166666667 -192 453 -214 451 -238 c 0
 449 -264.666666667 446.833333333 -291.666666667 444.5 -319 c 128
 442.166666667 -346.333333333 439.333333333 -372 436 -396 c 128
 432.666666667 -420 429 -441.666666667 425 -461 c 128
 421 -480.333333333 416.666666667 -495.333333333 412 -506 c 0
 410.666666667 -509.333333333 408.333333333 -512.5 405 -515.5 c 128
 401.666666667 -518.5 395 -520.333333333 385 -521 c 1
 381.666666667 -518.333333333 380 -514.333333333 380 -509 c 1
 383.333333333 -507.666666667 386 -503.166666667 388 -495.5 c 128
 390 -487.833333333 391.333333333 -481 392 -475 c 0
 395.333333333 -433.666666667 398.166666667 -392.5 400.5 -351.5 c 128
 402.833333333 -310.5 405 -264 407 -212 c 0
 407.666666667 -190 408.166666667 -170.166666667 408.5 -152.5 c 128
 408.833333333 -134.833333333 409.166666667 -117.5 409.5 -100.5 c 128
 409.833333333 -83.5 410 -66.3333333333 410 -49 c 128
 410 -31.6666666667 410.666666667 -12.3333333333 412 9 c 1
 394.666666667 7 377.333333333 4.33333333333 360 1 c 128
 342.666666667 -2.33333333333 325.333333333 -6.33333333333 308 -11 c 0
 304.666666667 -11 303 -9 303 -5 c 0
 303 55.6666666667 299.833333333 114 293.5 170 c 128
 287.166666667 226 279.666666667 279.333333333 271 330 c 0
 267.666666667 346.666666667 264.166666667 364.833333333 260.5 384.5 c 128
 256.833333333 404.166666667 253.333333333 421.333333333 250 436 c 0
 250 440.666666667 251 443 253 443 c 0
 258.333333333 443 265.166666667 442.833333333 273.5 442.5 c 128
 281.833333333 442.166666667 290.666666667 441.5 300 440.5 c 128
 309.333333333 439.5 318.833333333 438.5 328.5 437.5 c 128
 338.166666667 436.5 347 435.333333333 355 434 c 1
 359 411.333333333 363 383.5 367 350.5 c 128
 371 317.5 374.666666667 282.5 378 245.5 c 128
 381.333333333 208.5 384.166666667 170.833333333 386.5 132.5 c 128
 388.833333333 94.1666666667 390.666666667 58.6666666667 392 26 c 1
 413 27 l 1
 414.333333333 49.6666666667 415.5 70.1666666667 416.5 88.5 c 128
 417.5 106.833333333 418.666666667 124.333333333 420 141 c 128
 421.333333333 157.666666667 422.833333333 174.333333333 424.5 191 c 128
 427 216 427 216 430 246 c 256
 432 266 435 286 439 306 c 128
 443 326 448.5 344.5 455.5 361.5 c 128
 462.5 378.5 471.333333333 393.333333333 482 406 c 128
 492.666666667 418.666666667 506.333333333 427.333333333 523 432 c 0
 537.666666667 436 552 438.666666667 566 440 c 128
 580 441.333333333 593.333333333 442.333333333 606 443 c 0
EndSplineSet
Ligature2: "'ccmp' Precomposed Glyphs-1" uni1C82 uni0443
EndChar

StartChar: uni0475
Encoding: 1141 1141 45
Width: 481
Flags: HW
AnchorPoint: "Yerok" 376 557 basechar 0
AnchorPoint: "Diacritic" 221 556 basechar 0
LayerCount: 2
Fore
SplineSet
262 -1 m 1
 255.333333333 -1.66666666667 247.5 -2.16666666667 238.5 -2.5 c 128
 229.5 -2.83333333333 220 -3 210 -3 c 0
 198.666666667 -3 187.5 -2.83333333333 176.5 -2.5 c 128
 165.5 -2.16666666667 156.333333333 -1.33333333333 149 0 c 1
 149 14.6666666667 147.666666667 33.5 145 56.5 c 128
 142.333333333 79.5 138.833333333 104.666666667 134.5 132 c 128
 130.166666667 159.333333333 125 187.5 119 216.5 c 128
 113 245.5 106.166666667 273.5 98.5 300.5 c 128
 90.8333333333 327.5 82.8333333333 352.166666667 74.5 374.5 c 128
 66.1666666667 396.833333333 57.3333333333 415 48 429 c 0
 48 430.333333333 48.1666666667 432 48.5 434 c 128
 48.8333333333 436 50 437 52 437 c 0
 58.6666666667 437.666666667 66.3333333333 438.166666667 75 438.5 c 128
 83.6666666667 438.833333333 92.6666666667 439 102 439 c 256
 111.333333333 439 120.833333333 438.833333333 130.5 438.5 c 128
 140.166666667 438.166666667 149.333333333 437.666666667 158 437 c 1
 166 419 173.333333333 397.666666667 180 373 c 128
 186.666666667 348.333333333 192.833333333 322.333333333 198.5 295 c 128
 204.166666667 267.666666667 209.333333333 239.666666667 214 211 c 128
 218.666666667 182.333333333 223 155 227 129 c 0
 228.333333333 121.666666667 230 113.333333333 232 104 c 128
 234 94.6666666667 236.666666667 85 240 75 c 1
 242 97.6666666667 244.666666667 119.5 248 140.5 c 128
 251.333333333 161.5 255.666666667 184.666666667 261 210 c 0
 264.333333333 223.333333333 268 238.333333333 272 255 c 128
 276 271.666666667 281.333333333 288.666666667 288 306 c 0
 296 328 305 349 315 369 c 128
 325 389 335.666666667 403.333333333 347 412 c 0
 355 418 362.333333333 422.833333333 369 426.5 c 128
 375.666666667 430.166666667 382.5 433 389.5 435 c 128
 396.5 437 404 438.333333333 412 439 c 128
 420 439.666666667 429.333333333 440 440 440 c 0
 443.333333333 440 448 439.666666667 454 439 c 128
 460 438.333333333 464.666666667 437.666666667 468 437 c 0
 468 435.666666667 467.833333333 434 467.5 432 c 128
 467.166666667 430 466.333333333 428.333333333 465 427 c 0
 454.333333333 419.666666667 446 409.666666667 440 397 c 128
 434 384.333333333 431 371.333333333 431 358 c 0
 431 350.666666667 431.666666667 343.5 433 336.5 c 128
 434.333333333 329.5 435.666666667 322.666666667 437 316 c 0
 437 310.666666667 434.666666667 308 430 308 c 0
 414.666666667 318 401.333333333 326.5 390 333.5 c 128
 378.666666667 340.5 367.333333333 345.666666667 356 349 c 1
 348.666666667 348.333333333 340.666666667 343.833333333 332 335.5 c 128
 323.333333333 327.166666667 315.333333333 314.666666667 308 298 c 0
 302 281.333333333 296.333333333 265.166666667 291 249.5 c 128
 285.666666667 233.833333333 281.666666667 219.333333333 279 206 c 0
 275.666666667 189.333333333 272.666666667 173.833333333 270 159.5 c 128
 267.333333333 145.166666667 265.166666667 131 263.5 117 c 128
 261.833333333 103 260.333333333 88.6666666667 259 74 c 128
 257.666666667 59.3333333333 256.333333333 43.6666666667 255 27 c 0
 256.333333333 23.6666666667 257.5 20.5 258.5 17.5 c 128
 259.5 14.5 260.666666667 11.6666666667 262 9 c 2
 262 -1 l 1
 262 -1 l 1
EndSplineSet
EndChar

StartChar: uni0461
Encoding: 1121 1121 46
Width: 670
Flags: HW
AnchorPoint: "Yerok" 546 557 basechar 0
AnchorPoint: "Diacritic" 351 556 basechar 0
LayerCount: 2
Fore
SplineSet
295 426 m 1
 313 427.333333333 332.833333333 429.666666667 354.5 433 c 128
 376.166666667 436.333333333 397.666666667 440.666666667 419 446 c 0
 421 446 422.333333333 445.333333333 423 444 c 128
 423.666666667 442.666666667 424 441.333333333 424 440 c 0
 420 428 415.5 415.833333333 410.5 403.5 c 128
 405.5 391.166666667 400.333333333 380.333333333 395 371 c 0
 391.666666667 359.666666667 389.333333333 348.333333333 388 337 c 128
 386.666666667 325.666666667 386 311.333333333 386 294 c 0
 386 271.333333333 388.666666667 248.833333333 394 226.5 c 128
 399.333333333 204.166666667 406.666666667 183.166666667 416 163.5 c 128
 425.333333333 143.833333333 436.333333333 126.166666667 449 110.5 c 128
 461.666666667 94.8333333333 475.666666667 82.3333333333 491 73 c 1
 509.666666667 90.3333333333 522.666666667 113 530 141 c 128
 537.333333333 169 541 199.666666667 541 233 c 0
 541 272.333333333 535.5 305.666666667 524.5 333 c 128
 513.5 360.333333333 502 383 490 401 c 0
 488.666666667 403 488 404.833333333 488 406.5 c 128
 488 409 488 409 488 411 c 0
 506 414.333333333 525 419.333333333 545 426 c 128
 565 432.666666667 583.666666667 439.333333333 601 446 c 1
 616.333333333 407.333333333 624 362.666666667 624 312 c 0
 624 290 622.666666667 270.166666667 620 252.5 c 128
 617.333333333 234.833333333 613.166666667 217.833333333 607.5 201.5 c 128
 601.833333333 185.166666667 594.833333333 168.833333333 586.5 152.5 c 128
 578.166666667 136.166666667 568 119 556 101 c 0
 540 75.6666666667 524.666666667 54 510 36 c 128
 495.333333333 18 479.666666667 2.66666666667 463 -10 c 0
 459.666666667 -10 457.333333333 -9.66666666667 456 -9 c 0
 430 7 407.666666667 24.6666666667 389 44 c 128
 370.333333333 63.3333333333 351.333333333 88.3333333333 332 119 c 1
 320.666666667 107.666666667 308.5 95.8333333333 295.5 83.5 c 128
 282.5 71.1666666667 269 59.1666666667 255 47.5 c 128
 241 35.8333333333 227.333333333 25 214 15 c 128
 200.666666667 5 188.333333333 -3.33333333333 177 -10 c 0
 175 -10 175 -10 173 -10 c 128
 171.666666667 -10 170.333333333 -9.66666666667 169 -9 c 0
 155 3 141.333333333 19.3333333333 128 40 c 128
 114.666666667 60.6666666667 103 84 93 110 c 128
 83 136 74.8333333333 164 68.5 194 c 128
 62.1666666667 224 59 254.666666667 59 286 c 0
 59 314.666666667 61.8333333333 342 67.5 368 c 128
 73.1666666667 394 78.6666666667 414.666666667 84 430 c 1
 100.666666667 431.333333333 119.166666667 433.333333333 139.5 436 c 128
 159.833333333 438.666666667 180.666666667 442 202 446 c 0
 204.666666667 446 206 444 206 440 c 0
 202.666666667 434 198.833333333 427.333333333 194.5 420 c 128
 190.166666667 412.666666667 186 406.333333333 182 401 c 0
 174.666666667 384.333333333 168.666666667 365.5 164 344.5 c 128
 159.333333333 323.5 157 302.333333333 157 281 c 0
 157 258.333333333 159.5 235.166666667 164.5 211.5 c 128
 169.5 187.833333333 175.833333333 165.666666667 183.5 145 c 128
 191.166666667 124.333333333 199.666666667 106.5 209 91.5 c 128
 218.333333333 76.5 227.666666667 66.6666666667 237 62 c 1
 248.333333333 68.6666666667 262.166666667 79 278.5 93 c 128
 294.833333333 107 309.666666667 120.666666667 323 134 c 1
 309.666666667 160 299.333333333 188.333333333 292 219 c 128
 284.666666667 249.666666667 281 283.333333333 281 320 c 0
 281 341.333333333 282.5 362.333333333 285.5 383 c 128
 288.5 403.666666667 291.666666667 418 295 426 c 1
EndSplineSet
EndChar

StartChar: uni046F
Encoding: 1135 1135 47
Width: 478
Flags: HW
AnchorPoint: "Yerok" 265 698 basechar 0
AnchorPoint: "Diacritic" 263 698 basechar 0
LayerCount: 2
Fore
SplineSet
263 -130 m 0
 255.666666667 -132 248.833333333 -134.166666667 242.5 -136.5 c 128
 236.166666667 -138.833333333 228.666666667 -141.666666667 220 -145 c 0
 204.666666667 -151.666666667 190.833333333 -158.5 178.5 -165.5 c 128
 166.166666667 -172.5 151.666666667 -176 135 -176 c 0
 125.666666667 -176 117.833333333 -175.333333333 111.5 -174 c 128
 105.166666667 -172.666666667 98.3333333333 -171.333333333 91 -170 c 1
 77.6666666667 -161.333333333 66.6666666667 -148.5 58 -131.5 c 128
 49.3333333333 -114.5 45 -95.6666666667 45 -75 c 0
 45 -56.3333333333 48.6666666667 -40.6666666667 56 -28 c 128
 63.3333333333 -15.3333333333 72.8333333333 -5.16666666667 84.5 2.5 c 128
 96.1666666667 10.1666666667 109.666666667 15.5 125 18.5 c 128
 140.333333333 21.5 156 23 172 23 c 0
 183.333333333 23 193.5 22.6666666667 202.5 22 c 128
 211.5 21.3333333333 220 21 228 21 c 0
 248.666666667 21 268 26.5 286 37.5 c 128
 304 48.5 314.333333333 64 317 84 c 0
 318.333333333 90.6666666667 319 96.5 319 101.5 c 128
 319 109 319 109 319 117 c 0
 319 124 319 124 319 130.5 c 128
 319 134.833333333 318.333333333 139.333333333 317 144 c 0
 313 165.333333333 302.666666667 182 286 194 c 1
 278 193.333333333 269 192.833333333 259 192.5 c 128
 249 192.166666667 238.833333333 191.333333333 228.5 190 c 128
 218.166666667 188.666666667 208.333333333 186.5 199 183.5 c 128
 189.666666667 180.5 182 176.666666667 176 172 c 1
 171.333333333 160 167.5 148.166666667 164.5 136.5 c 128
 161.5 124.833333333 159.333333333 114.666666667 158 106 c 1
 144 102 127.5 98.6666666667 108.5 96 c 128
 89.5 93.3333333333 69.3333333333 92 48 92 c 1
 48 94 48 94 48 96.5 c 128
 48 98.1666666667 48.6666666667 99.6666666667 50 101 c 0
 55.3333333333 111 60.1666666667 119.666666667 64.5 127 c 128
 68.8333333333 134.333333333 73.3333333333 141.166666667 78 147.5 c 128
 82.6666666667 153.833333333 87.5 160.166666667 92.5 166.5 c 128
 97.5 172.833333333 103.666666667 180 111 188 c 0
 126.333333333 201.333333333 144.333333333 212.5 165 221.5 c 128
 185.666666667 230.5 207 236.333333333 229 239 c 1
 244.333333333 243.666666667 258.833333333 249 272.5 255 c 128
 286.166666667 261 297.666666667 268.333333333 307 277 c 1
 312.333333333 285.666666667 316 294 318 302 c 128
 320 310 321 319.666666667 321 331 c 0
 321 354.333333333 313.666666667 373.833333333 299 389.5 c 128
 284.333333333 405.166666667 266 413.666666667 244 415 c 0
 236 415 227.166666667 413.166666667 217.5 409.5 c 128
 207.833333333 405.833333333 198.666666667 401.333333333 190 396 c 1
 182 382.666666667 175.333333333 370.166666667 170 358.5 c 128
 164.666666667 346.833333333 160.666666667 336.333333333 158 327 c 0
 156.666666667 319.666666667 156 313.5 156 308.5 c 128
 156 301 156 301 156 293 c 1
 150 290.333333333 141.5 288.5 130.5 287.5 c 128
 119.5 286.5 108.333333333 286 97 286 c 0
 91 286 85.1666666667 286.166666667 79.5 286.5 c 128
 73.8333333333 286.833333333 68.3333333333 287.333333333 63 288 c 0
 62.3333333333 289.333333333 62 292.333333333 62 297 c 256
 62 301.666666667 62.3333333333 305.333333333 63 308 c 0
 63.6666666667 317.333333333 68.8333333333 328.166666667 78.5 340.5 c 128
 88.1666666667 352.833333333 99.8333333333 366 113.5 380 c 128
 127.166666667 394 142.166666667 408.333333333 158.5 423 c 128
 174.833333333 437.666666667 190.333333333 452.666666667 205 468 c 2
 220 483 l 1
 213.333333333 492.333333333 204.166666667 505.5 192.5 522.5 c 128
 180.833333333 539.5 169.5 556.166666667 158.5 572.5 c 128
 147.5 588.833333333 137.833333333 603.333333333 129.5 616 c 128
 121.166666667 628.666666667 117 635.333333333 117 636 c 0
 117 642.666666667 118 647 120 649 c 0
 123.333333333 649.666666667 127 650.166666667 131 650.5 c 128
 135 650.833333333 139.333333333 651 144 651 c 0
 156.666666667 651 169.833333333 650.666666667 183.5 650 c 128
 197.166666667 649.333333333 209.333333333 648 220 646 c 1
 222.666666667 641.333333333 226.833333333 634.5 232.5 625.5 c 128
 238.166666667 616.5 244.166666667 607 250.5 597 c 128
 256.833333333 587 262.833333333 577.666666667 268.5 569 c 128
 274.166666667 560.333333333 278.666666667 553.666666667 282 549 c 1
 300 568.333333333 317 586.5 333 603.5 c 128
 349 620.5 363.666666667 635.666666667 377 649 c 1
 382.333333333 650.333333333 386.833333333 651.333333333 390.5 652 c 128
 394.166666667 652.666666667 398.666666667 653 404 653 c 0
 408 653 410.5 651.333333333 411.5 648 c 128
 412.5 644.666666667 413 641.666666667 413 639 c 0
 401.666666667 628.333333333 388.833333333 615.833333333 374.5 601.5 c 128
 360.166666667 587.166666667 345.5 572.333333333 330.5 557 c 128
 315.5 541.666666667 300.666666667 526.333333333 286 511 c 128
 271.333333333 495.666666667 258 481.666666667 246 469 c 0
 239.333333333 461.666666667 233 454.5 227 447.5 c 128
 221 440.5 215.333333333 433.333333333 210 426 c 1
 222 430.666666667 235 434.5 249 437.5 c 128
 263 440.5 277.666666667 442 293 442 c 0
 310.333333333 442 326.5 440 341.5 436 c 128
 356.5 432 369 428.333333333 379 425 c 1
 392.333333333 414.333333333 401.333333333 402.166666667 406 388.5 c 128
 410.666666667 374.833333333 413 359.333333333 413 342 c 0
 413 320.666666667 407.5 300 396.5 280 c 128
 385.5 260 370.666666667 242 352 226 c 1
 358.666666667 220.666666667 365.833333333 214.166666667 373.5 206.5 c 128
 381.166666667 198.833333333 388.333333333 189.666666667 395 179 c 128
 401.666666667 168.333333333 407.166666667 156.5 411.5 143.5 c 128
 415.833333333 130.5 418 116.333333333 418 101 c 0
 418 71 409 45.6666666667 391 25 c 128
 373 4.33333333333 344 -6 304 -6 c 0
 294.666666667 -6 286 -5.5 278 -4.5 c 128
 270 -3.5 261.833333333 -2.33333333333 253.5 -1 c 128
 245.166666667 0.333333333333 236.333333333 1.5 227 2.5 c 128
 217.666666667 3.5 207.333333333 4 196 4 c 0
 186 4 176.333333333 2.83333333333 167 0.5 c 128
 157.666666667 -1.83333333333 149.166666667 -5.5 141.5 -10.5 c 128
 133.833333333 -15.5 127.666666667 -21.6666666667 123 -29 c 128
 118.333333333 -36.3333333333 116 -45 116 -55 c 0
 116 -70.3333333333 119 -83 125 -93 c 128
 131 -103 138 -112.333333333 146 -121 c 0
 150.666666667 -123 156.666666667 -124.833333333 164 -126.5 c 128
 171.333333333 -128.166666667 179 -129 187 -129 c 0
 196.333333333 -129 204.833333333 -127.666666667 212.5 -125 c 128
 220.166666667 -122.333333333 228.666666667 -119 238 -115 c 0
 245.333333333 -111.666666667 251.666666667 -108.666666667 257 -106 c 128
 262.333333333 -103.333333333 267.666666667 -101 273 -99 c 128
 278.333333333 -97 284 -95.5 290 -94.5 c 128
 296 -93.5 303.333333333 -93 312 -93 c 0
 324 -93 336 -94.6666666667 348 -98 c 128
 360 -101.333333333 370.833333333 -106.166666667 380.5 -112.5 c 128
 390.166666667 -118.833333333 398.333333333 -126.666666667 405 -136 c 128
 411.666666667 -145.333333333 416 -156.333333333 418 -169 c 0
 418.666666667 -171.666666667 419 -174.333333333 419 -177 c 128
 419 -181 419 -181 419 -185 c 1
 402.333333333 -185 385.166666667 -184.5 367.5 -183.5 c 128
 349.833333333 -182.5 334.333333333 -180.333333333 321 -177 c 1
 314.333333333 -165 306.5 -154.166666667 297.5 -144.5 c 128
 288.5 -134.833333333 277 -130 263 -130 c 0
EndSplineSet
EndChar

StartChar: uni0477
Encoding: 1143 1143 48
Width: 481
Flags: HW
AnchorPoint: "Yerok" 219 797 basechar 0
AnchorPoint: "Diacritic" 221 796 basechar 0
LayerCount: 2
Fore
SplineSet
394 693 m 1
 468 564 l 2
 468 562.666666667 467.833333333 560.833333333 467.5 558.5 c 128
 467.166666667 556.166666667 466 555 464 555 c 2
 390 555 l 1
 316 684 l 2
 316 685.333333333 316.166666667 687.166666667 316.5 689.5 c 128
 316.833333333 691.833333333 318 693 320 693 c 2
 394 693 l 1
222 693 m 1
 296 564 l 2
 296 562.666666667 295.833333333 560.833333333 295.5 558.5 c 128
 295.166666667 556.166666667 294 555 292 555 c 2
 218 555 l 1
 144 684 l 2
 144 685.333333333 144.166666667 687.166666667 144.5 689.5 c 128
 144.833333333 691.833333333 146 693 148 693 c 2
 222 693 l 1
262 -1 m 1
 255.333333333 -1.66666666667 247.5 -2.16666666667 238.5 -2.5 c 128
 229.5 -2.83333333333 220 -3 210 -3 c 0
 198.666666667 -3 187.5 -2.83333333333 176.5 -2.5 c 128
 165.5 -2.16666666667 156.333333333 -1.33333333333 149 0 c 1
 149 14.6666666667 147.666666667 33.5 145 56.5 c 128
 142.333333333 79.5 138.833333333 104.666666667 134.5 132 c 128
 130.166666667 159.333333333 125 187.5 119 216.5 c 128
 113 245.5 106.166666667 273.5 98.5 300.5 c 128
 90.8333333333 327.5 82.8333333333 352.166666667 74.5 374.5 c 128
 66.1666666667 396.833333333 57.3333333333 415 48 429 c 0
 48 430.333333333 48.1666666667 432 48.5 434 c 128
 48.8333333333 436 50 437 52 437 c 0
 58.6666666667 437.666666667 66.3333333333 438.166666667 75 438.5 c 128
 83.6666666667 438.833333333 92.6666666667 439 102 439 c 256
 111.333333333 439 120.833333333 438.833333333 130.5 438.5 c 128
 140.166666667 438.166666667 149.333333333 437.666666667 158 437 c 1
 166 419 173.333333333 397.666666667 180 373 c 128
 186.666666667 348.333333333 192.833333333 322.333333333 198.5 295 c 128
 204.166666667 267.666666667 209.333333333 239.666666667 214 211 c 128
 218.666666667 182.333333333 223 155 227 129 c 0
 228.333333333 121.666666667 230 113.333333333 232 104 c 128
 234 94.6666666667 236.666666667 85 240 75 c 1
 242 97.6666666667 244.666666667 119.5 248 140.5 c 128
 251.333333333 161.5 255.666666667 184.666666667 261 210 c 0
 264.333333333 223.333333333 268 238.333333333 272 255 c 128
 276 271.666666667 281.333333333 288.666666667 288 306 c 0
 296 328 305 349 315 369 c 128
 325 389 335.666666667 403.333333333 347 412 c 0
 355 418 362.333333333 422.833333333 369 426.5 c 128
 375.666666667 430.166666667 382.5 433 389.5 435 c 128
 396.5 437 404 438.333333333 412 439 c 128
 420 439.666666667 429.333333333 440 440 440 c 0
 443.333333333 440 448 439.666666667 454 439 c 128
 460 438.333333333 464.666666667 437.666666667 468 437 c 0
 468 435.666666667 467.833333333 434 467.5 432 c 128
 467.166666667 430 466.333333333 428.333333333 465 427 c 0
 454.333333333 419.666666667 446 409.666666667 440 397 c 128
 434 384.333333333 431 371.333333333 431 358 c 0
 431 350.666666667 431.666666667 343.5 433 336.5 c 128
 434.333333333 329.5 435.666666667 322.666666667 437 316 c 0
 437 310.666666667 434.666666667 308 430 308 c 0
 414.666666667 318 401.333333333 326.5 390 333.5 c 128
 378.666666667 340.5 367.333333333 345.666666667 356 349 c 1
 348.666666667 348.333333333 340.666666667 343.833333333 332 335.5 c 128
 323.333333333 327.166666667 315.333333333 314.666666667 308 298 c 0
 302 281.333333333 296.333333333 265.166666667 291 249.5 c 128
 285.666666667 233.833333333 281.666666667 219.333333333 279 206 c 0
 275.666666667 189.333333333 272.666666667 173.833333333 270 159.5 c 128
 267.333333333 145.166666667 265.166666667 131 263.5 117 c 128
 261.833333333 103 260.333333333 88.6666666667 259 74 c 128
 257.666666667 59.3333333333 256.333333333 43.6666666667 255 27 c 0
 256.333333333 23.6666666667 257.5 20.5 258.5 17.5 c 128
 259.5 14.5 260.666666667 11.6666666667 262 9 c 2
 262 -1 l 1
 262 -1 l 1
EndSplineSet
Ligature2: "'ccmp' Precomposed Glyphs-1" uni0475 uni030F
EndChar

StartChar: uni0467
Encoding: 1127 1127 49
Width: 613
Flags: HW
AnchorPoint: "Yerok" 486 557 basechar 0
AnchorPoint: "Diacritic" 281 556 basechar 0
LayerCount: 2
Fore
SplineSet
350 0 m 1
 334.666666667 -2 317.666666667 -3 299 -3 c 0
 289.666666667 -3 280.666666667 -2.83333333333 272 -2.5 c 128
 263.333333333 -2.16666666667 255.666666667 -1.33333333333 249 0 c 1
 249 14.6666666667 249.333333333 32 250 52 c 128
 250.666666667 72 251.5 92.1666666667 252.5 112.5 c 128
 253.5 132.833333333 254.5 152.666666667 255.5 172 c 128
 256.5 191.333333333 257.333333333 208 258 222 c 1
 225 222 l 1
 207.666666667 192 192.833333333 162.5 180.5 133.5 c 128
 168.166666667 104.5 159.333333333 71.3333333333 154 34 c 0
 153.333333333 32.6666666667 153 30.8333333333 153 28.5 c 128
 153 25 153 25 153 23 c 0
 153 18.3333333333 153.333333333 14.1666666667 154 10.5 c 128
 154.666666667 6.83333333333 155 3.33333333333 155 0 c 1
 143 -2 127.333333333 -3 108 -3 c 0
 85.3333333333 -3 65.6666666667 -2 49 0 c 1
 51 21.3333333333 55.8333333333 41.1666666667 63.5 59.5 c 128
 71.1666666667 77.8333333333 81.6666666667 97.6666666667 95 119 c 0
 104.333333333 133.666666667 113.666666667 146.833333333 123 158.5 c 128
 132.333333333 170.166666667 142 181.333333333 152 192 c 128
 162 202.666666667 172.5 213.5 183.5 224.5 c 128
 194.5 235.5 206 248 218 262 c 0
 232 278 244 292.5 254 305.5 c 128
 264 318.5 272.666666667 331.333333333 280 344 c 1
 270 357.333333333 261.166666667 370.333333333 253.5 383 c 128
 245.833333333 395.666666667 240.333333333 405.666666667 237 413 c 0
 235 417 232.666666667 421 230 425 c 128
 227.333333333 429 224 432.666666667 220 436 c 1
 220 440 220.666666667 443 222 445 c 0
 229.333333333 445 239.166666667 444.833333333 251.5 444.5 c 128
 263.833333333 444.166666667 276.833333333 443.5 290.5 442.5 c 128
 304.166666667 441.5 317.666666667 440.5 331 439.5 c 128
 344.333333333 438.5 355.666666667 437.666666667 365 437 c 1
 363.666666667 427.666666667 362.833333333 421 362.5 417 c 128
 362.166666667 413 361 407 359 399 c 1
 365.666666667 377.666666667 375.166666667 356.833333333 387.5 336.5 c 128
 399.833333333 316.166666667 413.333333333 296.333333333 428 277 c 0
 449.333333333 249 469 221.666666667 487 195 c 128
 505 168.333333333 521.666666667 138 537 104 c 0
 545.666666667 84.6666666667 552.5 66.3333333333 557.5 49 c 128
 562.5 31.6666666667 565 15.3333333333 565 0 c 1
 557.666666667 -1.33333333333 549.5 -2.16666666667 540.5 -2.5 c 128
 531.5 -2.83333333333 522.333333333 -3 513 -3 c 256
 503.666666667 -3 494.333333333 -2.83333333333 485 -2.5 c 128
 475.666666667 -2.16666666667 467.333333333 -1.33333333333 460 0 c 1
 460 6 459.833333333 11.3333333333 459.5 16 c 128
 459.166666667 20.6666666667 458.333333333 25.6666666667 457 31 c 0
 455 43.6666666667 451.833333333 56.5 447.5 69.5 c 128
 443.166666667 82.5 438 96.3333333333 432 111 c 0
 423.333333333 131 414 149.666666667 404 167 c 128
 394 184.333333333 382.333333333 202.666666667 369 222 c 1
 346 222 l 1
 346.666666667 205.333333333 347.166666667 186.5 347.5 165.5 c 128
 348 134 348 134 348.5 102.5 c 128
 348.833333333 81.5 349.166666667 61.8333333333 349.5 43.5 c 128
 349.833333333 25.1666666667 350 10.6666666667 350 0 c 1
293 325 m 1
 282.333333333 313.666666667 272.666666667 301 264 287 c 128
 255.333333333 273 245.666666667 257.333333333 235 240 c 1
 356 240 l 1
 345.333333333 253.333333333 334.666666667 267.333333333 324 282 c 128
 313.333333333 296.666666667 303 311 293 325 c 1
EndSplineSet
EndChar

StartChar: uniA64B0311
Encoding: 59621 59621 50
Width: 407
Flags: HW
AnchorPoint: "Yerok" 196 757 basechar 0
AnchorPoint: "Diacritic" 195 756 basechar 0
LayerCount: 2
Fore
SplineSet
209 -10 m 0
 187.666666667 -10 167.833333333 -8.16666666667 149.5 -4.5 c 128
 131.166666667 -0.833333333333 115.166666667 5 101.5 13 c 128
 87.8333333333 21 77.1666666667 31.5 69.5 44.5 c 128
 61.8333333333 57.5 58 73.6666666667 58 93 c 0
 58 114.333333333 61.6666666667 132.833333333 69 148.5 c 128
 76.3333333333 164.166666667 87.3333333333 179.666666667 102 195 c 0
 115.333333333 209.666666667 127.333333333 221.166666667 138 229.5 c 128
 148.666666667 237.833333333 159.666666667 247.666666667 171 259 c 1
 157.666666667 277.666666667 145 295.5 133 312.5 c 128
 121 329.5 110 345.666666667 100 361 c 0
 94 370.333333333 87.3333333333 381 80 393 c 128
 72.6666666667 405 66 417 60 429 c 0
 60 432.333333333 60.1666666667 434.5 60.5 435.5 c 128
 60.8333333333 436.5 62.6666666667 437 66 437 c 2
 162 437 l 1
 170 423 178.166666667 409.333333333 186.5 396 c 128
 194.833333333 382.666666667 202 371.333333333 208 362 c 0
 211.333333333 357.333333333 214.833333333 352.166666667 218.5 346.5 c 128
 222.166666667 340.833333333 226.333333333 335 231 329 c 1
 244.333333333 345 257 361.666666667 269 379 c 128
 281 396.333333333 292.666666667 415.666666667 304 437 c 1
 337 437 l 2
 339.666666667 437 341.166666667 436 341.5 434 c 128
 341.833333333 432 342 430.333333333 342 429 c 0
 328.666666667 407.666666667 314.166666667 387.5 298.5 368.5 c 128
 282.833333333 349.5 266.333333333 329 249 307 c 1
 257.666666667 295.666666667 266 284.666666667 274 274 c 128
 282 263.333333333 288.666666667 254 294 246 c 0
 310 220.666666667 322.666666667 196.833333333 332 174.5 c 128
 341.333333333 152.166666667 346 126.333333333 346 97 c 0
 346 77.6666666667 342.5 61.1666666667 335.5 47.5 c 128
 328.5 33.8333333333 319 22.6666666667 307 14 c 128
 295 5.33333333333 280.666666667 -0.833333333333 264 -4.5 c 128
 247.333333333 -8.16666666667 229 -10 209 -10 c 0
146 175 m 0
 138.666666667 163.666666667 131.833333333 150 125.5 134 c 128
 119.166666667 118 116 100.666666667 116 82 c 0
 116 62 121.5 44.6666666667 132.5 30 c 128
 143.5 15.3333333333 160.666666667 8 184 8 c 0
 200 8 212.666666667 10.5 222 15.5 c 128
 231.333333333 20.5 238.666666667 27.1666666667 244 35.5 c 128
 249.333333333 43.8333333333 252.833333333 53.5 254.5 64.5 c 128
 256.166666667 75.5 257.333333333 86.6666666667 258 98 c 0
 256 113.333333333 252.5 126.833333333 247.5 138.5 c 128
 242.5 150.166666667 235.333333333 164.333333333 226 181 c 0
 220 191 214.333333333 199.833333333 209 207.5 c 128
 203.666666667 215.166666667 197.333333333 223.666666667 190 233 c 1
 181.333333333 221.666666667 173.166666667 211.166666667 165.5 201.5 c 128
 157.833333333 191.833333333 151.333333333 183 146 175 c 0
314 557 m 1
 268 557 l 1
 268 583 l 2
 268 605 261.166666667 622.166666667 247.5 634.5 c 128
 233.833333333 646.833333333 217 653 197 653 c 256
 177 653 160.166666667 646.666666667 146.5 634 c 128
 132.833333333 621.333333333 126 604.333333333 126 583 c 2
 126 557 l 1
 80 557 l 1
 80 583 l 2
 80 599 83.1666666667 614 89.5 628 c 128
 95.8333333333 642 104.166666667 654.333333333 114.5 665 c 128
 124.833333333 675.666666667 137.166666667 684 151.5 690 c 128
 165.833333333 696 181 699 197 699 c 256
 213 699 228.166666667 696 242.5 690 c 128
 256.833333333 684 269.166666667 675.666666667 279.5 665 c 128
 289.833333333 654.333333333 298.166666667 642 304.5 628 c 128
 310.833333333 614 314 599 314 583 c 2
 314 557 l 1
EndSplineSet
Ligature2: "'ccmp' Precomposed Glyphs-1" uniA64B uni0311
EndChar

StartChar: quotesinglbase
Encoding: 8218 8218 51
Width: 199
Flags: HW
LayerCount: 2
Fore
SplineSet
170 -43 m 0
 165.333333333 -55.6666666667 159 -67.6666666667 151 -79 c 128
 143 -90.3333333333 134.333333333 -100.833333333 125 -110.5 c 128
 115.666666667 -120.166666667 106 -129 96 -137 c 128
 86 -145 76.3333333333 -152 67 -158 c 0
 65 -160 63.1666666667 -160 61.5 -158 c 128
 59.8333333333 -156 60.6666666667 -152.333333333 64 -147 c 0
 81.3333333333 -125.666666667 96.3333333333 -103.166666667 109 -79.5 c 128
 121.666666667 -55.8333333333 128 -33.3333333333 128 -12 c 0
 128 6 122.666666667 21.6666666667 112 35 c 0
 107.333333333 41 101 44.5 93 45.5 c 128
 85 46.5 76.5 45.5 67.5 42.5 c 128
 58.5 39.5 49.6666666667 35 41 29 c 128
 32.3333333333 23 25 16 19 8 c 0
 16.3333333333 4.66666666667 13.8333333333 3.83333333333 11.5 5.5 c 128
 9.16666666667 7.16666666667 8.66666666667 9.66666666667 10 13 c 0
 16.6666666667 29 25.5 44.5 36.5 59.5 c 128
 47.5 74.5 59 87.1666666667 71 97.5 c 128
 83 107.833333333 95.3333333333 115.166666667 108 119.5 c 128
 120.666666667 123.833333333 132 124 142 120 c 0
 155.333333333 114 165.5 102.666666667 172.5 86 c 128
 179.5 69.3333333333 183 50.3333333333 183 29 c 0
 183 4.33333333333 178.666666667 -19.6666666667 170 -43 c 0
EndSplineSet
EndChar

StartChar: quotedblbase
Encoding: 8222 8222 52
Width: 393
Flags: HW
LayerCount: 2
Fore
SplineSet
362 -43 m 0
 357.333333333 -55.6666666667 351 -67.6666666667 343 -79 c 128
 335 -90.3333333333 326.333333333 -100.833333333 317 -110.5 c 128
 307.666666667 -120.166666667 298 -129 288 -137 c 128
 278 -145 268.333333333 -152 259 -158 c 0
 257 -160 255 -160 253 -158 c 128
 251 -156 252 -152.666666667 256 -148 c 0
 273.333333333 -126 288.333333333 -103.166666667 301 -79.5 c 128
 313.666666667 -55.8333333333 320 -33.3333333333 320 -12 c 0
 320 6 314.666666667 21.6666666667 304 35 c 0
 299.333333333 41 293 44.5 285 45.5 c 128
 277 46.5 268.5 45.5 259.5 42.5 c 128
 250.5 39.5 241.5 35 232.5 29 c 128
 223.5 23 216 16 210 8 c 0
 208 4.66666666667 205.666666667 3.83333333333 203 5.5 c 128
 200.333333333 7.16666666667 200 9.66666666667 202 13 c 0
 208.666666667 29 217.5 44.5 228.5 59.5 c 128
 239.5 74.5 251.166666667 87.1666666667 263.5 97.5 c 128
 275.833333333 107.833333333 288.166666667 115.166666667 300.5 119.5 c 128
 312.833333333 123.833333333 324.333333333 123.666666667 335 119 c 0
 348.333333333 113.666666667 358.333333333 102.833333333 365 86.5 c 128
 371.666666667 70.1666666667 375 51.3333333333 375 30 c 0
 375 18.6666666667 374 6.66666666667 372 -6 c 128
 370 -18.6666666667 366.666666667 -31 362 -43 c 0
170 -43 m 0
 165.333333333 -55.6666666667 159 -67.6666666667 151 -79 c 128
 143 -90.3333333333 134.333333333 -100.833333333 125 -110.5 c 128
 115.666666667 -120.166666667 106 -129 96 -137 c 128
 86 -145 76.3333333333 -152 67 -158 c 0
 65 -160 63.1666666667 -160 61.5 -158 c 128
 59.8333333333 -156 60.6666666667 -152.333333333 64 -147 c 0
 81.3333333333 -125.666666667 96.3333333333 -103.166666667 109 -79.5 c 128
 121.666666667 -55.8333333333 128 -33.3333333333 128 -12 c 0
 128 6 122.666666667 21.6666666667 112 35 c 0
 107.333333333 41 101 44.5 93 45.5 c 128
 85 46.5 76.5 45.5 67.5 42.5 c 128
 58.5 39.5 49.6666666667 35 41 29 c 128
 32.3333333333 23 25 16 19 8 c 0
 16.3333333333 4.66666666667 13.8333333333 3.83333333333 11.5 5.5 c 128
 9.16666666667 7.16666666667 8.66666666667 9.66666666667 10 13 c 0
 16.6666666667 29 25.5 44.5 36.5 59.5 c 128
 47.5 74.5 59 87.1666666667 71 97.5 c 128
 83 107.833333333 95.3333333333 115.166666667 108 119.5 c 128
 120.666666667 123.833333333 132 124 142 120 c 0
 155.333333333 114 165.5 102.666666667 172.5 86 c 128
 179.5 69.3333333333 183 50.3333333333 183 29 c 0
 183 4.33333333333 178.666666667 -19.6666666667 170 -43 c 0
EndSplineSet
EndChar

StartChar: quoteleft
Encoding: 8216 8216 53
Width: 205
Flags: HW
LayerCount: 2
Fore
SplineSet
191 666 m 0
 183.666666667 650 174.666666667 634.666666667 164 620 c 128
 153.333333333 605.333333333 141.833333333 592.833333333 129.5 582.5 c 128
 117.166666667 572.166666667 104.833333333 564.833333333 92.5 560.5 c 128
 80.1666666667 556.166666667 68.6666666667 556 58 560 c 0
 44.6666666667 565.333333333 34.6666666667 575.833333333 28 591.5 c 128
 21.3333333333 607.166666667 18 625.666666667 18 647 c 0
 18 659 19 671.333333333 21 684 c 128
 23 696.666666667 26.6666666667 709.333333333 32 722 c 0
 36.6666666667 734.666666667 42.8333333333 746.833333333 50.5 758.5 c 128
 58.1666666667 770.166666667 66.6666666667 780.833333333 76 790.5 c 128
 85.3333333333 800.166666667 94.8333333333 809 104.5 817 c 128
 114.166666667 825 123.666666667 831.666666667 133 837 c 0
 135.666666667 839 138 839.166666667 140 837.5 c 128
 142 835.833333333 141.333333333 832.666666667 138 828 c 0
 120.666666667 805.333333333 105.666666667 782.333333333 93 759 c 128
 80.3333333333 735.666666667 74 713.333333333 74 692 c 0
 74 674 79.3333333333 658.333333333 90 645 c 0
 94.6666666667 639 100.833333333 635.5 108.5 634.5 c 128
 116.166666667 633.5 124.5 634.333333333 133.5 637 c 128
 142.5 639.666666667 151.5 643.833333333 160.5 649.5 c 128
 169.5 655.166666667 177 662 183 670 c 0
 185.666666667 673.333333333 188.333333333 674.333333333 191 673 c 128
 193.666666667 671.666666667 193.666666667 669.333333333 191 666 c 0
EndSplineSet
EndChar

StartChar: quoteright
Encoding: 8217 8217 54
Width: 199
Flags: HW
LayerCount: 2
Fore
SplineSet
174 567 m 0
 164 541.666666667 149 519 129 499 c 128
 109 479 90 463.666666667 72 453 c 0
 70 451.666666667 67.8333333333 451.666666667 65.5 453 c 128
 63.1666666667 454.333333333 64.3333333333 457.666666667 69 463 c 0
 86.3333333333 485.666666667 101.166666667 508.5 113.5 531.5 c 128
 125.833333333 554.5 132 576.666666667 132 598 c 0
 132 616.666666667 126.666666667 632.666666667 116 646 c 0
 111.333333333 651.333333333 105 654.5 97 655.5 c 128
 89 656.5 80.5 655.666666667 71.5 653 c 128
 62.5 650.333333333 53.6666666667 646 45 640 c 128
 36.3333333333 634 29 627 23 619 c 0
 21 615.666666667 18.5 614.833333333 15.5 616.5 c 128
 12.5 618.166666667 12 621 14 625 c 0
 21.3333333333 641 30.5 656.333333333 41.5 671 c 128
 52.5 685.666666667 64 698 76 708 c 128
 88 718 100.333333333 725.166666667 113 729.5 c 128
 125.666666667 733.833333333 137 734 147 730 c 0
 160.333333333 724 170.5 713 177.5 697 c 128
 184.5 681 188 662.333333333 188 641 c 0
 188 617.666666667 183.333333333 593 174 567 c 0
EndSplineSet
EndChar

StartChar: quotedblleft
Encoding: 8220 8220 55
Width: 392
Flags: HW
LayerCount: 2
Fore
SplineSet
391 666 m 0
 383.666666667 650 374.666666667 634.666666667 364 620 c 128
 353.333333333 605.333333333 341.833333333 592.833333333 329.5 582.5 c 128
 317.166666667 572.166666667 304.833333333 564.833333333 292.5 560.5 c 128
 280.166666667 556.166666667 268.666666667 556 258 560 c 0
 244.666666667 565.333333333 234.5 576.333333333 227.5 593 c 128
 220.5 609.666666667 217 628.666666667 217 650 c 0
 217 674.666666667 221.333333333 698.666666667 230 722 c 0
 234.666666667 734.666666667 241 746.833333333 249 758.5 c 128
 257 770.166666667 265.666666667 780.833333333 275 790.5 c 128
 284.333333333 800.166666667 294 809 304 817 c 128
 314 825 323.666666667 831.666666667 333 837 c 0
 335.666666667 839 337.833333333 839.166666667 339.5 837.5 c 128
 341.166666667 835.833333333 340 832.666666667 336 828 c 0
 318.666666667 805.333333333 303.666666667 782.5 291 759.5 c 128
 278.333333333 736.5 272 714.333333333 272 693 c 0
 272 674.333333333 277.666666667 658.333333333 289 645 c 0
 293.666666667 639 300 635.5 308 634.5 c 128
 316 633.5 324.5 634.333333333 333.5 637 c 128
 342.5 639.666666667 351.333333333 643.833333333 360 649.5 c 128
 368.666666667 655.166666667 376 662 382 670 c 0
 384.666666667 673.333333333 387.166666667 674.333333333 389.5 673 c 128
 391.833333333 671.666666667 392.333333333 669.333333333 391 666 c 0
185 666 m 0
 177.666666667 650 168.666666667 634.666666667 158 620 c 128
 147.333333333 605.333333333 135.833333333 592.833333333 123.5 582.5 c 128
 111.166666667 572.166666667 98.8333333333 564.833333333 86.5 560.5 c 128
 74.1666666667 556.166666667 63 556 53 560 c 0
 39.6666666667 565.333333333 29.5 576 22.5 592 c 128
 15.5 608 12 626.666666667 12 648 c 0
 12 671.333333333 16.6666666667 696 26 722 c 0
 30.6666666667 734.666666667 36.8333333333 746.833333333 44.5 758.5 c 128
 52.1666666667 770.166666667 60.6666666667 780.833333333 70 790.5 c 128
 79.3333333333 800.166666667 88.8333333333 809 98.5 817 c 128
 108.166666667 825 117.666666667 831.666666667 127 837 c 0
 129.666666667 839 132.166666667 839.166666667 134.5 837.5 c 128
 136.833333333 835.833333333 136 832.666666667 132 828 c 0
 114.666666667 806 99.6666666667 783.333333333 87 760 c 128
 74.3333333333 736.666666667 68 714.333333333 68 693 c 0
 68 674.333333333 73.6666666667 658.333333333 85 645 c 0
 89.6666666667 639 95.8333333333 635.5 103.5 634.5 c 128
 111.166666667 633.5 119.5 634.333333333 128.5 637 c 128
 137.5 639.666666667 146.333333333 643.833333333 155 649.5 c 128
 163.666666667 655.166666667 171.333333333 662 178 670 c 0
 180.666666667 673.333333333 183.166666667 674.333333333 185.5 673 c 128
 187.833333333 671.666666667 187.666666667 669.333333333 185 666 c 0
EndSplineSet
EndChar

StartChar: quotedblright
Encoding: 8221 8221 56
Width: 404
Flags: HW
LayerCount: 2
Fore
SplineSet
380 567 m 0
 370 541.666666667 355 519 335 499 c 128
 315 479 296 463.666666667 278 453 c 0
 275.333333333 451.666666667 273 451.666666667 271 453 c 128
 269 454.333333333 270 457.666666667 274 463 c 0
 291.333333333 485 306.333333333 507.666666667 319 531 c 128
 331.666666667 554.333333333 338 576.666666667 338 598 c 0
 338 616.666666667 332.333333333 632.666666667 321 646 c 0
 316.333333333 651.333333333 310 654.5 302 655.5 c 128
 294 656.5 285.5 655.666666667 276.5 653 c 128
 267.5 650.333333333 258.666666667 646 250 640 c 128
 241.333333333 634 234 627 228 619 c 0
 225.333333333 615.666666667 222.666666667 614.833333333 220 616.5 c 128
 217.333333333 618.166666667 217.333333333 621 220 625 c 0
 226.666666667 641 235.5 656.333333333 246.5 671 c 128
 257.5 685.666666667 269.166666667 698 281.5 708 c 128
 293.833333333 718 306.166666667 725.166666667 318.5 729.5 c 128
 330.833333333 733.833333333 342 734 352 730 c 0
 365.333333333 724 375.666666667 713 383 697 c 128
 390.333333333 681 394 662.333333333 394 641 c 0
 394 617.666666667 389.333333333 593 380 567 c 0
174 567 m 0
 164 541.666666667 149 519 129 499 c 128
 109 479 90 463.666666667 72 453 c 0
 70 451.666666667 67.8333333333 451.666666667 65.5 453 c 128
 63.1666666667 454.333333333 64.3333333333 457.666666667 69 463 c 0
 86.3333333333 485.666666667 101.166666667 508.5 113.5 531.5 c 128
 125.833333333 554.5 132 576.666666667 132 598 c 0
 132 616.666666667 126.666666667 632.666666667 116 646 c 0
 111.333333333 651.333333333 105 654.5 97 655.5 c 128
 89 656.5 80.5 655.666666667 71.5 653 c 128
 62.5 650.333333333 53.6666666667 646 45 640 c 128
 36.3333333333 634 29 627 23 619 c 0
 21 615.666666667 18.5 614.833333333 15.5 616.5 c 128
 12.5 618.166666667 12 621 14 625 c 0
 21.3333333333 641 30.5 656.333333333 41.5 671 c 128
 52.5 685.666666667 64 698 76 708 c 128
 88 718 100.333333333 725.166666667 113 729.5 c 128
 125.666666667 733.833333333 137 734 147 730 c 0
 160.333333333 724 170.5 713 177.5 697 c 128
 184.5 681 188 662.333333333 188 641 c 0
 188 617.666666667 183.333333333 593 174 567 c 0
EndSplineSet
EndChar

StartChar: uni2DE4
Encoding: 11748 11748 57
Width: 1
Flags: HW
AnchorPoint: "Stacking" -190 911 basemark 0
AnchorPoint: "Stacking" -191 552 mark 0
AnchorPoint: "Diacritic" -191 553 mark 0
LayerCount: 2
Fore
SplineSet
31 743 m 0
 46.3333333333 743 60.3333333333 740.333333333 73 735 c 128
 85.6666666667 729.666666667 95.6666666667 722.333333333 103 713 c 0
 103 709 101.666666667 705 99 701 c 0
 86.3333333333 693 72.1666666667 686 56.5 680 c 128
 40.8333333333 674 25.6666666667 668.333333333 11 663 c 1
 1 663 l 1
 -8.33333333333 668.333333333 -15.3333333333 672 -20 674 c 128
 -24.6666666667 676 -30.6666666667 678 -38 680 c 1
 -51.3333333333 678.666666667 -64.5 675.333333333 -77.5 670 c 128
 -90.5 664.666666667 -100.666666667 660.333333333 -108 657 c 0
 -114 653.666666667 -119.833333333 650.333333333 -125.5 647 c 128
 -131.166666667 643.666666667 -137 640.333333333 -143 637 c 1
 -143 632 l 1
 -131.666666667 628 -120.666666667 624.166666667 -110 620.5 c 128
 -99.3333333333 616.833333333 -87.3333333333 613.333333333 -74 610 c 256
 -60.6666666667 606.666666667 -47.8333333333 603.666666667 -35.5 601 c 128
 -23.1666666667 598.333333333 -12.3333333333 597 -3 597 c 0
 3.66666666667 597 10.3333333333 597.666666667 17 599 c 0
 19.6666666667 600.333333333 23 603.5 27 608.5 c 128
 33 616 33 616 37 621 c 1
 41.6666666667 619.666666667 44.8333333333 618.333333333 46.5 617 c 128
 48.1666666667 615.666666667 50.6666666667 613 54 609 c 1
 48 595.666666667 39.8333333333 583.666666667 29.5 573 c 128
 19.1666666667 562.333333333 6.66666666667 553.333333333 -8 546 c 1
 -38.6666666667 547.333333333 -70.1666666667 552.166666667 -102.5 560.5 c 128
 -134.833333333 568.833333333 -170 579.666666667 -208 593 c 0
 -209.333333333 593 -210.333333333 593.333333333 -211 594 c 0
 -235.666666667 579.333333333 -261 566.833333333 -287 556.5 c 128
 -313 546.166666667 -338 540.666666667 -362 540 c 1
 -363.333333333 544 -364.333333333 549.166666667 -365 555.5 c 128
 -365.666666667 561.833333333 -366 567.666666667 -366 573 c 1
 -344.666666667 574.333333333 -323.666666667 578 -303 584 c 128
 -282.333333333 590 -262.333333333 597.666666667 -243 607 c 1
 -254.333333333 611.666666667 -265.166666667 616.333333333 -275.5 621 c 128
 -285.833333333 625.666666667 -298 630.666666667 -312 636 c 0
 -321.333333333 639.333333333 -330 642.5 -338 645.5 c 128
 -346 648.5 -354.666666667 650 -364 650 c 0
 -366.666666667 650 -369.333333333 649.833333333 -372 649.5 c 128
 -374.666666667 649.166666667 -377.666666667 648.666666667 -381 648 c 1
 -381 601 l 1
 -392.333333333 593 -402 587.333333333 -410 584 c 128
 -418 580.666666667 -429.333333333 579 -444 579 c 0
 -454.666666667 579 -464 580 -472 582 c 1
 -472 691 l 1
 -459.333333333 700.333333333 -446 708.833333333 -432 716.5 c 128
 -418 724.166666667 -401.333333333 731.333333333 -382 738 c 0
 -378 739.333333333 -373.666666667 740 -369 740 c 0
 -363.666666667 740 -359.333333333 739 -356 737 c 0
 -328.666666667 723.666666667 -305.666666667 711.833333333 -287 701.5 c 128
 -268.333333333 691.166666667 -248.666666667 680.666666667 -228 670 c 1
 -229.333333333 689.333333333 -231 709.833333333 -233 731.5 c 128
 -235 753.166666667 -236.666666667 771 -238 785 c 1
 -240.666666667 784.333333333 -243.833333333 783.666666667 -247.5 783 c 128
 -251.166666667 782.333333333 -254.333333333 782 -257 782 c 0
 -258.333333333 787.333333333 -259.333333333 795 -260 805 c 1
 -253.333333333 807.666666667 -244.666666667 811.166666667 -234 815.5 c 128
 -223.333333333 819.833333333 -212.333333333 824 -201 828 c 128
 -189.666666667 832 -179 835.5 -169 838.5 c 128
 -159 841.5 -151.333333333 843.666666667 -146 845 c 0
 -142.666666667 843.666666667 -141 841.333333333 -141 838 c 0
 -141 831.333333333 -141.166666667 821.666666667 -141.5 809 c 128
 -141.833333333 796.333333333 -142.166666667 782 -142.5 766 c 128
 -142.833333333 750 -143 733.333333333 -143 716 c 128
 -143 690 -143 690 -143 667 c 1
 -132.333333333 674.333333333 -121.833333333 681.666666667 -111.5 689 c 128
 -101.166666667 696.333333333 -91.3333333333 702.666666667 -82 708 c 0
 -66 717.333333333 -49 725.5 -31 732.5 c 128
 -13 739.5 7.66666666667 743 31 743 c 0
EndSplineSet
EndChar

StartChar: endash
Encoding: 8211 8211 58
Width: 481
Flags: HW
LayerCount: 2
Fore
SplineSet
35 190 m 1
 35 244 l 1
 448 244 l 1
 448 190 l 1
 35 190 l 1
EndSplineSet
EndChar

StartChar: emdash
Encoding: 8212 8212 59
Width: 641
Flags: HW
LayerCount: 2
Fore
SplineSet
35 190 m 1
 35 244 l 1
 608 244 l 1
 608 190 l 1
 35 190 l 1
EndSplineSet
EndChar

StartChar: uniA64B0300
Encoding: 59620 59620 61
Width: 407
Flags: HW
AnchorPoint: "Yerok" 196 757 basechar 0
AnchorPoint: "Diacritic" 195 756 basechar 0
LayerCount: 2
Fore
SplineSet
209 -10 m 0
 187.666666667 -10 167.833333333 -8.16666666667 149.5 -4.5 c 128
 131.166666667 -0.833333333333 115.166666667 5 101.5 13 c 128
 87.8333333333 21 77.1666666667 31.5 69.5 44.5 c 128
 61.8333333333 57.5 58 73.6666666667 58 93 c 0
 58 114.333333333 61.6666666667 132.833333333 69 148.5 c 128
 76.3333333333 164.166666667 87.3333333333 179.666666667 102 195 c 0
 115.333333333 209.666666667 127.333333333 221.166666667 138 229.5 c 128
 148.666666667 237.833333333 159.666666667 247.666666667 171 259 c 1
 157.666666667 277.666666667 145 295.5 133 312.5 c 128
 121 329.5 110 345.666666667 100 361 c 0
 94.6666666667 369 89 378 83 388 c 128
 77 398 71.1666666667 408.333333333 65.5 419 c 128
 59.8333333333 429.666666667 54.5 440.333333333 49.5 451 c 128
 44.5 461.666666667 40 471.333333333 36 480 c 0
 32 489.333333333 29.1666666667 497.166666667 27.5 503.5 c 128
 25.8333333333 509.833333333 25 517.666666667 25 527 c 0
 25 538.333333333 26.8333333333 549.333333333 30.5 560 c 128
 34.1666666667 570.666666667 40.6666666667 580.666666667 50 590 c 0
 58.6666666667 599.333333333 66.8333333333 607.333333333 74.5 614 c 128
 82.1666666667 620.666666667 89.5 626.666666667 96.5 632 c 128
 103.5 637.333333333 110.666666667 642.333333333 118 647 c 128
 125.333333333 651.666666667 133 656.666666667 141 662 c 1
 146.333333333 660.666666667 150.166666667 657.833333333 152.5 653.5 c 128
 154.833333333 649.166666667 156.333333333 645 157 641 c 1
 151.666666667 634.333333333 146.333333333 628.5 141 623.5 c 128
 135.666666667 618.5 129.333333333 612 122 604 c 0
 117.333333333 598.666666667 114.5 592.333333333 113.5 585 c 128
 112.5 577.666666667 112 570.666666667 112 564 c 0
 112 554.666666667 113.166666667 546.666666667 115.5 540 c 128
 117.833333333 533.333333333 120.333333333 526.333333333 123 519 c 0
 127 508.333333333 132.5 495.833333333 139.5 481.5 c 128
 146.5 467.166666667 154 452.833333333 162 438.5 c 128
 170 424.166666667 178.166666667 410.166666667 186.5 396.5 c 128
 194.833333333 382.833333333 202 371.333333333 208 362 c 0
 211.333333333 357.333333333 214.833333333 352.166666667 218.5 346.5 c 128
 222.166666667 340.833333333 226.333333333 335 231 329 c 1
 244.333333333 345 257 361.666666667 269 379 c 128
 281 396.333333333 292.666666667 415.666666667 304 437 c 1
 337 437 l 2
 339.666666667 437 341.166666667 436 341.5 434 c 128
 341.833333333 432 342 430.333333333 342 429 c 0
 328.666666667 407.666666667 314.166666667 387.5 298.5 368.5 c 128
 282.833333333 349.5 266.333333333 329 249 307 c 1
 257.666666667 295.666666667 266 284.666666667 274 274 c 128
 282 263.333333333 288.666666667 254 294 246 c 0
 310 220.666666667 322.666666667 196.833333333 332 174.5 c 128
 341.333333333 152.166666667 346 126.333333333 346 97 c 0
 346 77.6666666667 342.5 61.1666666667 335.5 47.5 c 128
 328.5 33.8333333333 319 22.6666666667 307 14 c 128
 295 5.33333333333 280.666666667 -0.833333333333 264 -4.5 c 128
 247.333333333 -8.16666666667 229 -10 209 -10 c 0
146 175 m 0
 138.666666667 163.666666667 131.833333333 150 125.5 134 c 128
 119.166666667 118 116 100.666666667 116 82 c 0
 116 62 121.5 44.6666666667 132.5 30 c 128
 143.5 15.3333333333 160.666666667 8 184 8 c 0
 200 8 212.666666667 10.5 222 15.5 c 128
 231.333333333 20.5 238.666666667 27.1666666667 244 35.5 c 128
 249.333333333 43.8333333333 252.833333333 53.5 254.5 64.5 c 128
 256.166666667 75.5 257.333333333 86.6666666667 258 98 c 0
 256 113.333333333 252.5 126.833333333 247.5 138.5 c 128
 242.5 150.166666667 235.333333333 164.333333333 226 181 c 0
 220 191 214.333333333 199.833333333 209 207.5 c 128
 203.666666667 215.166666667 197.333333333 223.666666667 190 233 c 1
 181.333333333 221.666666667 173.166666667 211.166666667 165.5 201.5 c 128
 157.833333333 191.833333333 151.333333333 183 146 175 c 0
206 622 m 1
 204.666666667 628.666666667 204 635.333333333 204 642 c 0
 204 644.666666667 204.666666667 649.833333333 206 657.5 c 128
 207.333333333 665.166666667 210.666666667 669 216 669 c 2
 357 596 l 2
 358.333333333 593.333333333 359.166666667 589.333333333 359.5 584 c 128
 359.833333333 578.666666667 360 575 360 573 c 0
 360 567 359 561.833333333 357 557.5 c 128
 355 553.166666667 351.666666667 550.333333333 347 549 c 1
 206 622 l 1
EndSplineSet
Ligature2: "'ccmp' Precomposed Glyphs-1" uniA64B gravecomb
EndChar

StartChar: uniA64B0301
Encoding: 59618 59618 62
Width: 407
Flags: HW
AnchorPoint: "Yerok" 208 781 basechar 0
AnchorPoint: "Diacritic" 207 780 basechar 0
LayerCount: 2
Fore
SplineSet
209 -10 m 0
 187.666666667 -10 167.833333333 -8.16666666667 149.5 -4.5 c 128
 131.166666667 -0.833333333333 115.166666667 5 101.5 13 c 128
 87.8333333333 21 77.1666666667 31.5 69.5 44.5 c 128
 61.8333333333 57.5 58 73.6666666667 58 93 c 0
 58 114.333333333 61.6666666667 132.833333333 69 148.5 c 128
 76.3333333333 164.166666667 87.3333333333 179.666666667 102 195 c 0
 115.333333333 209.666666667 127.333333333 221.166666667 138 229.5 c 128
 148.666666667 237.833333333 159.666666667 247.666666667 171 259 c 1
 157.666666667 277.666666667 145 295.5 133 312.5 c 128
 121 329.5 110 345.666666667 100 361 c 0
 94.6666666667 369 89 378.166666667 83 388.5 c 128
 77 398.833333333 71 409.333333333 65 420 c 128
 59 430.666666667 53.5 441.333333333 48.5 452 c 128
 43.5 462.666666667 39.3333333333 472 36 480 c 0
 32 489.333333333 29.1666666667 497.166666667 27.5 503.5 c 128
 25.8333333333 509.833333333 25 517.666666667 25 527 c 0
 25 548.333333333 34.3333333333 569 53 589 c 0
 71 607.666666667 89.3333333333 623.666666667 108 637 c 128
 126.666666667 650.333333333 144.333333333 662.666666667 161 674 c 1
 167 672.666666667 170.5 670 171.5 666 c 128
 172.5 662 173 658 173 654 c 1
 161.666666667 644 153 635.666666667 147 629 c 128
 141 622.333333333 133.666666667 613.666666667 125 603 c 0
 121 597.666666667 118.333333333 591.5 117 584.5 c 128
 115.666666667 577.5 115 570.666666667 115 564 c 0
 115 554.666666667 115.666666667 546.666666667 117 540 c 128
 118.333333333 533.333333333 120.333333333 526.333333333 123 519 c 0
 127 508.333333333 132.5 495.833333333 139.5 481.5 c 128
 146.5 467.166666667 154 452.833333333 162 438.5 c 128
 170 424.166666667 178.166666667 410.166666667 186.5 396.5 c 128
 194.833333333 382.833333333 202 371.333333333 208 362 c 0
 211.333333333 357.333333333 214.833333333 352.166666667 218.5 346.5 c 128
 222.166666667 340.833333333 226.333333333 335 231 329 c 1
 244.333333333 345 257 361.666666667 269 379 c 128
 281 396.333333333 292.666666667 415.666666667 304 437 c 1
 337 437 l 2
 339.666666667 437 341.166666667 436 341.5 434 c 128
 341.833333333 432 342 430.333333333 342 429 c 0
 328.666666667 407.666666667 314.166666667 387.5 298.5 368.5 c 128
 282.833333333 349.5 266.333333333 329 249 307 c 1
 257.666666667 295.666666667 266 284.666666667 274 274 c 128
 282 263.333333333 288.666666667 254 294 246 c 0
 310 220.666666667 322.666666667 196.833333333 332 174.5 c 128
 341.333333333 152.166666667 346 126.333333333 346 97 c 0
 346 77.6666666667 342.5 61.1666666667 335.5 47.5 c 128
 328.5 33.8333333333 319 22.6666666667 307 14 c 128
 295 5.33333333333 280.666666667 -0.833333333333 264 -4.5 c 128
 247.333333333 -8.16666666667 229 -10 209 -10 c 0
146 175 m 0
 138.666666667 163.666666667 131.833333333 150 125.5 134 c 128
 119.166666667 118 116 100.666666667 116 82 c 0
 116 62 121.5 44.6666666667 132.5 30 c 128
 143.5 15.3333333333 160.666666667 8 184 8 c 0
 200 8 212.666666667 10.5 222 15.5 c 128
 231.333333333 20.5 238.666666667 27.1666666667 244 35.5 c 128
 249.333333333 43.8333333333 252.833333333 53.5 254.5 64.5 c 128
 256.166666667 75.5 257.333333333 86.6666666667 258 98 c 0
 256 113.333333333 252.5 126.833333333 247.5 138.5 c 128
 242.5 150.166666667 235.333333333 164.333333333 226 181 c 0
 220 191 214.333333333 199.833333333 209 207.5 c 128
 203.666666667 215.166666667 197.333333333 223.666666667 190 233 c 1
 181.333333333 221.666666667 173.166666667 211.166666667 165.5 201.5 c 128
 157.833333333 191.833333333 151.333333333 183 146 175 c 0
312 787 m 2
 313.333333333 789 315.5 791.166666667 318.5 793.5 c 128
 321.5 795.833333333 324 797.333333333 326 798 c 256
 328 798.666666667 331 799.5 335 800.5 c 128
 339 801.5 343.333333333 802.5 348 803.5 c 128
 355 805 355 805 362 806.5 c 128
 366.666666667 807.5 370.333333333 808 373 808 c 0
 378.333333333 808 381 805.333333333 381 800 c 2
 257 549 l 2
 255 545.666666667 251.666666667 544 247 544 c 0
 240.333333333 544.666666667 233.833333333 545.666666667 227.5 547 c 128
 221.166666667 548.333333333 217.333333333 551.333333333 216 556 c 1
 312 787 l 2
EndSplineSet
Ligature2: "'ccmp' Precomposed Glyphs-1" uniA64B acutecomb
EndChar

StartChar: uni0482
Encoding: 1154 1154 63
Width: 224
Flags: HW
LayerCount: 2
Fore
SplineSet
187 -44 m 1
 145 -13 l 1
 141.666666667 -17.6666666667 138.333333333 -22.6666666667 135 -28 c 128
 130 -36 130 -36 125 -44 c 1
 171 -75 l 1
 143 -106 l 1
 137 -102 130.833333333 -97.8333333333 124.5 -93.5 c 128
 118.166666667 -89.1666666667 111 -83.6666666667 103 -77 c 1
 85.6666666667 -100.333333333 73.6666666667 -119 67 -133 c 1
 29 -112 l 1
 33 -106 38.3333333333 -97.6666666667 45 -87 c 128
 51.6666666667 -76.3333333333 59.6666666667 -64.3333333333 69 -51 c 1
 59.6666666667 -45 50.6666666667 -38.8333333333 42 -32.5 c 128
 33.3333333333 -26.1666666667 26 -21 20 -17 c 1
 49 14 l 1
 54.3333333333 10.6666666667 60.6666666667 6 68 0 c 128
 75.3333333333 -6 83.3333333333 -11.6666666667 92 -17 c 1
 97 -10 97 -10 102 -3 c 128
 105.333333333 1.66666666667 108.666666667 6.66666666667 112 12 c 1
 102.666666667 19.3333333333 93.8333333333 26 85.5 32 c 128
 77.1666666667 38 70.3333333333 43.3333333333 65 48 c 1
 90 80 l 1
 95.3333333333 75.3333333333 102 70.1666666667 110 64.5 c 128
 118 58.8333333333 126 53 134 47 c 1
 143.333333333 59 151.5 69.8333333333 158.5 79.5 c 128
 165.5 89.1666666667 170.666666667 97.6666666667 174 105 c 1
 210 83 l 1
 206 75.6666666667 200.333333333 67.1666666667 193 57.5 c 128
 185.666666667 47.8333333333 177.333333333 35.6666666667 168 21 c 1
 186 8.33333333333 200.666666667 -3 212 -13 c 1
 187 -44 l 1
EndSplineSet
EndChar

StartChar: uni04630300
Encoding: 59659 59659 64
Width: 572
Flags: HW
AnchorPoint: "Yerok" 296 757 basechar 0
AnchorPoint: "Diacritic" 295 756 basechar 0
LayerCount: 2
Fore
SplineSet
245 437 m 1
 245.666666667 447.666666667 246.166666667 458.333333333 246.5 469 c 128
 246.833333333 479.666666667 247.333333333 490.666666667 248 502 c 1
 343 502 l 1
 341.666666667 491.333333333 340.666666667 480.666666667 340 470 c 128
 339.333333333 459.333333333 338.333333333 448.333333333 337 437 c 1
 523 437 l 1
 523 432.333333333 522.333333333 428.666666667 521 426 c 0
 509.666666667 418.666666667 500.166666667 409.666666667 492.5 399 c 128
 484.833333333 388.333333333 478.333333333 377.166666667 473 365.5 c 128
 467.666666667 353.833333333 463.5 342.166666667 460.5 330.5 c 128
 457.5 318.833333333 455 308.333333333 453 299 c 0
 453 296.333333333 451.666666667 295 449 295 c 0
 447 295 444.666666667 296.333333333 442 299 c 0
 430.666666667 315 421.5 333.666666667 414.5 355 c 128
 407.5 376.333333333 401.333333333 397.666666667 396 419 c 1
 336 419 l 1
 336 413.666666667 335.833333333 408.166666667 335.5 402.5 c 128
 335.166666667 396.833333333 335 391.333333333 335 386 c 0
 333.666666667 350 332.5 315.5 331.5 282.5 c 128
 330.5 249.5 330 217.666666667 330 187 c 1
 332 188 332 188 334 189 c 128
 336 190 336 190 338 191 c 0
 354 196.333333333 368 202.5 380 209.5 c 128
 392 216.5 404 224.666666667 416 234 c 0
 417.333333333 235.333333333 419 236 421 236 c 0
 422.333333333 236 423.666666667 235.333333333 425 234 c 0
 433 222 441.5 207.5 450.5 190.5 c 128
 459.5 173.5 468.166666667 155.333333333 476.5 136 c 128
 484.833333333 116.666666667 493 96.5 501 75.5 c 128
 509 54.5 516 34 522 14 c 0
 522.666666667 10.6666666667 523 6 523 0 c 1
 235 0 l 1
 235 30.6666666667 235.166666667 60.8333333333 235.5 90.5 c 128
 235.833333333 120.166666667 236.166666667 150.666666667 236.5 182 c 128
 236.833333333 213.333333333 237.333333333 245.666666667 238 279 c 128
 238.666666667 312.333333333 240 347.666666667 242 385 c 0
 242 390.333333333 242.166666667 395.166666667 242.5 399.5 c 128
 243 406 243 406 244 419 c 1
 154 419 l 1
 154.666666667 407.666666667 155.166666667 394.833333333 155.5 380.5 c 128
 155.833333333 366.166666667 156 351.333333333 156 336 c 0
 156 317.333333333 155.833333333 299.333333333 155.5 282 c 128
 155.166666667 264.666666667 154.666666667 250 154 238 c 1
 139.333333333 231.333333333 124.333333333 226.5 109 223.5 c 128
 93.6666666667 220.5 78.3333333333 218.333333333 63 217 c 0
 61.6666666667 217 60.5 218 59.5 220 c 128
 58.5 222 58 224 58 226 c 0
 58.6666666667 235.333333333 59 244.833333333 59 254.5 c 128
 59 269 59 269 59 285 c 0
 59 308.333333333 58.8333333333 331.5 58.5 354.5 c 128
 58.1666666667 377.5 57.6666666667 399 57 419 c 1
 42 419 l 2
 38 419 36 422.333333333 36 429 c 0
 36 434.333333333 37.6666666667 437 41 437 c 2
 245 437 l 1
416 18 m 1
 415.333333333 23.3333333333 414.666666667 28.5 414 33.5 c 128
 413.333333333 38.5 412.333333333 44 411 50 c 0
 407.666666667 63.3333333333 403.5 77 398.5 91 c 128
 393.5 105 388 117.833333333 382 129.5 c 128
 376 141.166666667 369.5 151 362.5 159 c 128
 355.5 167 348.333333333 172 341 174 c 1
 335.666666667 172.666666667 332 171.666666667 330 171 c 0
 330 120 330 120 330 85 c 128
 330 61.6666666667 330.333333333 39.3333333333 331 18 c 1
 416 18 l 1
475 563 m 256
 475 557.666666667 472.333333333 555 467 555 c 2
 244 642 l 1
 242 649.333333333 240.666666667 656.833333333 240 664.5 c 128
 239.333333333 672.166666667 239 679 239 685 c 0
 239 689.666666667 241.333333333 692 246 692 c 2
 472 604 l 1
 473.333333333 596.666666667 474.166666667 589.333333333 474.5 582 c 128
 474.833333333 574.666666667 475 568.333333333 475 563 c 256
EndSplineSet
Ligature2: "'ccmp' Precomposed Glyphs-1" uni0463 gravecomb
EndChar

StartChar: guillemotleft
Encoding: 171 171 65
Width: 480
Flags: HW
LayerCount: 2
Fore
SplineSet
229 -5 m 1
 48 218 l 1
 229 437 l 1
 255 437 l 1
 141 218 l 1
 255 -5 l 1
 229 -5 l 1
439 -5 m 1
 255 218 l 1
 439 437 l 1
 467 437 l 1
 354 218 l 1
 467 -5 l 1
 439 -5 l 1
EndSplineSet
EndChar

StartChar: logicalnot
Encoding: 172 172 66
Width: 399
Flags: HW
LayerCount: 2
Fore
SplineSet
364 277 m 1
 364 91 l 1
 310 91 l 1
 310 223 l 1
 36 223 l 1
 36 277 l 1
 364 277 l 1
EndSplineSet
EndChar

StartChar: uniA67E
Encoding: 42622 42622 67
Width: 334
Flags: HW
LayerCount: 2
Fore
SplineSet
166 538 m 256
 142 538 121 542.833333333 103 552.5 c 128
 85 562.166666667 69.8333333333 574.833333333 57.5 590.5 c 128
 45.1666666667 606.166666667 36 623.666666667 30 643 c 128
 24 662.333333333 21 681.666666667 21 701 c 2
 21 729 l 1
 79 729 l 1
 79 704 l 2
 79 692.666666667 80.5 680.5 83.5 667.5 c 128
 86.5 654.5 91.5 642.666666667 98.5 632 c 128
 105.5 621.333333333 114.5 612.5 125.5 605.5 c 128
 136.5 598.5 150 595 166 595 c 256
 182 595 195.5 598.5 206.5 605.5 c 128
 217.5 612.5 226.5 621.333333333 233.5 632 c 128
 240.5 642.666666667 245.5 654.5 248.5 667.5 c 128
 251.5 680.5 253 692.666666667 253 704 c 2
 253 729 l 1
 311 729 l 1
 311 701 l 2
 311 681.666666667 308 662.333333333 302 643 c 128
 296 623.666666667 286.833333333 606.166666667 274.5 590.5 c 128
 262.166666667 574.833333333 247 562.166666667 229 552.5 c 128
 211 542.833333333 190 538 166 538 c 256
EndSplineSet
EndChar

StartChar: uni0407
Encoding: 1031 1031 68
Width: 316
Flags: HW
AnchorPoint: "Yerok" 155 856 basechar 0
AnchorPoint: "Diacritic" 155 856 basechar 0
LayerCount: 2
Fore
SplineSet
252 796 m 2
 255.333333333 796 257 794 257 790 c 2
 257 712 l 2
 257 708 255.666666667 706 253 706 c 2
 191 706 l 2
 187.666666667 706 186 708 186 712 c 2
 186 790 l 2
 186 794 187.333333333 796 190 796 c 2
 252 796 l 2
125 796 m 2
 128.333333333 796 130 794 130 790 c 2
 130 712 l 2
 130 708 128.666666667 706 126 706 c 2
 64 706 l 2
 60.6666666667 706 59 708 59 712 c 2
 59 790 l 2
 59 794 60.3333333333 796 63 796 c 2
 125 796 l 2
271 0 m 1
 257.666666667 0 244.333333333 0.333333333333 231 1 c 0
 219.666666667 1 207.5 1.16666666667 194.5 1.5 c 128
 181.5 1.83333333333 169.333333333 2 158 2 c 256
 146.666666667 2 134.5 1.83333333333 121.5 1.5 c 128
 108.5 1.16666666667 96.3333333333 1 85 1 c 0
 71.6666666667 0.333333333333 58.3333333333 0 45 0 c 1
 45 18 l 1
 61.6666666667 24.6666666667 75.5 36.3333333333 86.5 53 c 128
 97.5 69.6666666667 106.333333333 89.1666666667 113 111.5 c 128
 119.666666667 133.833333333 124.666666667 158 128 184 c 128
 131.333333333 210 133.666666667 236 135 262 c 1
 115 265.333333333 97.3333333333 273 82 285 c 128
 66.6666666667 297 59 313.666666667 59 335 c 256
 59 356.333333333 66.6666666667 372.666666667 82 384 c 128
 97.3333333333 395.333333333 115 402.666666667 135 406 c 1
 134.333333333 431.333333333 132.833333333 456.833333333 130.5 482.5 c 128
 128.166666667 508.166666667 124.166666667 531.833333333 118.5 553.5 c 128
 112.833333333 575.166666667 104.833333333 594.166666667 94.5 610.5 c 128
 84.1666666667 626.833333333 71 638.333333333 55 645 c 1
 55 663 l 1
 67 662.333333333 79 662 91 662 c 0
 101.666666667 661.333333333 113 661 125 661 c 128
 143 661 143 661 158 661 c 256
 173 661 173 661 190.5 661 c 128
 202.166666667 661 213.333333333 661.333333333 224 662 c 0
 236 662 248.333333333 662.333333333 261 663 c 1
 261 645 l 1
 244.333333333 638.333333333 230.833333333 626.833333333 220.5 610.5 c 128
 210.166666667 594.166666667 202.166666667 575.166666667 196.5 553.5 c 128
 190.833333333 531.833333333 186.833333333 508.166666667 184.5 482.5 c 128
 182.166666667 456.833333333 180.666666667 431.333333333 180 406 c 1
 200 402.666666667 217.833333333 395 233.5 383 c 128
 249.166666667 371 257 355 257 335 c 0
 257 313.666666667 249.333333333 297 234 285 c 128
 218.666666667 273 201 265.333333333 181 262 c 1
 182.333333333 236 184.666666667 210 188 184 c 128
 191.333333333 158 196.333333333 133.833333333 203 111.5 c 128
 209.666666667 89.1666666667 218.5 69.6666666667 229.5 53 c 128
 240.5 36.3333333333 254.333333333 24.6666666667 271 18 c 1
 271 0 l 1
EndSplineSet
Ligature2: "'ccmp' Precomposed Glyphs-1" uni0406 uni0308
EndChar

StartChar: uni0457
Encoding: 1111 1111 69
Width: 241
Flags: HW
AnchorPoint: "Yerok" 113 715 basechar 0
AnchorPoint: "Diacritic" 111 716 basechar 0
LayerCount: 2
Fore
SplineSet
132 638 m 1
 140 639.333333333 148.166666667 640.166666667 156.5 640.5 c 128
 164.833333333 640.833333333 173 641 181 641 c 0
 187.666666667 641 194 640.666666667 200 640 c 128
 206 639.333333333 211.666666667 638.666666667 217 638 c 1
 219 632 221 624.166666667 223 614.5 c 128
 225 604.833333333 226.833333333 594.833333333 228.5 584.5 c 128
 230.166666667 574.166666667 231.333333333 564.166666667 232 554.5 c 128
 232.666666667 544.833333333 233 537 233 531 c 1
 225.666666667 529 217.833333333 527.666666667 209.5 527 c 128
 201.166666667 526.333333333 193 526 185 526 c 0
 173.666666667 526 161.333333333 527.666666667 148 531 c 1
 146 535.666666667 144.166666667 542.5 142.5 551.5 c 128
 140.833333333 560.5 139.166666667 570.166666667 137.5 580.5 c 128
 135.833333333 590.833333333 134.5 601.166666667 133.5 611.5 c 128
 132.5 621.833333333 132 630.666666667 132 638 c 1
-5 632 m 1
 3 633.333333333 11.1666666667 634.166666667 19.5 634.5 c 128
 27.8333333333 634.833333333 36 635 44 635 c 0
 50.6666666667 635 57 634.666666667 63 634 c 128
 69 633.333333333 74.6666666667 632.666666667 80 632 c 1
 82 626 84 618.166666667 86 608.5 c 128
 88 598.833333333 89.8333333333 588.833333333 91.5 578.5 c 128
 93.1666666667 568.166666667 94.3333333333 558.166666667 95 548.5 c 128
 95.6666666667 538.833333333 96 531 96 525 c 1
 88.6666666667 523 80.8333333333 521.666666667 72.5 521 c 128
 64.1666666667 520.333333333 56 520 48 520 c 0
 36.6666666667 520 24.3333333333 521.666666667 11 525 c 1
 9 529.666666667 7.16666666667 536.5 5.5 545.5 c 128
 3.83333333333 554.5 2.16666666667 564.166666667 0.5 574.5 c 128
 -1.16666666667 584.833333333 -2.5 595.166666667 -3.5 605.5 c 128
 -4.5 615.833333333 -5 624.666666667 -5 632 c 1
180 0 m 1
 172.666666667 -1.33333333333 164.666666667 -2.33333333333 156 -3 c 128
 147.333333333 -3.66666666667 138.333333333 -4 129 -4 c 256
 119.666666667 -4 110.166666667 -3.66666666667 100.5 -3 c 128
 90.8333333333 -2.33333333333 81.3333333333 -1.33333333333 72 0 c 1
 70.6666666667 17.3333333333 69.6666666667 39.3333333333 69 66 c 128
 68.3333333333 92.6666666667 68 121.333333333 68 152 c 0
 68 174.666666667 68.3333333333 198.666666667 69 224 c 128
 69.6666666667 249.333333333 70.5 274.5 71.5 299.5 c 128
 72.5 324.5 73.6666666667 348.5 75 371.5 c 128
 76.3333333333 394.5 77.6666666667 415 79 433 c 1
 97 436.333333333 113.5 438.666666667 128.5 440 c 128
 143.5 441.333333333 160.666666667 442 180 442 c 1
 179.333333333 428.666666667 178.666666667 412.5 178 393.5 c 128
 177.333333333 374.5 176.666666667 354 176 332 c 128
 175.333333333 310 174.666666667 287.5 174 264.5 c 128
 173.333333333 241.5 173 219 173 197 c 0
 173 179 173.166666667 160.5 173.5 141.5 c 128
 173.833333333 122.5 174.333333333 104.333333333 175 87 c 128
 175.666666667 69.6666666667 176.333333333 53.3333333333 177 38 c 128
 177.666666667 22.6666666667 178.666666667 10 180 0 c 1
EndSplineSet
Ligature2: "'ccmp' Precomposed Glyphs-1" uni0456 uni0308
EndChar

StartChar: paragraph
Encoding: 182 182 70
Width: 501
Flags: HW
LayerCount: 2
Fore
SplineSet
218 -91 m 1
 218 349 l 1
 198 349 179.833333333 352.333333333 163.5 359 c 128
 147.166666667 365.666666667 132.666666667 375 120 387 c 256
 107.333333333 399 97.3333333333 412.833333333 90 428.5 c 128
 82.6666666667 444.166666667 78.6666666667 460.666666667 78 478 c 2
 78 502 l 2
 78.6666666667 517.333333333 82.3333333333 532.333333333 89 547 c 128
 95.6666666667 561.666666667 105 575.666666667 117 589 c 0
 129.666666667 602.333333333 144.833333333 613 162.5 621 c 128
 180.166666667 629 198.666666667 633 218 633 c 2
 274 633 l 1
 274 -91 l 1
 218 -91 l 1
331 -91 m 1
 331 633 l 1
 387 633 l 1
 387 -91 l 1
 331 -91 l 1
EndSplineSet
EndChar

StartChar: uni04630301
Encoding: 59658 59658 71
Width: 572
Flags: HW
AnchorPoint: "Yerok" 318 826 basechar 0
AnchorPoint: "Diacritic" 318 826 basechar 0
LayerCount: 2
Fore
SplineSet
497 762 m 2
 498.333333333 764 500.5 766.166666667 503.5 768.5 c 128
 506.5 770.833333333 509 772.333333333 511 773 c 256
 513 773.666666667 516 774.5 520 775.5 c 128
 524 776.5 528.333333333 777.5 533 778.5 c 128
 540 780 540 780 547 781.5 c 128
 551.666666667 782.5 555.333333333 783 558 783 c 0
 563.333333333 783 566 780.333333333 566 775 c 2
 433 530 l 2
 431 526.666666667 427.666666667 525 423 525 c 0
 416.333333333 525.666666667 409.833333333 526.666666667 403.5 528 c 128
 397.166666667 529.333333333 393.333333333 532.333333333 392 537 c 1
 497 762 l 2
244 437 m 1
 245.333333333 465 246.833333333 493 248.5 521 c 128
 250.166666667 549 251.833333333 575.333333333 253.5 600 c 128
 255.166666667 624.666666667 256.666666667 646.833333333 258 666.5 c 128
 259.333333333 686.166666667 260.333333333 701.666666667 261 713 c 1
 281.666666667 713.666666667 302.666666667 716.333333333 324 721 c 128
 345.333333333 725.666666667 363.666666667 731.666666667 379 739 c 0
 383 739 385 736.666666667 385 732 c 0
 381 720.666666667 377.666666667 710.333333333 375 701 c 128
 372.333333333 691.666666667 370 680.333333333 368 667 c 0
 364 644.333333333 360.5 623.5 357.5 604.5 c 128
 354.5 585.5 351.666666667 567 349 549 c 128
 346.333333333 531 344.166666667 512.833333333 342.5 494.5 c 128
 340.833333333 476.166666667 339.333333333 457 338 437 c 1
 520 437 l 2
 521.333333333 436.333333333 522.166666667 435 522.5 433 c 128
 522.833333333 431 523 429.333333333 523 428 c 0
 511.666666667 420.666666667 502 411.5 494 400.5 c 128
 486 389.5 479.166666667 378 473.5 366 c 128
 467.833333333 354 463.5 342.166666667 460.5 330.5 c 128
 457.5 318.833333333 455 308.333333333 453 299 c 0
 453 296.333333333 451.666666667 295 449 295 c 0
 447 295 444.666666667 296.333333333 442 299 c 0
 430.666666667 315 421.5 333.666666667 414.5 355 c 128
 407.5 376.333333333 401.333333333 397.666666667 396 419 c 1
 337 419 l 1
 336.333333333 413.666666667 335.666666667 407 335 399 c 128
 334.333333333 391 334 384.333333333 334 379 c 0
 332.666666667 343 331.666666667 310 331 280 c 128
 330.333333333 250 330 219.666666667 330 189 c 1
 331.333333333 189 334 189.666666667 338 191 c 0
 354 196.333333333 367.5 202.166666667 378.5 208.5 c 128
 389.5 214.833333333 401 222.666666667 413 232 c 0
 413.666666667 232.666666667 414.666666667 233.5 416 234.5 c 128
 417.333333333 235.5 418.666666667 236 420 236 c 256
 421.333333333 236 422.5 235.5 423.5 234.5 c 128
 425 233 425 233 426 232 c 0
 434 220 442.333333333 205.666666667 451 189 c 128
 459.666666667 172.333333333 468.333333333 154.333333333 477 135 c 128
 485.666666667 115.666666667 493.833333333 95.6666666667 501.5 75 c 128
 509.166666667 54.3333333333 516 34 522 14 c 0
 522.666666667 11.3333333333 523.166666667 9 523.5 7 c 128
 523.833333333 5 524 2.66666666667 524 0 c 1
 235 0 l 1
 235 30.6666666667 235.166666667 60.8333333333 235.5 90.5 c 128
 235.833333333 120.166666667 236.166666667 150.666666667 236.5 182 c 128
 236.833333333 213.333333333 237.5 245.666666667 238.5 279 c 128
 239.5 312.333333333 241 347.666666667 243 385 c 2
 243 419 l 1
 154 419 l 1
 154.666666667 407.666666667 155.166666667 394.833333333 155.5 380.5 c 128
 155.833333333 366.166666667 156 351.333333333 156 336 c 0
 156 317.333333333 155.833333333 299.333333333 155.5 282 c 128
 155.166666667 264.666666667 154.666666667 250 154 238 c 1
 139.333333333 231.333333333 124.333333333 226.5 109 223.5 c 128
 93.6666666667 220.5 78.3333333333 218.333333333 63 217 c 0
 61.6666666667 217 60.5 218 59.5 220 c 128
 58.5 222 58 224 58 226 c 0
 58.6666666667 235.333333333 59 244.833333333 59 254.5 c 128
 59 269 59 269 59 285 c 0
 59 320 59 320 59 353.5 c 128
 59 375.833333333 58.6666666667 397.666666667 58 419 c 1
 42 419 l 2
 38 419 36 422.333333333 36 429 c 0
 36 434.333333333 37.6666666667 437 41 437 c 2
 244 437 l 1
416 18 m 1
 415.333333333 23.3333333333 414.666666667 28.5 414 33.5 c 128
 413.333333333 38.5 412.333333333 44 411 50 c 0
 407.666666667 63.3333333333 403.5 77 398.5 91 c 128
 393.5 105 388 117.833333333 382 129.5 c 128
 376 141.166666667 369.5 151 362.5 159 c 128
 355.5 167 348.333333333 172 341 174 c 1
 335.666666667 172.666666667 332 171.666666667 330 171 c 0
 330 134 330 134 330 92 c 128
 330 64 330.333333333 39.3333333333 331 18 c 1
 416 18 l 1
EndSplineSet
Ligature2: "'ccmp' Precomposed Glyphs-1" uni0463 acutecomb
EndChar

StartChar: afii10101
Encoding: 1108 1108 72
Width: 481
Flags: HW
AnchorPoint: "Yerok" 366 557 basechar 0
AnchorPoint: "Diacritic" 241 556 basechar 0
LayerCount: 2
Fore
SplineSet
284 446 m 0
 316 446 343.666666667 438.666666667 367 424 c 128
 390.333333333 409.333333333 411.333333333 393 430 375 c 1
 434 376.333333333 438.333333333 377.333333333 443 378 c 128
 447.666666667 378.666666667 451.666666667 379.666666667 455 381 c 0
 460.333333333 381 463 377.333333333 463 370 c 0
 463 365.333333333 461.666666667 362.666666667 459 362 c 0
 451 360 441.666666667 357.333333333 431 354 c 128
 420.333333333 350.666666667 409.166666667 347.333333333 397.5 344 c 128
 385.833333333 340.666666667 374.5 337.5 363.5 334.5 c 128
 352.5 331.5 342.666666667 329 334 327 c 1
 316.666666667 348.333333333 299.666666667 366.5 283 381.5 c 128
 266.333333333 396.5 246.333333333 404.333333333 223 405 c 0
 209 403.666666667 197.166666667 398.5 187.5 389.5 c 128
 177.833333333 380.5 170 369.166666667 164 355.5 c 128
 158 341.833333333 153.666666667 326.833333333 151 310.5 c 128
 148.333333333 294.166666667 147 278.333333333 147 263 c 0
 147 239.666666667 148 217.333333333 150 196 c 128
 152 174.666666667 154.666666667 153.666666667 158 133 c 1
 178 151.666666667 198.833333333 171.333333333 220.5 192 c 128
 242.166666667 212.666666667 261 231.666666667 277 249 c 0
 278.333333333 250.333333333 279.666666667 251 281 251 c 256
 282.333333333 251 284.333333333 250.333333333 287 249 c 0
 310.333333333 237.666666667 332.166666667 223.333333333 352.5 206 c 128
 372.833333333 188.666666667 390 174 404 162 c 1
 414.666666667 164 424 166.333333333 432 169 c 0
 434.666666667 169 436.666666667 167.833333333 438 165.5 c 128
 439.333333333 163.166666667 440 160.666666667 440 158 c 0
 440 153.333333333 438.666666667 150.666666667 436 150 c 0
 428 148 418 145.166666667 406 141.5 c 128
 394 137.833333333 381.666666667 134.166666667 369 130.5 c 128
 356.333333333 126.833333333 344.5 123.5 333.5 120.5 c 128
 322.5 117.5 314.333333333 115.333333333 309 114 c 1
 301.666666667 122.666666667 291 133.5 277 146.5 c 128
 263 159.5 248.333333333 169 233 175 c 1
 223.666666667 167 212.333333333 157.166666667 199 145.5 c 128
 185.666666667 133.833333333 173.333333333 122.333333333 162 111 c 1
 167.333333333 81.6666666667 174 53.8333333333 182 27.5 c 128
 190 1.16666666667 198.666666667 -24.3333333333 208 -49 c 0
 212.666666667 -61.6666666667 219.5 -73.3333333333 228.5 -84 c 128
 237.5 -94.6666666667 246.666666667 -100.666666667 256 -102 c 1
 261.333333333 -99.3333333333 268 -95.5 276 -90.5 c 128
 284 -85.5 292 -79.8333333333 300 -73.5 c 128
 308 -67.1666666667 315.833333333 -60.3333333333 323.5 -53 c 128
 331.166666667 -45.6666666667 337.333333333 -38 342 -30 c 0
 345.333333333 -29.3333333333 348.5 -28.8333333333 351.5 -28.5 c 128
 354.5 -28.1666666667 357.666666667 -28 361 -28 c 256
 364.333333333 -28 367.166666667 -28.1666666667 369.5 -28.5 c 128
 371.833333333 -28.8333333333 374.333333333 -29.3333333333 377 -30 c 0
 379.666666667 -32 381 -34.6666666667 381 -38 c 0
 373 -49.3333333333 362.5 -62 349.5 -76 c 128
 336.5 -90 321.833333333 -103.333333333 305.5 -116 c 128
 289.166666667 -128.666666667 271.166666667 -139.166666667 251.5 -147.5 c 128
 231.833333333 -155.833333333 211.333333333 -160 190 -160 c 1
 172 -154.666666667 156 -143.166666667 142 -125.5 c 128
 128 -107.833333333 117.666666667 -88.6666666667 111 -68 c 0
 103 -42 95.5 -17.6666666667 88.5 5 c 128
 81.5 27.6666666667 75.3333333333 50.5 70 73.5 c 128
 64.6666666667 96.5 60.5 120.5 57.5 145.5 c 128
 54.5 170.5 53 198.666666667 53 230 c 0
 53 256 59.3333333333 281.833333333 72 307.5 c 128
 84.6666666667 333.166666667 101.666666667 356.166666667 123 376.5 c 128
 144.333333333 396.833333333 168.833333333 413.5 196.5 426.5 c 128
 224.166666667 439.5 253.333333333 446 284 446 c 0
EndSplineSet
EndChar

StartChar: guillemotright
Encoding: 187 187 73
Width: 480
Flags: HW
LayerCount: 2
Fore
SplineSet
251 437 m 1
 432 216 l 1
 251 -5 l 1
 225 -5 l 1
 339 216 l 1
 225 437 l 1
 251 437 l 1
41 437 m 1
 225 216 l 1
 41 -5 l 1
 13 -5 l 1
 126 216 l 1
 13 437 l 1
 41 437 l 1
EndSplineSet
EndChar

StartChar: afii10054
Encoding: 1029 1029 74
Width: 566
Flags: HW
AnchorPoint: "Yerok" 465 716 basechar 0
AnchorPoint: "Diacritic" 255 716 basechar 0
LayerCount: 2
Fore
SplineSet
415 460 m 1
 239 306 l 1
 272.333333333 320.666666667 309.333333333 328 350 328 c 0
 388.666666667 328 419.5 322.333333333 442.5 311 c 128
 465.5 299.666666667 485 284.333333333 501 265 c 0
 508.333333333 255.666666667 514.666666667 243.833333333 520 229.5 c 128
 525.333333333 215.166666667 528 201.333333333 528 188 c 0
 528 166 526.666666667 146.166666667 524 128.5 c 128
 521.333333333 110.833333333 516.333333333 94.3333333333 509 79 c 0
 503.666666667 67.6666666667 497 56.6666666667 489 46 c 128
 481 35.3333333333 471.5 25.8333333333 460.5 17.5 c 128
 449.5 9.16666666667 437.333333333 2.33333333333 424 -3 c 128
 410.666666667 -8.33333333333 396.666666667 -11 382 -11 c 0
 366.666666667 -11 352.666666667 -9.66666666667 340 -7 c 128
 327.333333333 -4.33333333333 315.333333333 0.333333333333 304 7 c 0
 281.333333333 20.3333333333 259.666666667 34.5 239 49.5 c 128
 218.333333333 64.5 203 75.6666666667 193 83 c 0
 187.666666667 85 182.5 86.6666666667 177.5 88 c 128
 172.5 89.3333333333 167.333333333 90 162 90 c 0
 150.666666667 90 142.333333333 85.5 137 76.5 c 128
 131.666666667 67.5 129 56.3333333333 129 43 c 0
 129 39 130 34.3333333333 132 29 c 128
 134 23.6666666667 136.333333333 19.3333333333 139 16 c 1
 139 0 l 1
 127 -2 111.666666667 -3 93 -3 c 0
 83 -3 73.3333333333 -2.83333333333 64 -2.5 c 128
 54.6666666667 -2.16666666667 46.3333333333 -1.33333333333 39 0 c 1
 35.6666666667 5.33333333333 32.5 11.6666666667 29.5 19 c 128
 26.5 26.3333333333 25 35.3333333333 25 46 c 0
 25 56 27.1666666667 66 31.5 76 c 128
 35.8333333333 86 42 95.1666666667 50 103.5 c 128
 58 111.833333333 67.8333333333 118.666666667 79.5 124 c 128
 91.1666666667 129.333333333 104 132 118 132 c 0
 133.333333333 132 146.5 130 157.5 126 c 128
 168.5 122 179.666666667 115.666666667 191 107 c 0
 206.333333333 95.6666666667 222.833333333 83.5 240.5 70.5 c 128
 258.166666667 57.5 273.666666667 47.3333333333 287 40 c 0
 295 38 295 38 305 35.5 c 128
 311.666666667 33.8333333333 318.333333333 33 325 33 c 0
 349.666666667 33 368.333333333 40.5 381 55.5 c 128
 393.666666667 70.5 402.333333333 87 407 105 c 0
 409.666666667 114.333333333 411.5 125.5 412.5 138.5 c 128
 413.5 151.5 414 164 414 176 c 0
 414 180.666666667 413.5 186.333333333 412.5 193 c 128
 411.5 199.666666667 410.333333333 206.333333333 409 213 c 128
 407.666666667 219.666666667 406.166666667 226 404.5 232 c 128
 402.833333333 238 401 242.666666667 399 246 c 0
 388.333333333 266.666666667 375.833333333 280.833333333 361.5 288.5 c 128
 347.166666667 296.166666667 329 300 307 300 c 0
 298.333333333 300 288.833333333 299.333333333 278.5 298 c 128
 268.166666667 296.666666667 258.666666667 294.333333333 250 291 c 0
 237.333333333 286.333333333 225.333333333 281 214 275 c 128
 202.666666667 269 192.666666667 263 184 257 c 1
 183 257 l 1
 160 237 l 1
 148 251 l 1
 325 406 l 1
 311 400.666666667 296 397.166666667 280 395.5 c 128
 264 393.833333333 249 393 235 393 c 0
 225 393 213.666666667 394.833333333 201 398.5 c 128
 188.333333333 402.166666667 176.166666667 407.333333333 164.5 414 c 128
 152.833333333 420.666666667 142 428.833333333 132 438.5 c 128
 122 448.166666667 114.666666667 459 110 471 c 0
 104.666666667 483 101.333333333 493.333333333 100 502 c 128
 98.6666666667 510.666666667 98 522 98 536 c 0
 98 546.666666667 98.8333333333 557.666666667 100.5 569 c 128
 102.166666667 580.333333333 105.333333333 590.666666667 110 600 c 0
 114 608 119.833333333 616.333333333 127.5 625 c 128
 135.166666667 633.666666667 144.5 641.5 155.5 648.5 c 128
 166.5 655.5 179.166666667 661.333333333 193.5 666 c 128
 207.833333333 670.666666667 223.333333333 673 240 673 c 0
 259.333333333 673 275.666666667 670.666666667 289 666 c 128
 302.333333333 661.333333333 317.666666667 654.333333333 335 645 c 0
 348.333333333 637.666666667 363 633.666666667 379 633 c 0
 389.666666667 634.333333333 398.833333333 638 406.5 644 c 128
 414.166666667 650 420.333333333 656.333333333 425 663 c 1
 427 671 l 1
 444 667 l 1
 413 520 l 1
 396 524 l 1
 398 534 l 1
 396 546 393.166666667 558 389.5 570 c 128
 385.833333333 582 379.333333333 592.666666667 370 602 c 0
 364.666666667 606.666666667 358.333333333 611.5 351 616.5 c 128
 343.666666667 621.5 336.666666667 625.666666667 330 629 c 0
 320.666666667 634.333333333 312.666666667 637.5 306 638.5 c 128
 299.333333333 639.5 290.666666667 640 280 640 c 0
 268.666666667 640 258.166666667 636.833333333 248.5 630.5 c 128
 238.833333333 624.166666667 230.5 616 223.5 606 c 128
 216.5 596 211.166666667 584.666666667 207.5 572 c 128
 203.833333333 559.333333333 202 546.666666667 202 534 c 0
 202 520 203.833333333 506.166666667 207.5 492.5 c 128
 211.166666667 478.833333333 216.833333333 466.666666667 224.5 456 c 128
 232.166666667 445.333333333 241.833333333 436.666666667 253.5 430 c 128
 265.166666667 423.333333333 279 420 295 420 c 0
 309.666666667 420 323.666666667 422.833333333 337 428.5 c 128
 350.333333333 434.166666667 362.666666667 440.666666667 374 448 c 2
 403 474 l 1
 415 460 l 1
EndSplineSet
EndChar

StartChar: afii10102
Encoding: 1109 1109 75
Width: 595
Flags: HW
AnchorPoint: "Yerok" 466 557 basechar 0
AnchorPoint: "Diacritic" 281 556 basechar 0
LayerCount: 2
Fore
SplineSet
246 444 m 0
 259.333333333 444 270.333333333 443.666666667 279 443 c 128
 287.666666667 442.333333333 298 441 310 439 c 0
 320 437.666666667 328.833333333 436.5 336.5 435.5 c 128
 344.166666667 434.5 353.333333333 434 364 434 c 0
 373.333333333 434 381 434.333333333 387 435 c 128
 393 435.666666667 399.666666667 437.666666667 407 441 c 0
 407.666666667 442.333333333 408.666666667 443.5 410 444.5 c 128
 411.333333333 445.5 412.666666667 446.666666667 414 448 c 0
 417.333333333 448 420.166666667 446.666666667 422.5 444 c 128
 424.833333333 441.333333333 426.333333333 439 427 437 c 0
 404.333333333 414.333333333 385.333333333 394.666666667 370 378 c 128
 354.666666667 361.333333333 341.666666667 345.666666667 331 331 c 0
 328.333333333 331 325.5 332 322.5 334 c 128
 319.5 336 317.333333333 337.666666667 316 339 c 0
 317 341 317 341 318 343 c 128
 318.666666667 344.333333333 319 346 319 348 c 0
 315.666666667 358.666666667 311.5 368.833333333 306.5 378.5 c 128
 301.5 388.166666667 295.666666667 396.5 289 403.5 c 128
 282.333333333 410.5 274.666666667 416.166666667 266 420.5 c 128
 257.333333333 424.833333333 247 427 235 427 c 0
 223.666666667 427 213.5 424.333333333 204.5 419 c 128
 195.5 413.666666667 187.666666667 406.833333333 181 398.5 c 128
 174.333333333 390.166666667 169.166666667 380.5 165.5 369.5 c 128
 161.833333333 358.5 160 347.333333333 160 336 c 0
 160 320.666666667 161.833333333 306.166666667 165.5 292.5 c 128
 169.166666667 278.833333333 174.666666667 266.5 182 255.5 c 128
 189.333333333 244.5 198.5 235.833333333 209.5 229.5 c 128
 220.5 223.166666667 233.666666667 220 249 220 c 1
 267.666666667 228.666666667 287.166666667 238.166666667 307.5 248.5 c 128
 327.833333333 258.833333333 351.666666667 270 379 282 c 0
 389 286.666666667 398.166666667 290 406.5 292 c 128
 414.833333333 294 424.666666667 295 436 295 c 0
 454.666666667 295 470.833333333 291.333333333 484.5 284 c 128
 498.166666667 276.666666667 509.666666667 266.833333333 519 254.5 c 128
 528.333333333 242.166666667 535.333333333 227.833333333 540 211.5 c 128
 544.666666667 195.166666667 547 178.333333333 547 161 c 0
 547 139.666666667 543.333333333 119.166666667 536 99.5 c 128
 528.666666667 79.8333333333 521 63.6666666667 513 51 c 0
 502.333333333 39 490 28.8333333333 476 20.5 c 128
 462 12.1666666667 446.666666667 3.66666666667 430 -5 c 1
 418.666666667 -6.33333333333 408.666666667 -7 400 -7 c 128
 387 -7 387 -7 371 -7 c 0
 365.666666667 -7 359.833333333 -6.83333333333 353.5 -6.5 c 128
 347.166666667 -6.16666666667 341.333333333 -5.66666666667 336 -5 c 0
 325.333333333 -3 316 -1.16666666667 308 0.5 c 128
 300 2.16666666667 290.333333333 4.33333333333 279 7 c 0
 261.666666667 10.3333333333 246.166666667 13.1666666667 232.5 15.5 c 128
 218.833333333 17.8333333333 202.333333333 19 183 19 c 0
 170.333333333 19 159.5 18 150.5 16 c 128
 141.5 14 131 11.3333333333 119 8 c 0
 110.333333333 5.33333333333 101.5 2.33333333333 92.5 -1 c 128
 83.5 -4.33333333333 75 -7.66666666667 67 -11 c 1
 61 -10.3333333333 56.3333333333 -8.83333333333 53 -6.5 c 128
 49.6666666667 -4.16666666667 46.6666666667 -1 44 3 c 1
 55.3333333333 18.3333333333 68 32.3333333333 82 45 c 128
 96 57.6666666667 113 69.6666666667 133 81 c 0
 148.333333333 89.6666666667 162.666666667 95.6666666667 176 99 c 128
 189.333333333 102.333333333 205 104 223 104 c 0
 239.666666667 104 255.666666667 101.166666667 271 95.5 c 128
 286.333333333 89.8333333333 301 82.5 315 73.5 c 128
 329 64.5 342.166666667 54.8333333333 354.5 44.5 c 128
 366.833333333 34.1666666667 378.666666667 24 390 14 c 1
 402 14 l 1
 417.333333333 27.3333333333 429.666666667 44.1666666667 439 64.5 c 128
 448.333333333 84.8333333333 453 109.333333333 453 138 c 0
 453 146.666666667 451.5 155.833333333 448.5 165.5 c 128
 445.5 175.166666667 441.833333333 184.5 437.5 193.5 c 128
 433.166666667 202.5 428.166666667 210.833333333 422.5 218.5 c 128
 416.833333333 226.166666667 411.666666667 232.333333333 407 237 c 0
 401 241 395.166666667 244.166666667 389.5 246.5 c 128
 383.833333333 248.833333333 377.333333333 250 370 250 c 0
 366 250 366 250 360.5 250 c 128
 356.833333333 250 353.333333333 249.333333333 350 248 c 0
 338.666666667 243.333333333 324.833333333 237 308.5 229 c 128
 292.166666667 221 275 212.5 257 203.5 c 128
 239 194.5 221.5 186 204.5 178 c 128
 187.5 170 173 163.666666667 161 159 c 0
 157 157 153.666666667 156 151 156 c 256
 148.333333333 156 145.666666667 157 143 159 c 0
 119 173 99.6666666667 190 85 210 c 128
 70.3333333333 230 63 255 63 285 c 0
 63 319.666666667 70.5 348.833333333 85.5 372.5 c 128
 100.5 396.166666667 120.333333333 414.666666667 145 428 c 1
 173.666666667 438.666666667 207.333333333 444 246 444 c 0
EndSplineSet
EndChar

StartChar: afii10017
Encoding: 1040 1040 76
Width: 460
Flags: HW
AnchorPoint: "Yerok" 332 716 basechar 0
AnchorPoint: "Diacritic" 333 716 basechar 0
LayerCount: 2
Fore
SplineSet
430 0 m 1
 230 0 l 1
 230 18 l 1
 280 18 l 1
 280 436 l 2
 278.666666667 434 277.666666667 432.166666667 277 430.5 c 128
 276.333333333 428.833333333 275.666666667 427.333333333 275 426 c 0
 265.666666667 406.666666667 254.833333333 387.666666667 242.5 369 c 128
 230.166666667 350.333333333 219.666666667 335.666666667 211 325 c 256
 202.333333333 314.333333333 194 305.166666667 186 297.5 c 128
 178 289.833333333 168.666666667 284.333333333 158 281 c 1
 171.333333333 275.666666667 182.166666667 267.833333333 190.5 257.5 c 128
 198.833333333 247.166666667 203 234.666666667 203 220 c 0
 203 200.666666667 196.333333333 185.166666667 183 173.5 c 128
 169.666666667 161.833333333 154.333333333 155.333333333 137 154 c 1
 137 130 l 2
 137 127.333333333 137.5 123 138.5 117 c 128
 139.5 111 140.666666667 104.5 142 97.5 c 128
 143.333333333 90.5 145.166666667 83.1666666667 147.5 75.5 c 128
 149.833333333 67.8333333333 152.666666667 61 156 55 c 0
 160 47.6666666667 164 41 168 35 c 128
 172 29 176.666666667 23.3333333333 182 18 c 1
 209 18 l 1
 209 0 l 1
 20 0 l 1
 20 18 l 1
 55 18 l 1
 63.6666666667 23.3333333333 70.1666666667 29.8333333333 74.5 37.5 c 128
 78.8333333333 45.1666666667 83.3333333333 54.3333333333 88 65 c 0
 93.3333333333 77.6666666667 97.3333333333 90.5 100 103.5 c 128
 102.666666667 116.5 104.666666667 126.666666667 106 134 c 0
 107.333333333 140.666666667 108 148 108 156 c 1
 93.3333333333 160 81.5 168 72.5 180 c 128
 63.5 192 59 205.666666667 59 221 c 256
 59 236.333333333 63.8333333333 249.833333333 73.5 261.5 c 128
 83.1666666667 273.166666667 95.6666666667 280.666666667 111 284 c 1
 101 289.333333333 92.5 296.833333333 85.5 306.5 c 128
 78.5 316.166666667 75 329.666666667 75 347 c 0
 75 362.333333333 79.1666666667 376.333333333 87.5 389 c 128
 95.8333333333 401.666666667 103.666666667 411 111 417 c 0
 125.666666667 429 141 439.333333333 157 448 c 128
 173 456.666666667 187.666666667 465.666666667 201 475 c 0
 214.333333333 485 226.666666667 497.166666667 238 511.5 c 128
 249.333333333 525.833333333 255 540 255 554 c 0
 255 558 254.333333333 563.333333333 253 570 c 128
 251.666666667 576.666666667 247.666666667 582.666666667 241 588 c 0
 227.666666667 599.333333333 212.666666667 605 196 605 c 1
 208.666666667 596.333333333 215 584.666666667 215 570 c 0
 215 558.666666667 210.666666667 548.833333333 202 540.5 c 128
 193.333333333 532.166666667 183.333333333 528 172 528 c 0
 160 528 150 532 142 540 c 128
 134 548 130 558.333333333 130 571 c 0
 130 586.333333333 136 598.666666667 148 608 c 0
 153.333333333 612 160.166666667 615.5 168.5 618.5 c 128
 176.833333333 621.5 186 623 196 623 c 0
 207.333333333 623 217.666666667 621 227 617 c 128
 236.333333333 613 245 608 253 602 c 0
 258.333333333 597.333333333 263.333333333 592.166666667 268 586.5 c 128
 272.666666667 580.833333333 276.666666667 575 280 569 c 1
 280 645 l 1
 230 645 l 1
 230 663 l 1
 430 663 l 1
 430 645 l 1
 380 645 l 1
 380 18 l 1
 430 18 l 1
 430 0 l 1
258 503 m 0
 253.333333333 493.666666667 247.5 485 240.5 477 c 128
 233.5 469 226.333333333 461.333333333 219 454 c 0
 207 442 195.666666667 431.166666667 185 421.5 c 128
 174.333333333 411.833333333 162.333333333 400.333333333 149 387 c 0
 143.666666667 381.666666667 139 374.5 135 365.5 c 128
 131 356.5 129 347 129 337 c 0
 129 329 131 322.5 135 317.5 c 128
 139 312.5 144.333333333 310 151 310 c 0
 161 310 169.5 312.833333333 176.5 318.5 c 128
 183.5 324.166666667 191 331.333333333 199 340 c 0
 206.333333333 348 215.833333333 361 227.5 379 c 128
 239.166666667 397 249.666666667 415.333333333 259 434 c 0
 263 443.333333333 267.166666667 454.5 271.5 467.5 c 128
 275.833333333 480.5 278 493 278 505 c 256
 278 517 276 529 272 541 c 1
 270 527.666666667 265.333333333 515 258 503 c 0
EndSplineSet
EndChar

